<svg width="375" height="78" viewBox="0 0 375 78" fill="none" xmlns="http://www.w3.org/2000/svg">
<rect width="377" height="78" transform="translate(-1)" fill="#DEEBE2"/>
<path d="M46.846 24.83H42.59L41.806 27H40.462L43.99 17.298H45.46L48.974 27H47.63L46.846 24.83ZM46.482 23.794L44.718 18.866L42.954 23.794H46.482ZM54.2496 19.188C55.1829 19.188 55.9389 19.4727 56.5176 20.042C57.0963 20.602 57.3856 21.414 57.3856 22.478V27H56.1256V22.66C56.1256 21.8947 55.9343 21.3113 55.5516 20.91C55.1689 20.4993 54.6463 20.294 53.9836 20.294C53.3116 20.294 52.7749 20.504 52.3736 20.924C51.9816 21.344 51.7856 21.9553 51.7856 22.758V27H50.5116V19.328H51.7856V20.42C52.0376 20.028 52.3783 19.7247 52.8076 19.51C53.2463 19.2953 53.7269 19.188 54.2496 19.188ZM62.1827 27.126C61.5947 27.126 61.0673 27.028 60.6007 26.832C60.134 26.6267 59.7653 26.3467 59.4947 25.992C59.224 25.628 59.0747 25.2127 59.0467 24.746H60.3627C60.4 25.1287 60.5773 25.4413 60.8947 25.684C61.2213 25.9267 61.646 26.048 62.1687 26.048C62.654 26.048 63.0367 25.9407 63.3167 25.726C63.5967 25.5113 63.7367 25.2407 63.7367 24.914C63.7367 24.578 63.5873 24.3307 63.2887 24.172C62.99 24.004 62.528 23.8407 61.9027 23.682C61.3333 23.5327 60.8667 23.3833 60.5027 23.234C60.148 23.0753 59.84 22.8467 59.5787 22.548C59.3267 22.24 59.2007 21.8387 59.2007 21.344C59.2007 20.952 59.3173 20.5927 59.5507 20.266C59.784 19.9393 60.1153 19.6827 60.5447 19.496C60.974 19.3 61.464 19.202 62.0147 19.202C62.864 19.202 63.55 19.4167 64.0727 19.846C64.5953 20.2753 64.8753 20.8633 64.9127 21.61H63.6387C63.6107 21.2087 63.4473 20.8867 63.1487 20.644C62.8593 20.4013 62.4673 20.28 61.9727 20.28C61.5153 20.28 61.1513 20.378 60.8807 20.574C60.61 20.77 60.4747 21.0267 60.4747 21.344C60.4747 21.596 60.554 21.806 60.7127 21.974C60.8807 22.1327 61.086 22.2633 61.3287 22.366C61.5807 22.4593 61.926 22.5667 62.3647 22.688C62.9153 22.8373 63.3633 22.9867 63.7087 23.136C64.054 23.276 64.348 23.4907 64.5907 23.78C64.8427 24.0693 64.9733 24.4473 64.9827 24.914C64.9827 25.334 64.866 25.712 64.6327 26.048C64.3993 26.384 64.068 26.65 63.6387 26.846C63.2187 27.0327 62.7333 27.126 62.1827 27.126ZM77.0011 19.328L74.6071 27H73.2911L71.4431 20.91L69.5951 27H68.2791L65.8711 19.328H67.1731L68.9371 25.768L70.8411 19.328H72.1431L74.0051 25.782L75.7411 19.328H77.0011ZM85.2655 22.87C85.2655 23.1127 85.2515 23.3693 85.2235 23.64H79.0915C79.1382 24.396 79.3948 24.9887 79.8615 25.418C80.3375 25.838 80.9115 26.048 81.5835 26.048C82.1342 26.048 82.5915 25.922 82.9555 25.67C83.3288 25.4087 83.5902 25.0633 83.7395 24.634H85.1115C84.9062 25.3713 84.4955 25.9733 83.8795 26.44C83.2635 26.8973 82.4982 27.126 81.5835 27.126C80.8555 27.126 80.2022 26.9627 79.6235 26.636C79.0542 26.3093 78.6062 25.8473 78.2795 25.25C77.9528 24.6433 77.7895 23.9433 77.7895 23.15C77.7895 22.3567 77.9482 21.6613 78.2655 21.064C78.5828 20.4667 79.0262 20.0093 79.5955 19.692C80.1742 19.3653 80.8368 19.202 81.5835 19.202C82.3115 19.202 82.9555 19.3607 83.5155 19.678C84.0755 19.9953 84.5048 20.434 84.8035 20.994C85.1115 21.5447 85.2655 22.17 85.2655 22.87ZM83.9495 22.604C83.9495 22.1187 83.8422 21.7033 83.6275 21.358C83.4128 21.0033 83.1188 20.7373 82.7455 20.56C82.3815 20.3733 81.9755 20.28 81.5275 20.28C80.8835 20.28 80.3328 20.4853 79.8755 20.896C79.4275 21.3067 79.1708 21.876 79.1055 22.604H83.9495ZM88.2211 20.574C88.4451 20.1353 88.7625 19.7947 89.1731 19.552C89.5931 19.3093 90.1018 19.188 90.6991 19.188V20.504H90.3631C88.9351 20.504 88.2211 21.2787 88.2211 22.828V27H86.9471V19.328H88.2211V20.574ZM97.4898 21.33V22.408H91.9038V21.33H97.4898ZM103.003 20.378H101.393V27H100.119V20.378H99.1247V19.328H100.119V18.782C100.119 17.9233 100.338 17.298 100.777 16.906C101.225 16.5047 101.939 16.304 102.919 16.304V17.368C102.359 17.368 101.962 17.48 101.729 17.704C101.505 17.9187 101.393 18.278 101.393 18.782V19.328H103.003V20.378ZM105.146 18.082C104.903 18.082 104.698 17.998 104.53 17.83C104.362 17.662 104.278 17.4567 104.278 17.214C104.278 16.9713 104.362 16.766 104.53 16.598C104.698 16.43 104.903 16.346 105.146 16.346C105.379 16.346 105.575 16.43 105.734 16.598C105.902 16.766 105.986 16.9713 105.986 17.214C105.986 17.4567 105.902 17.662 105.734 17.83C105.575 17.998 105.379 18.082 105.146 18.082ZM105.762 19.328V27H104.488V19.328H105.762ZM109.207 16.64V27H107.933V16.64H109.207ZM118.379 22.87C118.379 23.1127 118.365 23.3693 118.337 23.64H112.205C112.251 24.396 112.508 24.9887 112.975 25.418C113.451 25.838 114.025 26.048 114.697 26.048C115.247 26.048 115.705 25.922 116.069 25.67C116.442 25.4087 116.703 25.0633 116.853 24.634H118.225C118.019 25.3713 117.609 25.9733 116.993 26.44C116.377 26.8973 115.611 27.126 114.697 27.126C113.969 27.126 113.315 26.9627 112.737 26.636C112.167 26.3093 111.719 25.8473 111.393 25.25C111.066 24.6433 110.903 23.9433 110.903 23.15C110.903 22.3567 111.061 21.6613 111.379 21.064C111.696 20.4667 112.139 20.0093 112.709 19.692C113.287 19.3653 113.95 19.202 114.697 19.202C115.425 19.202 116.069 19.3607 116.629 19.678C117.189 19.9953 117.618 20.434 117.917 20.994C118.225 21.5447 118.379 22.17 118.379 22.87ZM117.063 22.604C117.063 22.1187 116.955 21.7033 116.741 21.358C116.526 21.0033 116.232 20.7373 115.859 20.56C115.495 20.3733 115.089 20.28 114.641 20.28C113.997 20.28 113.446 20.4853 112.989 20.896C112.541 21.3067 112.284 21.876 112.219 22.604H117.063ZM120.466 27.084C120.224 27.084 120.018 27 119.85 26.832C119.682 26.664 119.598 26.4587 119.598 26.216C119.598 25.9733 119.682 25.768 119.85 25.6C120.018 25.432 120.224 25.348 120.466 25.348C120.7 25.348 120.896 25.432 121.054 25.6C121.222 25.768 121.306 25.9733 121.306 26.216C121.306 26.4587 121.222 26.664 121.054 26.832C120.896 27 120.7 27.084 120.466 27.084ZM123.952 25.95H127.718V27H122.496V25.95L126.22 20.364H122.524V19.328H127.69V20.364L123.952 25.95ZM130.029 18.082C129.786 18.082 129.581 17.998 129.413 17.83C129.245 17.662 129.161 17.4567 129.161 17.214C129.161 16.9713 129.245 16.766 129.413 16.598C129.581 16.43 129.786 16.346 130.029 16.346C130.262 16.346 130.458 16.43 130.617 16.598C130.785 16.766 130.869 16.9713 130.869 17.214C130.869 17.4567 130.785 17.662 130.617 17.83C130.458 17.998 130.262 18.082 130.029 18.082ZM130.645 19.328V27H129.371V19.328H130.645ZM134.09 20.742C134.342 20.3033 134.716 19.9393 135.21 19.65C135.714 19.3513 136.298 19.202 136.96 19.202C137.642 19.202 138.258 19.3653 138.808 19.692C139.368 20.0187 139.807 20.4807 140.124 21.078C140.442 21.666 140.6 22.352 140.6 23.136C140.6 23.9107 140.442 24.6013 140.124 25.208C139.807 25.8147 139.368 26.286 138.808 26.622C138.258 26.958 137.642 27.126 136.96 27.126C136.307 27.126 135.728 26.9813 135.224 26.692C134.73 26.3933 134.352 26.0247 134.09 25.586V30.64H132.816V19.328H134.09V20.742ZM139.298 23.136C139.298 22.5573 139.182 22.0533 138.948 21.624C138.715 21.1947 138.398 20.868 137.996 20.644C137.604 20.42 137.17 20.308 136.694 20.308C136.228 20.308 135.794 20.4247 135.392 20.658C135 20.882 134.683 21.2133 134.44 21.652C134.207 22.0813 134.09 22.5807 134.09 23.15C134.09 23.7287 134.207 24.2373 134.44 24.676C134.683 25.1053 135 25.4367 135.392 25.67C135.794 25.894 136.228 26.006 136.694 26.006C137.17 26.006 137.604 25.894 137.996 25.67C138.398 25.4367 138.715 25.1053 138.948 24.676C139.182 24.2373 139.298 23.724 139.298 23.136Z" fill="black"/>
<path d="M46.846 59.83H42.59L41.806 62H40.462L43.99 52.298H45.46L48.974 62H47.63L46.846 59.83ZM46.482 58.794L44.718 53.866L42.954 58.794H46.482ZM54.2496 54.188C55.1829 54.188 55.9389 54.4727 56.5176 55.042C57.0963 55.602 57.3856 56.414 57.3856 57.478V62H56.1256V57.66C56.1256 56.8947 55.9343 56.3113 55.5516 55.91C55.1689 55.4993 54.6463 55.294 53.9836 55.294C53.3116 55.294 52.7749 55.504 52.3736 55.924C51.9816 56.344 51.7856 56.9553 51.7856 57.758V62H50.5116V54.328H51.7856V55.42C52.0376 55.028 52.3783 54.7247 52.8076 54.51C53.2463 54.2953 53.7269 54.188 54.2496 54.188ZM62.1827 62.126C61.5947 62.126 61.0673 62.028 60.6007 61.832C60.134 61.6267 59.7653 61.3467 59.4947 60.992C59.224 60.628 59.0747 60.2127 59.0467 59.746H60.3627C60.4 60.1287 60.5773 60.4413 60.8947 60.684C61.2213 60.9267 61.646 61.048 62.1687 61.048C62.654 61.048 63.0367 60.9407 63.3167 60.726C63.5967 60.5113 63.7367 60.2407 63.7367 59.914C63.7367 59.578 63.5873 59.3307 63.2887 59.172C62.99 59.004 62.528 58.8407 61.9027 58.682C61.3333 58.5327 60.8667 58.3833 60.5027 58.234C60.148 58.0753 59.84 57.8467 59.5787 57.548C59.3267 57.24 59.2007 56.8387 59.2007 56.344C59.2007 55.952 59.3173 55.5927 59.5507 55.266C59.784 54.9393 60.1153 54.6827 60.5447 54.496C60.974 54.3 61.464 54.202 62.0147 54.202C62.864 54.202 63.55 54.4167 64.0727 54.846C64.5953 55.2753 64.8753 55.8633 64.9127 56.61H63.6387C63.6107 56.2087 63.4473 55.8867 63.1487 55.644C62.8593 55.4013 62.4673 55.28 61.9727 55.28C61.5153 55.28 61.1513 55.378 60.8807 55.574C60.61 55.77 60.4747 56.0267 60.4747 56.344C60.4747 56.596 60.554 56.806 60.7127 56.974C60.8807 57.1327 61.086 57.2633 61.3287 57.366C61.5807 57.4593 61.926 57.5667 62.3647 57.688C62.9153 57.8373 63.3633 57.9867 63.7087 58.136C64.054 58.276 64.348 58.4907 64.5907 58.78C64.8427 59.0693 64.9733 59.4473 64.9827 59.914C64.9827 60.334 64.866 60.712 64.6327 61.048C64.3993 61.384 64.068 61.65 63.6387 61.846C63.2187 62.0327 62.7333 62.126 62.1827 62.126ZM77.0011 54.328L74.6071 62H73.2911L71.4431 55.91L69.5951 62H68.2791L65.8711 54.328H67.1731L68.9371 60.768L70.8411 54.328H72.1431L74.0051 60.782L75.7411 54.328H77.0011ZM85.2655 57.87C85.2655 58.1127 85.2515 58.3693 85.2235 58.64H79.0915C79.1382 59.396 79.3948 59.9887 79.8615 60.418C80.3375 60.838 80.9115 61.048 81.5835 61.048C82.1342 61.048 82.5915 60.922 82.9555 60.67C83.3288 60.4087 83.5902 60.0633 83.7395 59.634H85.1115C84.9062 60.3713 84.4955 60.9733 83.8795 61.44C83.2635 61.8973 82.4982 62.126 81.5835 62.126C80.8555 62.126 80.2022 61.9627 79.6235 61.636C79.0542 61.3093 78.6062 60.8473 78.2795 60.25C77.9528 59.6433 77.7895 58.9433 77.7895 58.15C77.7895 57.3567 77.9482 56.6613 78.2655 56.064C78.5828 55.4667 79.0262 55.0093 79.5955 54.692C80.1742 54.3653 80.8368 54.202 81.5835 54.202C82.3115 54.202 82.9555 54.3607 83.5155 54.678C84.0755 54.9953 84.5048 55.434 84.8035 55.994C85.1115 56.5447 85.2655 57.17 85.2655 57.87ZM83.9495 57.604C83.9495 57.1187 83.8422 56.7033 83.6275 56.358C83.4128 56.0033 83.1188 55.7373 82.7455 55.56C82.3815 55.3733 81.9755 55.28 81.5275 55.28C80.8835 55.28 80.3328 55.4853 79.8755 55.896C79.4275 56.3067 79.1708 56.876 79.1055 57.604H83.9495ZM88.2211 55.574C88.4451 55.1353 88.7625 54.7947 89.1731 54.552C89.5931 54.3093 90.1018 54.188 90.6991 54.188V55.504H90.3631C88.9351 55.504 88.2211 56.2787 88.2211 57.828V62H86.9471V54.328H88.2211V55.574ZM97.4898 56.33V57.408H91.9038V56.33H97.4898ZM103.003 55.378H101.393V62H100.119V55.378H99.1247V54.328H100.119V53.782C100.119 52.9233 100.338 52.298 100.777 51.906C101.225 51.5047 101.939 51.304 102.919 51.304V52.368C102.359 52.368 101.962 52.48 101.729 52.704C101.505 52.9187 101.393 53.278 101.393 53.782V54.328H103.003V55.378ZM105.146 53.082C104.903 53.082 104.698 52.998 104.53 52.83C104.362 52.662 104.278 52.4567 104.278 52.214C104.278 51.9713 104.362 51.766 104.53 51.598C104.698 51.43 104.903 51.346 105.146 51.346C105.379 51.346 105.575 51.43 105.734 51.598C105.902 51.766 105.986 51.9713 105.986 52.214C105.986 52.4567 105.902 52.662 105.734 52.83C105.575 52.998 105.379 53.082 105.146 53.082ZM105.762 54.328V62H104.488V54.328H105.762ZM109.207 51.64V62H107.933V51.64H109.207ZM118.379 57.87C118.379 58.1127 118.365 58.3693 118.337 58.64H112.205C112.251 59.396 112.508 59.9887 112.975 60.418C113.451 60.838 114.025 61.048 114.697 61.048C115.247 61.048 115.705 60.922 116.069 60.67C116.442 60.4087 116.703 60.0633 116.853 59.634H118.225C118.019 60.3713 117.609 60.9733 116.993 61.44C116.377 61.8973 115.611 62.126 114.697 62.126C113.969 62.126 113.315 61.9627 112.737 61.636C112.167 61.3093 111.719 60.8473 111.393 60.25C111.066 59.6433 110.903 58.9433 110.903 58.15C110.903 57.3567 111.061 56.6613 111.379 56.064C111.696 55.4667 112.139 55.0093 112.709 54.692C113.287 54.3653 113.95 54.202 114.697 54.202C115.425 54.202 116.069 54.3607 116.629 54.678C117.189 54.9953 117.618 55.434 117.917 55.994C118.225 56.5447 118.379 57.17 118.379 57.87ZM117.063 57.604C117.063 57.1187 116.955 56.7033 116.741 56.358C116.526 56.0033 116.232 55.7373 115.859 55.56C115.495 55.3733 115.089 55.28 114.641 55.28C113.997 55.28 113.446 55.4853 112.989 55.896C112.541 56.3067 112.284 56.876 112.219 57.604H117.063ZM120.466 62.084C120.224 62.084 120.018 62 119.85 61.832C119.682 61.664 119.598 61.4587 119.598 61.216C119.598 60.9733 119.682 60.768 119.85 60.6C120.018 60.432 120.224 60.348 120.466 60.348C120.7 60.348 120.896 60.432 121.054 60.6C121.222 60.768 121.306 60.9733 121.306 61.216C121.306 61.4587 121.222 61.664 121.054 61.832C120.896 62 120.7 62.084 120.466 62.084ZM123.952 60.95H127.718V62H122.496V60.95L126.22 55.364H122.524V54.328H127.69V55.364L123.952 60.95ZM130.029 53.082C129.786 53.082 129.581 52.998 129.413 52.83C129.245 52.662 129.161 52.4567 129.161 52.214C129.161 51.9713 129.245 51.766 129.413 51.598C129.581 51.43 129.786 51.346 130.029 51.346C130.262 51.346 130.458 51.43 130.617 51.598C130.785 51.766 130.869 51.9713 130.869 52.214C130.869 52.4567 130.785 52.662 130.617 52.83C130.458 52.998 130.262 53.082 130.029 53.082ZM130.645 54.328V62H129.371V54.328H130.645ZM134.09 55.742C134.342 55.3033 134.716 54.9393 135.21 54.65C135.714 54.3513 136.298 54.202 136.96 54.202C137.642 54.202 138.258 54.3653 138.808 54.692C139.368 55.0187 139.807 55.4807 140.124 56.078C140.442 56.666 140.6 57.352 140.6 58.136C140.6 58.9107 140.442 59.6013 140.124 60.208C139.807 60.8147 139.368 61.286 138.808 61.622C138.258 61.958 137.642 62.126 136.96 62.126C136.307 62.126 135.728 61.9813 135.224 61.692C134.73 61.3933 134.352 61.0247 134.09 60.586V65.64H132.816V54.328H134.09V55.742ZM139.298 58.136C139.298 57.5573 139.182 57.0533 138.948 56.624C138.715 56.1947 138.398 55.868 137.996 55.644C137.604 55.42 137.17 55.308 136.694 55.308C136.228 55.308 135.794 55.4247 135.392 55.658C135 55.882 134.683 56.2133 134.44 56.652C134.207 57.0813 134.09 57.5807 134.09 58.15C134.09 58.7287 134.207 59.2373 134.44 59.676C134.683 60.1053 135 60.4367 135.392 60.67C135.794 60.894 136.228 61.006 136.694 61.006C137.17 61.006 137.604 60.894 137.996 60.67C138.398 60.4367 138.715 60.1053 138.948 59.676C139.182 59.2373 139.298 58.724 139.298 58.136Z" fill="black"/>
<path d="M308.06 17.984H303.146V21.176C303.361 20.8773 303.678 20.6347 304.098 20.448C304.518 20.252 304.971 20.154 305.456 20.154C306.231 20.154 306.861 20.3173 307.346 20.644C307.832 20.9613 308.177 21.3767 308.382 21.89C308.597 22.394 308.704 22.9307 308.704 23.5C308.704 24.172 308.578 24.774 308.326 25.306C308.074 25.838 307.687 26.258 307.164 26.566C306.651 26.874 306.012 27.028 305.246 27.028C304.266 27.028 303.473 26.776 302.866 26.272C302.26 25.768 301.891 25.096 301.76 24.256H303.006C303.128 24.788 303.384 25.2033 303.776 25.502C304.168 25.8007 304.663 25.95 305.26 25.95C305.998 25.95 306.553 25.7307 306.926 25.292C307.3 24.844 307.486 24.256 307.486 23.528C307.486 22.8 307.3 22.24 306.926 21.848C306.553 21.4467 306.002 21.246 305.274 21.246C304.78 21.246 304.346 21.3673 303.972 21.61C303.608 21.8433 303.342 22.1653 303.174 22.576H301.97V16.864H308.06V17.984ZM310.089 24.746V23.78L315.003 16.976H316.529V23.64H317.929V24.746H316.529V27H315.269V24.746H310.089ZM315.325 18.306L311.559 23.64H315.325V18.306ZM323.696 27L320.686 23.612V27H319.412V16.64H320.686V22.73L323.64 19.328H325.418L321.806 23.15L325.432 27H323.696ZM327.891 20.756C328.152 20.2987 328.535 19.9253 329.039 19.636C329.543 19.3467 330.117 19.202 330.761 19.202C331.452 19.202 332.072 19.3653 332.623 19.692C333.174 20.0187 333.608 20.4807 333.925 21.078C334.242 21.666 334.401 22.352 334.401 23.136C334.401 23.9107 334.242 24.6013 333.925 25.208C333.608 25.8147 333.169 26.286 332.609 26.622C332.058 26.958 331.442 27.126 330.761 27.126C330.098 27.126 329.515 26.9813 329.011 26.692C328.516 26.4027 328.143 26.034 327.891 25.586V27H326.617V16.64H327.891V20.756ZM333.099 23.136C333.099 22.5573 332.982 22.0533 332.749 21.624C332.516 21.1947 332.198 20.868 331.797 20.644C331.405 20.42 330.971 20.308 330.495 20.308C330.028 20.308 329.594 20.4247 329.193 20.658C328.801 20.882 328.484 21.2133 328.241 21.652C328.008 22.0813 327.891 22.5807 327.891 23.15C327.891 23.7287 328.008 24.2373 328.241 24.676C328.484 25.1053 328.801 25.4367 329.193 25.67C329.594 25.894 330.028 26.006 330.495 26.006C330.971 26.006 331.405 25.894 331.797 25.67C332.198 25.4367 332.516 25.1053 332.749 24.676C332.982 24.2373 333.099 23.724 333.099 23.136Z" fill="black"/>
<path d="M308.06 52.984H303.146V56.176C303.361 55.8773 303.678 55.6347 304.098 55.448C304.518 55.252 304.971 55.154 305.456 55.154C306.231 55.154 306.861 55.3173 307.346 55.644C307.832 55.9613 308.177 56.3767 308.382 56.89C308.597 57.394 308.704 57.9307 308.704 58.5C308.704 59.172 308.578 59.774 308.326 60.306C308.074 60.838 307.687 61.258 307.164 61.566C306.651 61.874 306.012 62.028 305.246 62.028C304.266 62.028 303.473 61.776 302.866 61.272C302.26 60.768 301.891 60.096 301.76 59.256H303.006C303.128 59.788 303.384 60.2033 303.776 60.502C304.168 60.8007 304.663 60.95 305.26 60.95C305.998 60.95 306.553 60.7307 306.926 60.292C307.3 59.844 307.486 59.256 307.486 58.528C307.486 57.8 307.3 57.24 306.926 56.848C306.553 56.4467 306.002 56.246 305.274 56.246C304.78 56.246 304.346 56.3673 303.972 56.61C303.608 56.8433 303.342 57.1653 303.174 57.576H301.97V51.864H308.06V52.984ZM310.089 59.746V58.78L315.003 51.976H316.529V58.64H317.929V59.746H316.529V62H315.269V59.746H310.089ZM315.325 53.306L311.559 58.64H315.325V53.306ZM323.696 62L320.686 58.612V62H319.412V51.64H320.686V57.73L323.64 54.328H325.418L321.806 58.15L325.432 62H323.696ZM327.891 55.756C328.152 55.2987 328.535 54.9253 329.039 54.636C329.543 54.3467 330.117 54.202 330.761 54.202C331.452 54.202 332.072 54.3653 332.623 54.692C333.174 55.0187 333.608 55.4807 333.925 56.078C334.242 56.666 334.401 57.352 334.401 58.136C334.401 58.9107 334.242 59.6013 333.925 60.208C333.608 60.8147 333.169 61.286 332.609 61.622C332.058 61.958 331.442 62.126 330.761 62.126C330.098 62.126 329.515 61.9813 329.011 61.692C328.516 61.4027 328.143 61.034 327.891 60.586V62H326.617V51.64H327.891V55.756ZM333.099 58.136C333.099 57.5573 332.982 57.0533 332.749 56.624C332.516 56.1947 332.198 55.868 331.797 55.644C331.405 55.42 330.971 55.308 330.495 55.308C330.028 55.308 329.594 55.4247 329.193 55.658C328.801 55.882 328.484 56.2133 328.241 56.652C328.008 57.0813 327.891 57.5807 327.891 58.15C327.891 58.7287 328.008 59.2373 328.241 59.676C328.484 60.1053 328.801 60.4367 329.193 60.67C329.594 60.894 330.028 61.006 330.495 61.006C330.971 61.006 331.405 60.894 331.797 60.67C332.198 60.4367 332.516 60.1053 332.749 59.676C332.982 59.2373 333.099 58.724 333.099 58.136Z" fill="black"/>
<line opacity="0.1" x1="10.5229" y1="38.5" x2="361.408" y2="38.5" stroke="black" stroke-linecap="round"/>
<g clip-path="url(#clip0)">
<rect width="16.3668" height="16" transform="translate(9 12)" fill="white" fill-opacity="0.01"/>
<path fill-rule="evenodd" clip-rule="evenodd" d="M11.0458 12H23.3209C23.8635 12 24.3839 12.2107 24.7675 12.5858C25.1512 12.9609 25.3668 13.4696 25.3668 14V26C25.3668 26.5304 25.1512 27.0391 24.7675 27.4142C24.3839 27.7893 23.8635 28 23.3209 28H11.0458C10.5033 28 9.98288 27.7893 9.59921 27.4142C9.21554 27.0391 9 26.5304 9 26V14C9 13.4696 9.21554 12.9609 9.59921 12.5858C9.98288 12.2107 10.5033 12 11.0458 12V12ZM12.3047 20.1133H12.6341C13.3952 20.1133 13.4545 19.8987 13.4545 19.596C13.4545 19.2507 13.2717 19.082 12.8973 19.082H12.3047V20.1127V20.1133ZM16.5942 21.5687H17.047C17.553 21.5687 18.0706 21.422 18.0706 20.332C18.0706 19.232 17.5237 19.092 17.047 19.092H16.5935V21.5687H16.5942ZM12.0429 22.66H11.3063C11.2371 22.6596 11.1709 22.6325 11.1221 22.5845C11.0732 22.5366 11.0458 22.4717 11.0458 22.404V18.2553C11.0458 18.1153 11.1625 18 11.307 18H13.0078C14.0191 18 14.7263 18.656 14.7263 19.596C14.7263 20.5493 14.0341 21.1893 13.0044 21.1893H12.3047V22.404C12.3047 22.4718 12.2772 22.5368 12.2283 22.5848C12.1793 22.6328 12.1129 22.6598 12.0435 22.66H12.0429ZM17.1234 22.66H15.5958C15.5614 22.66 15.5274 22.6534 15.4956 22.6405C15.4638 22.6276 15.435 22.6088 15.4106 22.585C15.3863 22.5612 15.367 22.533 15.3539 22.502C15.3407 22.4709 15.3339 22.4376 15.3339 22.404V18.2553C15.3339 18.1153 15.4512 18 15.5951 18H17.1241C18.5609 18 19.3527 18.8247 19.3527 20.3227C19.3527 21.8293 18.5616 22.66 17.1241 22.66H17.1234ZM21.0623 22.66H20.3258C20.2914 22.66 20.2574 22.6534 20.2256 22.6405C20.1938 22.6276 20.1649 22.6088 20.1406 22.585C20.1163 22.5612 20.097 22.533 20.0839 22.502C20.0707 22.4709 20.0639 22.4376 20.0639 22.404V18.2553C20.0639 18.1153 20.1812 18 20.3251 18H23.059C23.2023 18 23.3202 18.1147 23.3202 18.2553V18.842C23.3202 18.9097 23.2927 18.9747 23.2437 19.0225C23.1948 19.0704 23.1283 19.0973 23.059 19.0973H21.3235V19.8573H22.8865C23.0311 19.8573 23.1477 19.972 23.1477 20.1127V20.6907C23.1477 20.8307 23.0311 20.946 22.8865 20.946H21.3235V22.404C21.3235 22.4718 21.296 22.5368 21.247 22.5848C21.1981 22.6328 21.1316 22.6598 21.0623 22.66Z" fill="#FF5630"/>
</g>
<g clip-path="url(#clip1)">
<rect width="16.3668" height="16" transform="translate(9 47)" fill="white" fill-opacity="0.01"/>
<path fill-rule="evenodd" clip-rule="evenodd" d="M11.0458 47H23.3209C23.8635 47 24.3839 47.2107 24.7675 47.5858C25.1512 47.9609 25.3668 48.4696 25.3668 49V61C25.3668 61.5304 25.1512 62.0391 24.7675 62.4142C24.3839 62.7893 23.8635 63 23.3209 63H11.0458C10.5033 63 9.98288 62.7893 9.59921 62.4142C9.21554 62.0391 9 61.5304 9 61V49C9 48.4696 9.21554 47.9609 9.59921 47.5858C9.98288 47.2107 10.5033 47 11.0458 47V47ZM12.3047 55.1133H12.6341C13.3952 55.1133 13.4545 54.8987 13.4545 54.596C13.4545 54.2507 13.2717 54.082 12.8973 54.082H12.3047V55.1127V55.1133ZM16.5942 56.5687H17.047C17.553 56.5687 18.0706 56.422 18.0706 55.332C18.0706 54.232 17.5237 54.092 17.047 54.092H16.5935V56.5687H16.5942ZM12.0429 57.66H11.3063C11.2371 57.6596 11.1709 57.6325 11.1221 57.5845C11.0732 57.5366 11.0458 57.4717 11.0458 57.404V53.2553C11.0458 53.1153 11.1625 53 11.307 53H13.0078C14.0191 53 14.7263 53.656 14.7263 54.596C14.7263 55.5493 14.0341 56.1893 13.0044 56.1893H12.3047V57.404C12.3047 57.4718 12.2772 57.5368 12.2283 57.5848C12.1793 57.6328 12.1129 57.6598 12.0435 57.66H12.0429ZM17.1234 57.66H15.5958C15.5614 57.66 15.5274 57.6534 15.4956 57.6405C15.4638 57.6276 15.435 57.6088 15.4106 57.585C15.3863 57.5612 15.367 57.533 15.3539 57.502C15.3407 57.4709 15.3339 57.4376 15.3339 57.404V53.2553C15.3339 53.1153 15.4512 53 15.5951 53H17.1241C18.5609 53 19.3527 53.8247 19.3527 55.3227C19.3527 56.8293 18.5616 57.66 17.1241 57.66H17.1234ZM21.0623 57.66H20.3258C20.2914 57.66 20.2574 57.6534 20.2256 57.6405C20.1938 57.6276 20.1649 57.6088 20.1406 57.585C20.1163 57.5612 20.097 57.533 20.0839 57.502C20.0707 57.4709 20.0639 57.4376 20.0639 57.404V53.2553C20.0639 53.1153 20.1812 53 20.3251 53H23.059C23.2023 53 23.3202 53.1147 23.3202 53.2553V53.842C23.3202 53.9097 23.2927 53.9747 23.2437 54.0225C23.1948 54.0704 23.1283 54.0973 23.059 54.0973H21.3235V54.8573H22.8865C23.0311 54.8573 23.1477 54.972 23.1477 55.1127V55.6907C23.1477 55.8307 23.0311 55.946 22.8865 55.946H21.3235V57.404C21.3235 57.4718 21.296 57.5368 21.247 57.5848C21.1981 57.6328 21.1316 57.6598 21.0623 57.66Z" fill="#FF5630"/>
</g>
<rect width="20.4585" height="20" transform="translate(345.542 10)" fill="white" fill-opacity="0.01"/>
<path d="M355.771 18.8217L351.259 14.4109C351.098 14.2591 350.883 14.1751 350.659 14.177C350.436 14.1789 350.222 14.2665 350.064 14.4211C349.906 14.5756 349.816 14.7846 349.814 15.0031C349.812 15.2216 349.898 15.4321 350.053 15.5892L354.565 20.0001L350.053 24.4109C349.898 24.5681 349.812 24.7786 349.814 24.9971C349.816 25.2156 349.906 25.4246 350.064 25.5791C350.222 25.7336 350.436 25.8212 350.659 25.8231C350.883 25.825 351.098 25.741 351.259 25.5892L355.771 21.1784L360.283 25.5892C360.443 25.741 360.659 25.825 360.882 25.8231C361.106 25.8212 361.32 25.7336 361.478 25.5791C361.636 25.4246 361.725 25.2156 361.727 24.9971C361.729 24.7786 361.643 24.5681 361.488 24.4109L356.976 20.0001L361.488 15.5892C361.569 15.5124 361.634 15.4204 361.679 15.3187C361.724 15.2171 361.747 15.1077 361.748 14.9971C361.749 14.8864 361.728 14.7767 361.685 14.6743C361.642 14.5719 361.579 14.4788 361.499 14.4006C361.419 14.3223 361.323 14.2605 361.219 14.2185C361.114 14.1766 361.002 14.1556 360.888 14.1565C360.775 14.1575 360.663 14.1805 360.559 14.2241C360.455 14.2678 360.361 14.3313 360.283 14.4109L355.771 18.8217Z" fill="#42526E"/>
<rect width="20.4585" height="20" transform="translate(345.542 45)" fill="white" fill-opacity="0.01"/>
<path d="M355.771 53.8217L351.259 49.4109C351.098 49.2591 350.883 49.1751 350.659 49.177C350.436 49.1789 350.222 49.2665 350.064 49.4211C349.906 49.5756 349.816 49.7846 349.814 50.0031C349.812 50.2216 349.898 50.4321 350.053 50.5892L354.565 55.0001L350.053 59.4109C349.898 59.5681 349.812 59.7786 349.814 59.9971C349.816 60.2156 349.906 60.4246 350.064 60.5791C350.222 60.7336 350.436 60.8212 350.659 60.8231C350.883 60.825 351.098 60.741 351.259 60.5892L355.771 56.1784L360.283 60.5892C360.443 60.741 360.659 60.825 360.882 60.8231C361.106 60.8212 361.32 60.7336 361.478 60.5791C361.636 60.4246 361.725 60.2156 361.727 59.9971C361.729 59.7786 361.643 59.5681 361.488 59.4109L356.976 55.0001L361.488 50.5892C361.569 50.5124 361.634 50.4204 361.679 50.3187C361.724 50.2171 361.747 50.1077 361.748 49.9971C361.749 49.8864 361.728 49.7767 361.685 49.6743C361.642 49.5719 361.579 49.4788 361.499 49.4006C361.419 49.3223 361.323 49.2605 361.219 49.2185C361.114 49.1766 361.002 49.1556 360.888 49.1565C360.775 49.1575 360.663 49.1805 360.559 49.2241C360.455 49.2678 360.361 49.3313 360.283 49.4109L355.771 53.8217Z" fill="#42526E"/>
<defs>
<clipPath id="clip0">
<rect width="16.3668" height="16" fill="white" transform="translate(9 12)"/>
</clipPath>
<clipPath id="clip1">
<rect width="16.3668" height="16" fill="white" transform="translate(9 47)"/>
</clipPath>
</defs>
</svg>
