<svg width="375" height="377" viewBox="0 0 375 377" fill="none" xmlns="http://www.w3.org/2000/svg">
<path d="M281.344 179.012C288.72 178.932 290.957 174.059 294.552 169.865" stroke="#42227E" stroke-width="28.0003"/>
<path d="M117.063 183.397C114.073 184.479 110.664 186.66 109.066 191.054C105.894 199.777 95.5851 215.24 78.5361 208.103" stroke="#341A64" stroke-width="15.0771"/>
<path d="M170.962 267.211C171.136 269.107 171.8 270.951 173.226 272.555C179.57 279.692 175.209 281.774 174.019 282.666" stroke="#E1AE35" stroke-width="14.0002"/>
<path d="M234.379 110.335C237.729 106.225 242.735 102.858 250.145 102.858C269.177 102.858 269.97 89.3777 272.349 84.6199" stroke="#E1AE35" stroke-width="14.0002"/>
<path d="M132.666 103.072C130.364 101.662 127.528 100.865 124.062 101.272C110.581 102.858 107.409 87.7918 112.167 83.0339" stroke="#B7A6D6" stroke-width="14.0002"/>
<path d="M290.646 282.093C291.705 282.161 292.975 282.179 294.552 282.269" stroke="#B7A6D6" stroke-width="6.46161"/>
<path d="M173.037 69.2373C183.738 64.4093 177.984 61.2271 177.984 61.2271" stroke="#6E559E" stroke-width="6.46161"/>
<path d="M65.4905 258.221C65.2419 258.668 65.0064 259.15 64.7867 259.67C60.4254 269.978 54.2798 266.41 54.0815 266.014" stroke="#F25B9D" stroke-width="7.53854"/>
<path d="M62.4268 155.227C61.2259 154.624 60.1355 153.548 60.2271 151.627C60.4254 147.463 56.064 146.472 54.6763 147.265" stroke="#F25B9D" stroke-width="7.53854"/>
<path d="M307.604 229.231C307.924 229.151 308.264 229.054 308.627 228.942" stroke="#E45392" stroke-width="7.53854"/>
<path d="M151.487 199.143L173.577 220.564C173.577 220.564 185.399 207.1 197.333 193.508" stroke="#D23479" stroke-width="10" stroke-linecap="round" stroke-linejoin="round"/>
</svg>
