<svg width="20" height="20" viewBox="0 0 20 20" fill="none" xmlns="http://www.w3.org/2000/svg">
<path d="M17.5 18.3333H2.5C2.15833 18.3333 1.875 18.05 1.875 17.7083C1.875 17.3667 2.15833 17.0833 2.5 17.0833H17.5C17.8417 17.0833 18.125 17.3667 18.125 17.7083C18.125 18.05 17.8417 18.3333 17.5 18.3333Z" fill="#292D32"/>
<path d="M15.8505 2.89999C14.2338 1.28332 12.6505 1.24166 10.9921 2.89999L9.9838 3.90832C9.90047 3.99166 9.86714 4.12499 9.90047 4.24166C10.5338 6.44999 12.3005 8.21666 14.5088 8.84999C14.5421 8.85832 14.5755 8.86666 14.6088 8.86666C14.7005 8.86666 14.7838 8.83332 14.8505 8.76666L15.8505 7.75832C16.6755 6.94166 17.0755 6.14999 17.0755 5.34999C17.0838 4.52499 16.6838 3.72499 15.8505 2.89999Z" fill="#292D32"/>
<path d="M13.0079 9.60832C12.7663 9.49166 12.5329 9.37499 12.3079 9.24166C12.1246 9.13332 11.9496 9.01666 11.7746 8.89166C11.6329 8.79999 11.4663 8.66666 11.3079 8.53332C11.2913 8.52499 11.2329 8.47499 11.1663 8.40832C10.8913 8.17499 10.5829 7.87499 10.3079 7.54166C10.2829 7.52499 10.2413 7.46666 10.1829 7.39166C10.0996 7.29166 9.95795 7.12499 9.83295 6.93332C9.73295 6.80832 9.61628 6.62499 9.50795 6.44166C9.37461 6.21666 9.25795 5.99166 9.14128 5.75832V5.75832C8.98832 5.43054 8.5581 5.33317 8.30233 5.58894L3.61628 10.275C3.50795 10.3833 3.40795 10.5917 3.38295 10.7333L2.93295 13.925C2.84961 14.4917 3.00795 15.025 3.35795 15.3833C3.65795 15.675 4.07461 15.8333 4.52461 15.8333C4.62461 15.8333 4.72461 15.825 4.82461 15.8083L8.02461 15.3583C8.17461 15.3333 8.38295 15.2333 8.48295 15.125L13.1767 10.4312C13.4274 10.1805 13.3332 9.74927 13.0079 9.60832V9.60832Z" fill="#292D32"/>
</svg>
