<svg width="20" height="20" viewBox="0 0 20 20" fill="none" xmlns="http://www.w3.org/2000/svg">
<path fill-rule="evenodd" clip-rule="evenodd" d="M11.45 2.8802H14.52C18.21 2.8802 20.01 4.8502 20 8.8902V13.7602C20 17.6202 17.62 20.0002 13.75 20.0002H6.24C2.39 20.0002 0 17.6202 0 13.7502V6.2402C0 2.1002 1.84 0.000201178 5.47 0.000201178H7.05C7.981 -0.00979882 8.85 0.420201 9.42 1.1502L10.3 2.3202C10.58 2.6702 11 2.8802 11.45 2.8802ZM5.37 13.2902H14.63C15.04 13.2902 15.37 12.9502 15.37 12.5402C15.37 12.1202 15.04 11.7902 14.63 11.7902H5.37C4.95 11.7902 4.62 12.1202 4.62 12.5402C4.62 12.9502 4.95 13.2902 5.37 13.2902Z" fill="#303030"/>
</svg>
