<svg width="22" height="22" viewBox="0 0 22 22" fill="none" xmlns="http://www.w3.org/2000/svg">
<path fill-rule="evenodd" clip-rule="evenodd" d="M16.2777 12.8892C16.9524 12.8892 17.5188 13.446 17.4156 14.1123C16.8103 18.0323 13.4545 20.9429 9.40717 20.9429C4.92928 20.9429 1.2998 17.3134 1.2998 12.8365C1.2998 9.14812 4.10191 5.71233 7.25665 4.93549C7.93454 4.76812 8.62928 5.24496 8.62928 5.94286C8.62928 10.6713 8.78823 11.8944 9.68612 12.5597C10.584 13.225 11.6398 12.8892 16.2777 12.8892Z" stroke="#C7C9D9" stroke-width="1.5" stroke-linecap="round" stroke-linejoin="round"/>
<path fill-rule="evenodd" clip-rule="evenodd" d="M20.6921 8.9516C20.7458 5.9137 17.0142 1.01686 12.4669 1.10107C12.1132 1.10739 11.83 1.40212 11.8142 1.75475C11.6995 4.25265 11.8542 7.48949 11.9406 8.95686C11.9669 9.4137 12.3258 9.77265 12.7816 9.79897C14.29 9.88528 17.6448 10.0032 20.1069 9.63054C20.4416 9.58002 20.6869 9.28949 20.6921 8.9516Z" stroke="#C7C9D9" stroke-width="1.5" stroke-linecap="round" stroke-linejoin="round"/>
</svg>
