<svg width="24" height="24" viewBox="0 0 24 24" fill="none" xmlns="http://www.w3.org/2000/svg">
<path fill-rule="evenodd" clip-rule="evenodd" d="M15.85 2.50069C16.481 2.50069 17.111 2.58969 17.71 2.79069C21.401 3.99069 22.731 8.04069 21.62 11.5807C20.99 13.3897 19.96 15.0407 18.611 16.3897C16.68 18.2597 14.561 19.9197 12.28 21.3497L12.03 21.5007L11.77 21.3397C9.48102 19.9197 7.35002 18.2597 5.40102 16.3797C4.06102 15.0307 3.03002 13.3897 2.39002 11.5807C1.26002 8.04069 2.59002 3.99069 6.32102 2.76969C6.61102 2.66969 6.91002 2.59969 7.21002 2.56069H7.33002C7.61102 2.51969 7.89002 2.50069 8.17002 2.50069H8.28002C8.91002 2.51969 9.52002 2.62969 10.111 2.83069H10.17C10.21 2.84969 10.24 2.87069 10.26 2.88969C10.481 2.96069 10.69 3.04069 10.89 3.15069L11.27 3.32069C11.3618 3.36967 11.4649 3.44449 11.554 3.50916C11.6104 3.55014 11.6612 3.58703 11.7 3.61069C11.7163 3.62032 11.7329 3.63 11.7496 3.63976C11.8354 3.68981 11.9247 3.74195 12 3.79969C13.111 2.95069 14.46 2.49069 15.85 2.50069ZM18.51 9.70069C18.92 9.68969 19.27 9.36069 19.3 8.93969V8.82069C19.33 7.41969 18.481 6.15069 17.19 5.66069C16.78 5.51969 16.33 5.74069 16.18 6.16069C16.04 6.58069 16.26 7.04069 16.68 7.18969C17.321 7.42969 17.75 8.06069 17.75 8.75969V8.79069C17.731 9.01969 17.8 9.24069 17.94 9.41069C18.08 9.58069 18.29 9.67969 18.51 9.70069Z" fill="#303030"/>
</svg>
