<svg width="40" height="40" viewBox="0 0 40 40" fill="none" xmlns="http://www.w3.org/2000/svg">
<path d="M15.7222 21.8333L18.7778 25.5L23.0556 20L28.5556 27.3333H11.4444L15.7222 21.8333ZM31 28.5556V11.4444C31 10.0878 29.9 9 28.5556 9H11.4444C10.7961 9 10.1744 9.25754 9.71596 9.71596C9.25754 10.1744 9 10.7961 9 11.4444V28.5556C9 29.2039 9.25754 29.8256 9.71596 30.284C10.1744 30.7425 10.7961 31 11.4444 31H28.5556C29.2039 31 29.8256 30.7425 30.284 30.284C30.7425 29.8256 31 29.2039 31 28.5556Z" fill="#686B6F"/>
</svg>
