<svg width="94" height="64" viewBox="0 0 94 64" fill="none" xmlns="http://www.w3.org/2000/svg">
<rect width="94" height="64" fill="white"/>
<path fill-rule="evenodd" clip-rule="evenodd" d="M46 37.8476C51.6392 37.8476 54.2481 37.1242 54.5 34.2205C54.5 31.3188 52.6812 31.5054 52.6812 27.9451C52.6812 25.1641 50.0452 22 46 22C41.9548 22 39.3188 25.1641 39.3188 27.9451C39.3188 31.5054 37.5 31.3188 37.5 34.2205C37.753 37.1352 40.3618 37.8476 46 37.8476Z" stroke="#C7C9D9" stroke-width="1.5" stroke-linecap="round" stroke-linejoin="round"/>
<path d="M48.3889 40.8572C47.0247 42.3719 44.8967 42.3899 43.5195 40.8572" stroke="#C7C9D9" stroke-width="1.5" stroke-linecap="round" stroke-linejoin="round"/>
<circle cx="55.5" cy="23.5" r="7.5" fill="#41C36C" stroke="white" stroke-width="2"/>
<path d="M53.8443 25.45C54.4843 24.8967 54.9876 24.4433 55.3543 24.09C55.7276 23.73 56.0376 23.3567 56.2843 22.97C56.5309 22.5833 56.6543 22.1967 56.6543 21.81C56.6543 21.41 56.5576 21.0967 56.3643 20.87C56.1776 20.6433 55.8809 20.53 55.4743 20.53C55.0809 20.53 54.7743 20.6567 54.5543 20.91C54.3409 21.1567 54.2276 21.49 54.2143 21.91H53.1143C53.1343 21.15 53.3609 20.57 53.7943 20.17C54.2343 19.7633 54.7909 19.56 55.4643 19.56C56.1909 19.56 56.7576 19.76 57.1643 20.16C57.5776 20.56 57.7843 21.0933 57.7843 21.76C57.7843 22.24 57.6609 22.7033 57.4143 23.15C57.1743 23.59 56.8843 23.9867 56.5443 24.34C56.2109 24.6867 55.7843 25.09 55.2643 25.55L54.8143 25.95H57.9843V26.9H53.1243V26.07L53.8443 25.45Z" fill="white"/>
</svg>
