<svg width="15" height="16" viewBox="0 0 15 16" fill="none" xmlns="http://www.w3.org/2000/svg">
<g clip-path="url(#clip0)">
<rect width="14.1632" height="16" fill="white" fill-opacity="0.01"/>
<path fill-rule="evenodd" clip-rule="evenodd" d="M1.7704 0H12.3928C12.8623 0 13.3126 0.210714 13.6446 0.585786C13.9766 0.960859 14.1632 1.46957 14.1632 2V14C14.1632 14.5304 13.9766 15.0391 13.6446 15.4142C13.3126 15.7893 12.8623 16 12.3928 16H1.7704C1.30086 16 0.850551 15.7893 0.518537 15.4142C0.186523 15.0391 0 14.5304 0 14L0 2C0 1.46957 0.186523 0.960859 0.518537 0.585786C0.850551 0.210714 1.30086 0 1.7704 0V0ZM2.85978 8.11333H3.14481C3.8034 8.11333 3.85474 7.89867 3.85474 7.596C3.85474 7.25067 3.69659 7.082 3.3726 7.082H2.85978V8.11267V8.11333ZM6.57171 9.56867H6.96356C7.40143 9.56867 7.84934 9.422 7.84934 8.332C7.84934 7.232 7.37606 7.092 6.96356 7.092H6.57112V9.56867H6.57171ZM2.63317 10.66H1.99583C1.93593 10.6596 1.87859 10.6325 1.83635 10.5845C1.79411 10.5366 1.7704 10.4717 1.7704 10.404V6.25533C1.7704 6.11533 1.87131 6 1.99642 6H3.46821C4.34337 6 4.95534 6.656 4.95534 7.596C4.95534 8.54933 4.35635 9.18933 3.46525 9.18933H2.85978V10.404C2.85978 10.4718 2.83599 10.5368 2.79362 10.5848C2.75125 10.6328 2.69376 10.6598 2.63376 10.66H2.63317ZM7.02965 10.66H5.70776C5.678 10.66 5.64853 10.6534 5.62104 10.6405C5.59354 10.6276 5.56856 10.6088 5.54752 10.585C5.52648 10.5612 5.50978 10.533 5.49839 10.502C5.48701 10.4709 5.48115 10.4376 5.48115 10.404V6.25533C5.48115 6.11533 5.58265 6 5.70717 6H7.03024C8.27365 6 8.95879 6.82467 8.95879 8.32267C8.95879 9.82933 8.27424 10.66 7.03024 10.66H7.02965ZM10.4383 10.66H9.80091C9.77115 10.66 9.74168 10.6534 9.71419 10.6405C9.6867 10.6276 9.66172 10.6088 9.64067 10.585C9.61963 10.5612 9.60294 10.533 9.59155 10.502C9.58016 10.4709 9.5743 10.4376 9.5743 10.404V6.25533C9.5743 6.11533 9.6758 6 9.80032 6H12.1662C12.2901 6 12.3922 6.11467 12.3922 6.25533V6.842C12.3922 6.90972 12.3684 6.97466 12.326 7.02255C12.2836 7.07043 12.2261 7.09733 12.1662 7.09733H10.6643V7.85733H12.0169C12.142 7.85733 12.2429 7.972 12.2429 8.11267V8.69067C12.2429 8.83067 12.142 8.946 12.0169 8.946H10.6643V10.404C10.6643 10.4718 10.6405 10.5368 10.5981 10.5848C10.5557 10.6328 10.4983 10.6598 10.4383 10.66Z" fill="#FF5630"/>
</g>
<defs>
<clipPath id="clip0">
<rect width="14.1632" height="16" fill="white"/>
</clipPath>
</defs>
</svg>
