<svg width="24" height="24" viewBox="0 0 24 24" fill="none" xmlns="http://www.w3.org/2000/svg">
<path d="M12.0004 21.5998C16.7721 21.5998 20.6404 17.6241 20.6404 12.7198C20.6404 7.81555 16.7721 3.83984 12.0004 3.83984C7.22861 3.83984 3.36035 7.81555 3.36035 12.7198C3.36035 17.6241 7.22861 21.5998 12.0004 21.5998Z" fill="#D4D4DD"/>
<path d="M12 12.9602V6.24023" stroke="#9393AA" stroke-width="2" stroke-miterlimit="10" stroke-linecap="round"/>
<path d="M12.0002 12.96H8.16016" stroke="#9393AA" stroke-width="2" stroke-miterlimit="10" stroke-linecap="round"/>
<path d="M5.76035 19.2002L3.36035 21.6002" stroke="#9393AA" stroke-width="2" stroke-miterlimit="10" stroke-linecap="round"/>
<path d="M18.2402 19.2002L20.6402 21.6002" stroke="#9393AA" stroke-width="2" stroke-miterlimit="10" stroke-linecap="round"/>
<path d="M21.1369 6.75998C21.4305 6.24457 21.6003 5.65037 21.6003 5.01474C21.6003 3.06236 20.0179 1.47998 18.0656 1.47998C17.4299 1.47998 16.8357 1.64975 16.3203 1.9434L21.1369 6.75998Z" stroke="#9393AA" stroke-width="1.5" stroke-miterlimit="10" stroke-linecap="round"/>
<path d="M2.86381 6.75998C2.57016 6.24457 2.40039 5.65037 2.40039 5.01474C2.40039 3.06236 3.98277 1.47998 5.93515 1.47998C6.57078 1.47998 7.16498 1.64975 7.68039 1.9434L2.86381 6.75998Z" stroke="#9393AA" stroke-width="1.5" stroke-miterlimit="10" stroke-linecap="round"/>
</svg>
