<svg width="19" height="19" viewBox="0 0 19 19" fill="none" xmlns="http://www.w3.org/2000/svg">
<path d="M6.47697 8.17274H1.88765C1.42298 8.17231 0.977463 7.98757 0.648842 7.65905C0.320221 7.33053 0.135341 6.88507 0.134766 6.4204V1.88809C0.135341 1.42342 0.320221 0.977954 0.648842 0.649435C0.977463 0.320916 1.42298 0.136173 1.88765 0.135742H6.47697C6.94154 0.136317 7.38692 0.321123 7.71543 0.649626C8.04393 0.97813 8.22873 1.42351 8.22931 1.88809V6.4204C8.22873 6.88497 8.04393 7.33036 7.71543 7.65886C7.38692 7.98736 6.94154 8.17217 6.47697 8.17274ZM1.88765 1.49289C1.78283 1.49303 1.68234 1.53469 1.60817 1.60876C1.534 1.68283 1.4922 1.78327 1.49191 1.88809V6.4204C1.4922 6.52522 1.534 6.62566 1.60817 6.69972C1.68234 6.77379 1.78283 6.81546 1.88765 6.8156H6.47697C6.58174 6.81546 6.68217 6.77377 6.75626 6.69969C6.83034 6.62561 6.87202 6.52517 6.87217 6.4204V1.88809C6.87202 1.78332 6.83034 1.68288 6.75626 1.6088C6.68217 1.53471 6.58174 1.49303 6.47697 1.49289H1.88765Z" fill="#FF6924"/>
<path d="M6.5004 18.8641H1.91109C1.44637 18.8636 1.00085 18.6787 0.672246 18.3501C0.343641 18.0215 0.158778 17.576 0.158203 17.1113V12.5795C0.158778 12.1148 0.343658 11.6694 0.672279 11.3408C1.0009 11.0123 1.44642 10.8276 1.91109 10.8271H6.5004C6.96479 10.828 7.40989 11.0129 7.73816 11.3414C8.06643 11.6699 8.25109 12.1151 8.25166 12.5795V17.1113C8.25123 17.5757 8.06664 18.0211 7.73835 18.3497C7.41007 18.6783 6.96488 18.8633 6.5004 18.8641ZM1.91109 12.1843C1.80627 12.1844 1.70578 12.2261 1.63161 12.3002C1.55744 12.3742 1.51563 12.4747 1.51535 12.5795V17.1113C1.51549 17.2162 1.55723 17.3168 1.63142 17.3909C1.7056 17.4651 1.80618 17.5069 1.91109 17.507H6.5004C6.60522 17.5067 6.70566 17.4649 6.77973 17.3907C6.85379 17.3166 6.89546 17.2161 6.8956 17.1113V12.5795C6.89546 12.4747 6.85378 12.3743 6.77969 12.3002C6.70561 12.2261 6.60517 12.1844 6.5004 12.1843H1.91109Z" fill="#FF6924"/>
<path d="M17.1117 18.8641H12.5224C12.0577 18.8636 11.6122 18.6787 11.2836 18.3501C10.955 18.0215 10.7701 17.576 10.7695 17.1113V12.5795C10.7701 12.1148 10.955 11.6694 11.2836 11.3408C11.6122 11.0123 12.0577 10.8276 12.5224 10.8271H17.1117C17.5763 10.8277 18.0217 11.0125 18.3502 11.341C18.6787 11.6695 18.8635 12.1149 18.8641 12.5795V17.1113C18.8636 17.5759 18.6789 18.0215 18.3504 18.3501C18.0219 18.6787 17.5764 18.8636 17.1117 18.8641ZM12.5224 12.187C12.4176 12.1871 12.3171 12.2288 12.2429 12.3029C12.1688 12.377 12.127 12.4774 12.1267 12.5822V17.114C12.1268 17.2189 12.1686 17.3195 12.2427 17.3937C12.3169 17.4678 12.4175 17.5096 12.5224 17.5097H17.1117C17.2165 17.5094 17.317 17.4676 17.3911 17.3935C17.4651 17.3193 17.5068 17.2188 17.5069 17.114V12.5795C17.5068 12.4747 17.4651 12.3743 17.391 12.3002C17.3169 12.2261 17.2165 12.1844 17.1117 12.1843L12.5224 12.187Z" fill="#FF6924"/>
<path d="M14.8193 8.17285C14.0261 8.16695 13.2524 7.92635 12.5957 7.48137C11.939 7.03639 11.4288 6.40696 11.1293 5.67242C10.8298 4.93789 10.7545 4.13113 10.9129 3.35386C11.0713 2.57659 11.4562 1.86359 12.0192 1.30477C12.5821 0.745946 13.298 0.366304 14.0764 0.213706C14.8548 0.0611085 15.661 0.142386 16.3933 0.447291C17.1256 0.752197 17.7512 1.26708 18.1913 1.92704C18.6314 2.58699 18.8663 3.36247 18.8663 4.15571C18.861 5.22466 18.432 6.24787 17.6733 7.00093C16.9146 7.754 15.8883 8.17545 14.8193 8.17285ZM14.8193 1.49571C14.2945 1.5016 13.7832 1.6626 13.3497 1.95844C12.9162 2.25428 12.5799 2.67175 12.3832 3.15829C12.1864 3.64483 12.138 4.1787 12.244 4.69271C12.35 5.20671 12.6056 5.67788 12.9788 6.04691C13.352 6.41594 13.826 6.66633 14.3411 6.76657C14.8563 6.86681 15.3896 6.81242 15.8739 6.61024C16.3582 6.40806 16.7719 6.06714 17.0629 5.63037C17.3539 5.19361 17.5091 4.68053 17.5092 4.15571C17.5049 3.44613 17.2192 2.76725 16.7149 2.26805C16.2106 1.76885 15.5289 1.4901 14.8193 1.49299V1.49571Z" fill="#FF6924"/>
</svg>
