<svg width="24" height="24" viewBox="0 0 24 24" fill="none" xmlns="http://www.w3.org/2000/svg">
<path fill-rule="evenodd" clip-rule="evenodd" d="M21.9415 11.9708C21.9415 17.4775 17.4775 21.9415 11.9708 21.9415C6.46406 21.9415 2 17.4775 2 11.9708C2 6.46406 6.46406 2 11.9708 2C17.4775 2 21.9415 6.46406 21.9415 11.9708ZM10.6453 12.7096L10.6364 17.813L12.8622 17.8133L12.8711 12.7096H14.6337C14.7922 12.7096 14.9258 12.5911 14.9443 12.4336L15.1393 10.7884C15.1615 10.6025 15.0162 10.4388 14.8287 10.4388H12.8622V9.06267C12.8622 8.4385 13.0356 8.0133 13.9305 8.0133L14.7593 8.01282C14.9319 8.01282 15.0719 7.87276 15.0719 7.69995V6.31287C15.0719 6.14006 14.9317 6 14.7591 6H13.4087C11.7632 6 10.6366 7.00443 10.6366 8.84907V10.4386H9.31287C9.13972 10.4386 8.99932 10.5795 9 10.7527L9.00648 12.3979C9.00707 12.5702 9.14693 12.7096 9.31925 12.7096H10.6453Z" fill="white"/>
</svg>
