<svg width="28" height="32" viewBox="0 0 28 32" fill="none" xmlns="http://www.w3.org/2000/svg">
<path fill-rule="evenodd" clip-rule="evenodd" d="M26.5129 20.4391C26.3436 24.5879 26.4041 28.5976 27.8339 30.1712C27.9691 30.3201 28.0216 30.5256 27.974 30.7204C27.9266 30.9154 27.7854 31.0743 27.5966 31.1452C26.4649 31.5702 24.9005 31.9666 23.0026 31.9666C21.8632 31.9666 20.6037 31.8238 19.2451 31.4587C17.4756 30.9831 16.2276 30.3157 15.8016 30.0692C15.2221 30.1641 14.6277 30.2143 14.0217 30.2143C13.4154 30.2143 12.8209 30.1641 12.2413 30.0691C11.8154 30.3155 10.5672 30.9831 8.79756 31.4587C7.7791 31.7324 6.4818 31.9659 5.02053 31.9659C3.61389 31.9659 2.05535 31.7497 0.446079 31.1454C0.257403 31.0745 0.116106 30.9155 0.0686508 30.7206C0.0211958 30.5257 0.0736863 30.32 0.20888 30.1713C1.63863 28.5977 1.69914 24.5877 1.52992 20.4386C0.90743 19.8572 0.517566 19.0325 0.517566 18.1186C0.517566 17.3161 0.818318 16.5826 1.31293 16.022C1.10496 11.7908 0.994711 8.96126 2.34596 6.34689C2.42164 6.20047 2.50229 6.05404 2.58568 5.91163C3.55683 4.25279 5.36187 3.1795 7.34613 3.06219C8.88285 1.20248 11.1113 0.0940788 13.505 0.00930159C16.2301 -0.0875325 18.9139 0.573245 21.2668 1.91937C23.2855 3.0744 24.7763 4.56407 25.6977 6.34697C27.0481 8.9599 26.9378 11.7897 26.7298 16.0213C27.2248 16.582 27.5258 17.3158 27.5258 18.1186C27.5258 19.0328 27.1356 19.8577 26.5129 20.4391ZM24.9317 16.3593V19.3708C24.9317 19.5823 24.9249 19.7921 24.9129 20.0006C25.7187 19.7499 26.305 19.001 26.305 18.1186C26.305 17.2431 25.7277 16.4995 24.9317 16.2429V16.3352C24.9319 16.3433 24.9319 16.3513 24.9317 16.3593ZM3.43178 6.90128C3.49777 6.77366 3.56804 6.64597 3.64075 6.52183C4.44466 5.14864 5.98222 4.28388 7.65337 4.265L7.66184 4.26485C7.84723 4.26098 8.02073 4.17362 8.13357 4.02742C9.45079 2.31967 11.4244 1.29704 13.5485 1.22174C16.0447 1.13324 18.5032 1.73814 20.6577 2.97082C22.4693 4.00733 23.7996 5.32972 24.6117 6.90128C25.6926 8.99266 25.7247 11.2676 25.5474 15.1765C25.3512 15.0955 25.1452 15.0335 24.9317 14.9924V14.3755C24.9317 14.0405 24.6584 13.7688 24.3214 13.7688C23.9843 13.7688 23.711 14.0405 23.711 14.3755V15.7532C15.3035 15.8425 10.7521 11.8175 9.53761 10.5582C9.39471 10.4101 9.18612 10.3438 8.98348 10.3819C8.78062 10.4201 8.61094 10.5575 8.53243 10.7473C7.64551 12.8917 6.0959 14.0135 3.65586 14.2779C3.34618 14.3114 3.11165 14.5713 3.11165 14.881V14.9923C2.89795 15.0335 2.69172 15.0955 2.49534 15.1767C2.31804 11.2687 2.35031 8.99379 3.43178 6.90128ZM1.73827 18.1186C1.73827 19.0011 2.3246 19.75 3.13042 20.0007C3.11836 19.7921 3.11157 19.5823 3.11157 19.3708V16.243C2.31559 16.4995 1.73827 17.2431 1.73827 18.1186ZM1.6394 30.2667C2.72781 28.4203 2.91656 25.3508 2.77817 21.1623C2.94021 21.212 3.10791 21.2487 3.27972 21.2724C3.97393 25.1569 6.7563 28.3325 10.4281 29.6093C8.66213 30.3646 5.31968 31.3654 1.6394 30.2667ZM4.33228 19.3707C4.33228 24.6809 8.67892 29.0011 14.0217 29.0011C19.3644 29.0011 23.711 24.681 23.711 19.3707V16.9667C20.0046 17.0061 16.6021 16.2953 13.5892 14.8543C11.5854 13.8959 10.1636 12.8023 9.28424 12.005C8.25114 13.916 6.62141 15.036 4.33236 15.4104L4.33228 19.3707ZM19.604 30.2982C18.8213 30.0903 18.146 29.8391 17.613 29.6101C21.2859 28.3339 24.0693 25.1577 24.7637 21.2724C24.9353 21.2487 25.1028 21.2121 25.2647 21.1624C25.1262 25.3515 25.3149 28.421 26.4038 30.2673C24.2483 30.9146 21.9648 30.9255 19.604 30.2982ZM11.9097 24.1528C13.0742 25.3103 14.969 25.3103 16.1336 24.1528C16.3719 23.916 16.7584 23.916 16.9967 24.1528C17.2352 24.3897 17.2352 24.7738 16.9967 25.0107C16.1765 25.8259 15.0991 26.2335 14.0217 26.2335C12.9442 26.2335 11.8668 25.8259 11.0466 25.0107C10.8081 24.7738 10.8081 24.3897 11.0466 24.1528C11.2849 23.916 11.6713 23.916 11.9097 24.1528ZM6.72639 17.573C6.48797 17.8099 6.48797 18.1939 6.72639 18.4308C6.96474 18.6677 7.35117 18.6677 7.58951 18.4308C7.98075 18.0421 8.6172 18.0421 9.00843 18.4308C9.1276 18.5493 9.28378 18.6085 9.44003 18.6085C9.59628 18.6085 9.75245 18.5493 9.87163 18.4308C10.11 18.1939 10.11 17.8099 9.87163 17.573C9.00454 16.7111 7.59348 16.711 6.72639 17.573ZM21.317 17.573C21.5554 17.8099 21.5554 18.1939 21.317 18.4308C21.1978 18.5493 21.0416 18.6085 20.8854 18.6085C20.7291 18.6085 20.573 18.5493 20.4538 18.4308C20.0626 18.0421 19.4261 18.0421 19.0349 18.4308C18.7965 18.6677 18.4101 18.6677 18.1718 18.4308C17.9333 18.1939 17.9333 17.8099 18.1718 17.573C19.0388 16.7111 20.4498 16.7111 21.317 17.573Z" fill="#9393AA"/>
</svg>
