<svg width="24" height="24" viewBox="0 0 24 24" fill="none" xmlns="http://www.w3.org/2000/svg">
<rect opacity="0.01" width="24" height="24" fill="black"/>
<path fill-rule="evenodd" clip-rule="evenodd" d="M21 22H3C2.44772 22 2 21.5523 2 21V4C2 3.44772 2.44772 3 3 3H7C7 2.44772 7.44772 2 8 2C8.55228 2 9 2.44772 9 3H15C15 2.44772 15.4477 2 16 2C16.5523 2 17 2.44772 17 3H21C21.5523 3 22 3.44772 22 4V21C22 21.5523 21.5523 22 21 22ZM7 5H4V8H20V5H17C17 5.55228 16.5523 6 16 6C15.4477 6 15 5.55228 15 5H9C9 5.55228 8.55228 6 8 6C7.44772 6 7 5.55228 7 5ZM4 10H20V20H4V10ZM7 14V12H9V14H7ZM7 18V16H9V18H7ZM13 12H11V14H13V12ZM11 16H13V18H11V16ZM17 14V12H15V14H17ZM15 18V16H17V18H15Z" fill="#EE9A61"/>
</svg>
