<svg width="142" height="41" viewBox="0 0 142 41" fill="none" xmlns="http://www.w3.org/2000/svg">
<path d="M142 12.4496C140.117 5.41639 134.334 0 124.844 0H124.785C124.487 0.0239613 124.176 -0.00570506 123.876 0.0239613H123.812C112.228 0.524866 106.474 9.50577 106.474 20.5029C106.474 26.2969 108.082 31.5239 111.296 35.2584V35.2767C114.258 38.7225 118.592 40.8699 124.304 40.9874L124.34 41C124.509 41 124.674 41 124.844 41H125.372C134.545 40.7935 140.146 35.4592 142 28.5504H133.888C132.493 34.6742 129.314 38.3563 125.372 38.7282C125.208 38.7579 125.032 38.7693 124.844 38.7693C119.249 38.7693 114.715 31.306 114.715 20.5029C114.715 9.74082 119.219 2.28887 124.785 2.23638L124.844 2.22497C129.026 2.22497 132.428 6.04166 133.883 12.4496H142ZM98.3636 12.4496C96.4747 5.41639 90.6921 0 81.2077 0H81.1487C80.8446 0.0239613 80.5338 -0.00570506 80.2286 0.0239613H80.1753C68.5863 0.524866 62.8322 9.50577 62.8322 20.5029C62.8322 26.2969 64.4511 31.5239 67.6481 35.2584V35.2767C70.6216 38.7225 74.9498 40.8699 80.6688 40.9874L80.6972 41C80.8673 41 81.0375 41 81.2077 41H81.7352C90.9088 40.7935 96.5042 35.4592 98.3636 28.5504H90.2463C88.8554 34.6389 85.6708 38.1555 81.7352 38.5274C81.5719 38.5571 81.396 38.5742 81.2077 38.5742C75.6123 38.5742 71.0675 31.306 71.0675 20.5029C71.0675 9.74082 75.5772 2.28887 81.1487 2.23638L81.2077 2.22497C85.3951 2.22497 88.7918 6.04166 90.2463 12.4496H98.3636ZM60.0345 40.4626L60.4508 32.9696C60.4077 32.9536 60.351 32.9422 60.2807 32.9342C59.9346 35.4068 57.8006 37.7253 54.0874 37.9375C53.5542 37.9729 50.3458 38.0026 49.7298 37.9969C46.2922 37.9489 45.97 37.0053 45.97 35.3828C45.97 34.5407 45.9746 22.9104 45.9825 0.489494H37.3365C37.999 1.416 38.2112 2.79662 38.2112 4.95085V40.4626H60.0345ZM28.7211 8.80862C29.3314 7.31047 31.8001 1.21518 32.4275 0.49634H28.2752C28.8617 1.505 27.0613 5.90588 26.6268 7.0332C26.3534 7.74519 23.8348 14.4441 19.0733 27.1287H18.8259C14.4751 15.6033 12.1244 9.40308 11.7761 8.52564C11.2667 7.21006 9.26662 2.02416 9.28931 0.507751H0C1.14358 2.08349 2.66268 5.8591 3.54759 8.26664C3.68033 8.62377 7.89387 19.4782 16.1871 40.8288H16.5513C24.2806 20.4424 28.3376 9.76821 28.7211 8.80862Z" fill="#FF6924"/>
</svg>
