<svg width="217" height="40" viewBox="0 0 217 40" fill="none" xmlns="http://www.w3.org/2000/svg">
<path fill-rule="evenodd" clip-rule="evenodd" d="M10.9444 8.10608C10.8602 8.17189 10.6664 8.67415 10.5138 9.22242L10.2361 10.2192L9.20932 10.5137C7.59842 10.9757 7.59709 11.3013 9.20416 11.7597L10.2309 12.0526L10.5266 13.0877C10.9641 14.6191 11.2912 14.6949 11.6881 13.3566C11.823 12.9019 11.9652 12.425 12.0043 12.2968C12.0433 12.1685 12.18 12.0316 12.308 11.9925C12.436 11.9533 12.9166 11.8094 13.376 11.6726C14.1792 11.4334 14.2114 11.413 14.2114 11.144C14.2114 10.8722 14.1834 10.8557 13.2328 10.5678C12.6946 10.4048 12.2092 10.257 12.1542 10.2394C12.0992 10.2217 11.932 9.76916 11.7827 9.23371C11.4549 8.05749 11.2902 7.83606 10.9444 8.10608ZM17.8868 8.14539C16.8951 8.32474 15.6514 8.74503 14.7117 9.2184C13.8472 9.6539 13.6495 9.83908 13.797 10.075C13.9524 10.3232 14.2624 10.3162 14.7089 10.0544C15.3858 9.65753 16.7894 9.15738 17.8126 8.94838C19.0104 8.7038 20.8944 8.68324 22.0459 8.90209C25.7098 9.59842 28.667 11.8969 30.2478 15.2768C31.5705 18.1049 31.6031 21.4439 30.3375 24.4899C30.0545 25.1709 30.0464 25.4287 30.3047 25.528C30.6588 25.6641 30.8766 25.3169 31.4056 23.773C31.853 22.4677 32.0041 21.4934 31.9999 19.9428C31.9922 17.1248 31.1764 14.7689 29.4287 12.5174C27.682 10.2671 24.948 8.63254 22.0983 8.13459C21.0458 7.95075 18.9339 7.9561 17.8868 8.14539ZM29.8846 8.83494C29.7119 8.94465 29.779 9.5197 29.9791 9.64519C30.2118 9.79116 30.4406 9.56083 30.4406 9.18072C30.4406 8.80395 30.1842 8.64459 29.8846 8.83494ZM19.777 9.82779C19.7275 9.8936 19.1131 11.2321 18.412 12.8024C17.7108 14.3727 17.0911 15.6731 17.0347 15.6921C16.9782 15.7112 15.5359 15.8839 13.8295 16.0761C12.123 16.2682 10.671 16.4706 10.6026 16.526C10.3083 16.7644 10.5814 17.0727 12.8594 19.0759C14.1373 20.1995 15.2067 21.1811 15.2358 21.2573C15.265 21.3335 14.9888 22.8013 14.622 24.5192C13.9395 27.7166 13.9159 27.9775 14.3089 27.9775C14.4115 27.9775 15.7245 27.2457 17.2268 26.3514C18.7293 25.4571 19.9958 24.7253 20.0415 24.7253C20.0871 24.7253 21.3501 25.4571 22.8483 26.3514C24.3464 27.2457 25.6565 27.9775 25.7595 27.9775C26.1539 27.9775 26.1305 27.7183 25.4475 24.5192C25.0807 22.8013 24.8043 21.3343 24.8331 21.2589C24.8619 21.1836 25.9313 20.2023 27.2096 19.0783C29.4896 17.0734 29.7628 16.7646 29.4669 16.5267C29.3986 16.4717 27.9465 16.2686 26.2401 16.0754C24.5336 15.8821 23.0913 15.7091 23.0349 15.6907C22.9785 15.6724 22.3587 14.3727 21.6575 12.8024C20.9564 11.2321 20.3421 9.8936 20.2925 9.82779C20.2429 9.76208 20.1269 9.70823 20.0348 9.70823C19.9427 9.70823 19.8267 9.76208 19.777 9.82779ZM28.8722 9.85849C28.5873 10.144 28.7627 10.4734 29.1995 10.4734C29.6535 10.4734 29.8597 10.0043 29.4922 9.80723C29.2332 9.66834 29.0466 9.68384 28.8722 9.85849ZM30.7031 9.81153C30.355 10.0147 30.5701 10.4734 31.0134 10.4734C31.4502 10.4734 31.6256 10.144 31.3407 9.85849C31.1694 9.6868 30.9451 9.67035 30.7031 9.81153ZM11.3059 10.3299C11.3799 10.7249 11.5014 10.836 12.0364 10.9986L12.4452 11.1227L12.1765 11.2285C12.0287 11.2867 11.8602 11.3343 11.8022 11.3343C11.6517 11.3343 11.3474 11.6281 11.3474 11.7733C11.3474 11.8407 11.2993 12.0169 11.2405 12.165L11.1334 12.4343L10.9779 11.956C10.8332 11.5112 10.7906 11.4677 10.3693 11.3343C10.1203 11.2554 9.91634 11.1693 9.91634 11.143C9.91634 11.1167 10.1203 11.0306 10.3693 10.9517C10.7886 10.8189 10.8323 10.7746 10.9573 10.3579C11.1087 9.85304 11.2151 9.84443 11.3059 10.3299ZM29.8404 10.6285C29.6951 10.774 29.7715 11.3271 29.9501 11.4229C30.2337 11.5749 30.4621 11.346 30.4242 10.9475C30.3984 10.6749 30.3504 10.6119 30.1506 10.5886C30.0174 10.573 29.8777 10.591 29.8404 10.6285ZM16.4071 11.1081C15.3072 11.5704 14.1121 12.369 13.2936 13.1889C12.4593 14.0246 12.18 14.4535 12.3108 14.6984C12.4902 15.0343 12.8024 14.9033 13.3037 14.2818C14.1607 13.2195 15.6106 12.2025 17.0241 11.6724C17.8435 11.3652 17.9831 11.2053 17.6891 10.9106C17.4775 10.6988 17.3251 10.7223 16.4071 11.1081ZM22.3805 10.9106C22.0864 11.2053 22.226 11.3652 23.0455 11.6724C24.7536 12.313 26.257 13.4763 27.2819 14.9504C27.4516 15.1946 27.5592 15.26 27.754 15.2374C27.9466 15.215 28.0132 15.1482 28.0355 14.9545C28.0577 14.7618 27.92 14.5213 27.4627 13.9541C26.4423 12.6885 25.131 11.7202 23.5498 11.0645C22.7146 10.7181 22.5892 10.7017 22.3805 10.9106ZM19.6311 17.4413L19.6052 19.244L16.196 18.139C14.3209 17.5313 12.8041 17.0167 12.8253 16.9955C12.8465 16.9742 13.9001 16.8352 15.1669 16.6867C16.4335 16.5381 17.5264 16.3696 17.5955 16.3122C17.6645 16.2547 18.145 15.2587 18.6631 14.0989L19.6052 11.99L19.6311 13.8142C19.6454 14.8176 19.6454 16.4498 19.6311 17.4413ZM21.4114 14.1077C21.9177 15.2385 22.3881 16.2201 22.457 16.2891C22.5357 16.3679 23.4422 16.5155 24.894 16.6857C26.1655 16.8349 27.2236 16.9746 27.2452 16.9964C27.2769 17.0282 22.5233 18.6138 20.8224 19.1389L20.4166 19.2641V15.6181C20.4166 13.6127 20.4333 11.9899 20.4539 12.0118C20.4743 12.0338 20.9052 12.9769 21.4114 14.1077ZM9.58889 14.0996C9.32283 14.3942 8.67175 15.9955 8.42774 16.9554C7.44835 20.8078 8.33218 24.6799 10.8861 27.726C12.3441 29.4651 14.084 30.649 16.2475 31.374C19.7903 32.5614 23.5696 32.0456 26.7114 29.9458C27.7989 29.2189 28.0813 28.9393 28.0379 28.6325C27.9855 28.2615 27.6341 28.2947 27.1208 28.7192C24.2099 31.1268 20.1043 31.8699 16.4644 30.6479C11.5292 28.9914 8.31385 24.0539 8.84836 18.9528C8.99223 17.5795 9.33724 16.3043 9.86966 15.1782C10.2043 14.4704 10.2735 14.2423 10.1968 14.0988C10.0722 13.8657 9.79996 13.8661 9.58889 14.0996ZM18.4391 19.6699C18.9529 19.8353 19.3606 20.0083 19.3453 20.0545C19.2793 20.2528 15.2157 25.7833 15.1908 25.7086C15.1758 25.6632 15.3787 24.6166 15.642 23.383C15.9053 22.1493 16.1207 21.0947 16.1207 21.0396C16.1207 20.9843 15.3721 20.2821 14.4573 19.4791C13.5424 18.6761 12.7459 17.9611 12.6871 17.8903C12.6284 17.8194 13.6884 18.1232 15.0427 18.5654C16.397 19.0076 17.9253 19.5046 18.4391 19.6699ZM25.8381 19.2774C24.8778 20.1214 24.0556 20.8646 24.0111 20.9291C23.9629 20.9988 24.1305 21.9876 24.4251 23.3717C24.6973 24.6507 24.9022 25.715 24.8804 25.7369C24.8425 25.7748 20.7807 20.2238 20.726 20.0595C20.7055 19.9981 27.1926 17.7915 27.5087 17.7522C27.5502 17.7471 26.7984 18.4334 25.8381 19.2774ZM10.6027 19.0055C10.4395 19.169 10.457 20.7132 10.6325 21.6406C10.9078 23.0949 11.5101 24.5177 12.2824 25.5384C12.667 26.0468 13.0005 26.1632 13.1936 25.8564C13.2735 25.7294 13.2139 25.5808 12.9058 25.139C11.8914 23.6851 11.3535 22.1185 11.2854 20.4211C11.2282 18.9927 11.2048 18.8907 10.9351 18.8907C10.8152 18.8907 10.6657 18.9423 10.6027 19.0055ZM28.9375 19.2015C28.8855 19.2673 28.8187 19.8161 28.7891 20.4211C28.707 22.0976 28.1523 23.7414 27.2315 25.0364C26.8829 25.5267 26.8449 25.6757 27.0229 25.854C27.2397 26.0712 27.48 25.9678 27.812 25.5145C28.5986 24.4404 29.1917 23.0083 29.4412 21.5803C29.6126 20.6002 29.6259 19.3561 29.4668 19.1968C29.318 19.0476 29.0572 19.05 28.9375 19.2015ZM21.5365 22.5015C22.3284 23.593 23.2885 24.9157 23.67 25.4406C24.1151 26.053 24.2807 26.3413 24.1324 26.2449C23.3684 25.7493 20.1256 23.8645 20.0368 23.8645C19.951 23.8645 17.6233 25.2148 16.0377 26.1844C15.744 26.364 15.7759 26.2987 16.4046 25.4336C16.7832 24.9125 17.7411 23.593 18.5331 22.5015C19.3251 21.4099 20.0009 20.5167 20.0348 20.5167C20.0687 20.5167 20.7445 21.4099 21.5365 22.5015ZM29.2238 25.3625C29.1583 25.389 29.0168 25.701 28.9092 26.0558L28.7136 26.7011L28.0735 26.885C27.5133 27.046 27.4298 27.0998 27.4047 27.3161C27.3685 27.6281 27.4911 27.7248 28.1704 27.9199L28.7165 28.0767L28.8891 28.664C29.1855 29.6727 29.5983 29.6713 29.8999 28.6609L30.0751 28.0737L30.6158 27.9201C31.7116 27.6088 31.7439 27.1626 30.6913 26.8772L30.0773 26.7107L29.9168 26.1245C29.8285 25.8022 29.6873 25.4846 29.6029 25.4188C29.4395 25.2915 29.4099 25.2872 29.2238 25.3625ZM29.562 27.2939C29.6606 27.3566 29.6549 27.3984 29.5341 27.4988C29.3626 27.6414 29.1309 27.4966 29.2421 27.3162C29.3182 27.1928 29.3946 27.1875 29.562 27.2939ZM22.4692 28.4339C21.7811 28.6557 21.5493 28.6809 20.1302 28.6875C18.7568 28.6939 18.4435 28.6654 17.6839 28.4648C16.718 28.2097 16.5025 28.2346 16.5025 28.6011C16.5025 28.9097 16.8608 29.0748 18.0777 29.3272C19.7181 29.6674 22.0831 29.4957 23.3223 28.9465C23.7192 28.7706 23.7676 28.7168 23.7407 28.4821C23.7001 28.1281 23.4474 28.1185 22.4692 28.4339ZM9.96989 28.8929C9.66326 29.2003 9.84178 29.6992 10.2584 29.6992C10.6135 29.6992 10.7254 29.0167 10.399 28.8417C10.1602 28.7136 10.1475 28.7151 9.96989 28.8929ZM8.97982 29.9096C8.6811 30.2089 9.03528 30.6341 9.48827 30.5201C9.75385 30.4534 9.88235 30.1289 9.72063 29.9337C9.58135 29.7656 9.138 29.7511 8.97982 29.9096ZM10.6899 29.9659C10.4754 30.3675 11.1455 30.7756 11.4384 30.4218C11.5015 30.3458 11.5389 30.1844 11.5218 30.0631C11.479 29.7613 10.8391 29.6865 10.6899 29.9659ZM9.92016 30.6978C9.63357 31.0436 10.0108 31.6832 10.3688 31.4586C10.7173 31.2399 10.5909 30.56 10.2018 30.56C10.1097 30.56 9.98288 30.622 9.92016 30.6978Z" fill="white"/>
<path fill-rule="evenodd" clip-rule="evenodd" d="M10.9444 8.10608C10.8602 8.17189 10.6664 8.67415 10.5138 9.22242L10.2361 10.2192L9.20932 10.5137C7.59842 10.9757 7.59709 11.3013 9.20416 11.7597L10.2309 12.0526L10.5266 13.0877C10.9641 14.6191 11.2912 14.6949 11.6881 13.3566C11.823 12.9019 11.9652 12.425 12.0043 12.2968C12.0433 12.1685 12.18 12.0316 12.308 11.9925C12.436 11.9533 12.9166 11.8094 13.376 11.6726C14.1792 11.4334 14.2114 11.413 14.2114 11.144C14.2114 10.8722 14.1834 10.8557 13.2328 10.5678C12.6946 10.4048 12.2092 10.257 12.1542 10.2394C12.0992 10.2217 11.932 9.76916 11.7827 9.23371C11.4549 8.05749 11.2902 7.83606 10.9444 8.10608ZM17.8868 8.14539C16.8951 8.32474 15.6514 8.74503 14.7117 9.2184C13.8472 9.6539 13.6495 9.83908 13.797 10.075C13.9524 10.3232 14.2624 10.3162 14.7089 10.0544C15.3858 9.65753 16.7894 9.15738 17.8126 8.94838C19.0104 8.7038 20.8944 8.68324 22.0459 8.90209C25.7098 9.59842 28.667 11.8969 30.2478 15.2768C31.5705 18.1049 31.6031 21.4439 30.3375 24.4899C30.0545 25.1709 30.0464 25.4287 30.3047 25.528C30.6588 25.6641 30.8766 25.3169 31.4056 23.773C31.853 22.4677 32.0041 21.4934 31.9999 19.9428C31.9922 17.1248 31.1764 14.7689 29.4287 12.5174C27.682 10.2671 24.948 8.63254 22.0983 8.13459C21.0458 7.95075 18.9339 7.9561 17.8868 8.14539ZM29.8846 8.83494C29.7119 8.94465 29.779 9.5197 29.9791 9.64519C30.2118 9.79116 30.4406 9.56083 30.4406 9.18072C30.4406 8.80395 30.1842 8.64459 29.8846 8.83494ZM19.777 9.82779C19.7275 9.8936 19.1131 11.2321 18.412 12.8024C17.7108 14.3727 17.0911 15.6731 17.0347 15.6921C16.9782 15.7112 15.5359 15.8839 13.8295 16.0761C12.123 16.2682 10.671 16.4706 10.6026 16.526C10.3083 16.7644 10.5814 17.0727 12.8594 19.0759C14.1373 20.1995 15.2067 21.1811 15.2358 21.2573C15.265 21.3335 14.9888 22.8013 14.622 24.5192C13.9395 27.7166 13.9159 27.9775 14.3089 27.9775C14.4115 27.9775 15.7245 27.2457 17.2268 26.3514C18.7293 25.4571 19.9958 24.7253 20.0415 24.7253C20.0871 24.7253 21.3501 25.4571 22.8483 26.3514C24.3464 27.2457 25.6565 27.9775 25.7595 27.9775C26.1539 27.9775 26.1305 27.7183 25.4475 24.5192C25.0807 22.8013 24.8043 21.3343 24.8331 21.2589C24.8619 21.1836 25.9313 20.2023 27.2096 19.0783C29.4896 17.0734 29.7628 16.7646 29.4669 16.5267C29.3986 16.4717 27.9465 16.2686 26.2401 16.0754C24.5336 15.8821 23.0913 15.7091 23.0349 15.6907C22.9785 15.6724 22.3587 14.3727 21.6575 12.8024C20.9564 11.2321 20.3421 9.8936 20.2925 9.82779C20.2429 9.76208 20.1269 9.70823 20.0348 9.70823C19.9427 9.70823 19.8267 9.76208 19.777 9.82779ZM28.8722 9.85849C28.5873 10.144 28.7627 10.4734 29.1995 10.4734C29.6535 10.4734 29.8597 10.0043 29.4922 9.80723C29.2332 9.66834 29.0466 9.68384 28.8722 9.85849ZM30.7031 9.81153C30.355 10.0147 30.5701 10.4734 31.0134 10.4734C31.4502 10.4734 31.6256 10.144 31.3407 9.85849C31.1694 9.6868 30.9451 9.67035 30.7031 9.81153ZM11.3059 10.3299C11.3799 10.7249 11.5014 10.836 12.0364 10.9986L12.4452 11.1227L12.1765 11.2285C12.0287 11.2867 11.8602 11.3343 11.8022 11.3343C11.6517 11.3343 11.3474 11.6281 11.3474 11.7733C11.3474 11.8407 11.2993 12.0169 11.2405 12.165L11.1334 12.4343L10.9779 11.956C10.8332 11.5112 10.7906 11.4677 10.3693 11.3343C10.1203 11.2554 9.91634 11.1693 9.91634 11.143C9.91634 11.1167 10.1203 11.0306 10.3693 10.9517C10.7886 10.8189 10.8323 10.7746 10.9573 10.3579C11.1087 9.85304 11.2151 9.84443 11.3059 10.3299ZM29.8404 10.6285C29.6951 10.774 29.7715 11.3271 29.9501 11.4229C30.2337 11.5749 30.4621 11.346 30.4242 10.9475C30.3984 10.6749 30.3504 10.6119 30.1506 10.5886C30.0174 10.573 29.8777 10.591 29.8404 10.6285ZM16.4071 11.1081C15.3072 11.5704 14.1121 12.369 13.2936 13.1889C12.4593 14.0246 12.18 14.4535 12.3108 14.6984C12.4902 15.0343 12.8024 14.9033 13.3037 14.2818C14.1607 13.2195 15.6106 12.2025 17.0241 11.6724C17.8435 11.3652 17.9831 11.2053 17.6891 10.9106C17.4775 10.6988 17.3251 10.7223 16.4071 11.1081ZM22.3805 10.9106C22.0864 11.2053 22.226 11.3652 23.0455 11.6724C24.7536 12.313 26.257 13.4763 27.2819 14.9504C27.4516 15.1946 27.5592 15.26 27.754 15.2374C27.9466 15.215 28.0132 15.1482 28.0355 14.9545C28.0577 14.7618 27.92 14.5213 27.4627 13.9541C26.4423 12.6885 25.131 11.7202 23.5498 11.0645C22.7146 10.7181 22.5892 10.7017 22.3805 10.9106ZM19.6311 17.4413L19.6052 19.244L16.196 18.139C14.3209 17.5313 12.8041 17.0167 12.8253 16.9955C12.8465 16.9742 13.9001 16.8352 15.1669 16.6867C16.4335 16.5381 17.5264 16.3696 17.5955 16.3122C17.6645 16.2547 18.145 15.2587 18.6631 14.0989L19.6052 11.99L19.6311 13.8142C19.6454 14.8176 19.6454 16.4498 19.6311 17.4413ZM21.4114 14.1077C21.9177 15.2385 22.3881 16.2201 22.457 16.2891C22.5357 16.3679 23.4422 16.5155 24.894 16.6857C26.1655 16.8349 27.2236 16.9746 27.2452 16.9964C27.2769 17.0282 22.5233 18.6138 20.8224 19.1389L20.4166 19.2641V15.6181C20.4166 13.6127 20.4333 11.9899 20.4539 12.0118C20.4743 12.0338 20.9052 12.9769 21.4114 14.1077ZM9.58889 14.0996C9.32283 14.3942 8.67175 15.9955 8.42774 16.9554C7.44835 20.8078 8.33218 24.6799 10.8861 27.726C12.3441 29.4651 14.084 30.649 16.2475 31.374C19.7903 32.5614 23.5696 32.0456 26.7114 29.9458C27.7989 29.2189 28.0813 28.9393 28.0379 28.6325C27.9855 28.2615 27.6341 28.2947 27.1208 28.7192C24.2099 31.1268 20.1043 31.8699 16.4644 30.6479C11.5292 28.9914 8.31385 24.0539 8.84836 18.9528C8.99223 17.5795 9.33724 16.3043 9.86966 15.1782C10.2043 14.4704 10.2735 14.2423 10.1968 14.0988C10.0722 13.8657 9.79996 13.8661 9.58889 14.0996ZM18.4391 19.6699C18.9529 19.8353 19.3606 20.0083 19.3453 20.0545C19.2793 20.2528 15.2157 25.7833 15.1908 25.7086C15.1758 25.6632 15.3787 24.6166 15.642 23.383C15.9053 22.1493 16.1207 21.0947 16.1207 21.0396C16.1207 20.9843 15.3721 20.2821 14.4573 19.4791C13.5424 18.6761 12.7459 17.9611 12.6871 17.8903C12.6284 17.8194 13.6884 18.1232 15.0427 18.5654C16.397 19.0076 17.9253 19.5046 18.4391 19.6699ZM25.8381 19.2774C24.8778 20.1214 24.0556 20.8646 24.0111 20.9291C23.9629 20.9988 24.1305 21.9876 24.4251 23.3717C24.6973 24.6507 24.9022 25.715 24.8804 25.7369C24.8425 25.7748 20.7807 20.2238 20.726 20.0595C20.7055 19.9981 27.1926 17.7915 27.5087 17.7522C27.5502 17.7471 26.7984 18.4334 25.8381 19.2774ZM10.6027 19.0055C10.4395 19.169 10.457 20.7132 10.6325 21.6406C10.9078 23.0949 11.5101 24.5177 12.2824 25.5384C12.667 26.0468 13.0005 26.1632 13.1936 25.8564C13.2735 25.7294 13.2139 25.5808 12.9058 25.139C11.8914 23.6851 11.3535 22.1185 11.2854 20.4211C11.2282 18.9927 11.2048 18.8907 10.9351 18.8907C10.8152 18.8907 10.6657 18.9423 10.6027 19.0055ZM28.9375 19.2015C28.8855 19.2673 28.8187 19.8161 28.7891 20.4211C28.707 22.0976 28.1523 23.7414 27.2315 25.0364C26.8829 25.5267 26.8449 25.6757 27.0229 25.854C27.2397 26.0712 27.48 25.9678 27.812 25.5145C28.5986 24.4404 29.1917 23.0083 29.4412 21.5803C29.6126 20.6002 29.6259 19.3561 29.4668 19.1968C29.318 19.0476 29.0572 19.05 28.9375 19.2015ZM21.5365 22.5015C22.3284 23.593 23.2885 24.9157 23.67 25.4406C24.1151 26.053 24.2807 26.3413 24.1324 26.2449C23.3684 25.7493 20.1256 23.8645 20.0368 23.8645C19.951 23.8645 17.6233 25.2148 16.0377 26.1844C15.744 26.364 15.7759 26.2987 16.4046 25.4336C16.7832 24.9125 17.7411 23.593 18.5331 22.5015C19.3251 21.4099 20.0009 20.5167 20.0348 20.5167C20.0687 20.5167 20.7445 21.4099 21.5365 22.5015ZM29.2238 25.3625C29.1583 25.389 29.0168 25.701 28.9092 26.0558L28.7136 26.7011L28.0735 26.885C27.5133 27.046 27.4298 27.0998 27.4047 27.3161C27.3685 27.6281 27.4911 27.7248 28.1704 27.9199L28.7165 28.0767L28.8891 28.664C29.1855 29.6727 29.5983 29.6713 29.8999 28.6609L30.0751 28.0737L30.6158 27.9201C31.7116 27.6088 31.7439 27.1626 30.6913 26.8772L30.0773 26.7107L29.9168 26.1245C29.8285 25.8022 29.6873 25.4846 29.6029 25.4188C29.4395 25.2915 29.4099 25.2872 29.2238 25.3625ZM29.562 27.2939C29.6606 27.3566 29.6549 27.3984 29.5341 27.4988C29.3626 27.6414 29.1309 27.4966 29.2421 27.3162C29.3182 27.1928 29.3946 27.1875 29.562 27.2939ZM22.4692 28.4339C21.7811 28.6557 21.5493 28.6809 20.1302 28.6875C18.7568 28.6939 18.4435 28.6654 17.6839 28.4648C16.718 28.2097 16.5025 28.2346 16.5025 28.6011C16.5025 28.9097 16.8608 29.0748 18.0777 29.3272C19.7181 29.6674 22.0831 29.4957 23.3223 28.9465C23.7192 28.7706 23.7676 28.7168 23.7407 28.4821C23.7001 28.1281 23.4474 28.1185 22.4692 28.4339ZM9.96989 28.8929C9.66326 29.2003 9.84178 29.6992 10.2584 29.6992C10.6135 29.6992 10.7254 29.0167 10.399 28.8417C10.1602 28.7136 10.1475 28.7151 9.96989 28.8929ZM8.97982 29.9096C8.6811 30.2089 9.03528 30.6341 9.48827 30.5201C9.75385 30.4534 9.88235 30.1289 9.72063 29.9337C9.58135 29.7656 9.138 29.7511 8.97982 29.9096ZM10.6899 29.9659C10.4754 30.3675 11.1455 30.7756 11.4384 30.4218C11.5015 30.3458 11.5389 30.1844 11.5218 30.0631C11.479 29.7613 10.8391 29.6865 10.6899 29.9659ZM9.92016 30.6978C9.63357 31.0436 10.0108 31.6832 10.3688 31.4586C10.7173 31.2399 10.5909 30.56 10.2018 30.56C10.1097 30.56 9.98288 30.622 9.92016 30.6978Z" fill="url(#paint0_linear)"/>
<path d="M51.028 19.862C51.6067 20.0207 52.0547 20.31 52.372 20.73C52.6893 21.15 52.848 21.668 52.848 22.284C52.848 23.1427 52.5493 23.81 51.952 24.286C51.364 24.762 50.538 25 49.474 25H45.162V15.032H49.334C50.3607 15.032 51.1587 15.2607 51.728 15.718C52.3067 16.1753 52.596 16.8147 52.596 17.636C52.596 18.168 52.456 18.63 52.176 19.022C51.9053 19.4047 51.5227 19.6847 51.028 19.862ZM46.59 19.358H49.11C50.5007 19.358 51.196 18.8213 51.196 17.748C51.196 16.712 50.5007 16.194 49.11 16.194H46.59V19.358ZM49.334 23.838C50.062 23.838 50.594 23.7073 50.93 23.446C51.266 23.1753 51.434 22.76 51.434 22.2C51.434 21.6307 51.2613 21.2107 50.916 20.94C50.58 20.66 50.0527 20.52 49.334 20.52H46.59V23.838H49.334ZM57.658 25.098C56.9673 25.098 56.3607 24.9487 55.838 24.65C55.3153 24.3513 54.9093 23.9267 54.62 23.376C54.34 22.8253 54.2 22.1813 54.2 21.444C54.2 20.7067 54.34 20.0627 54.62 19.512C54.9093 18.952 55.3153 18.5227 55.838 18.224C56.3607 17.9253 56.9673 17.776 57.658 17.776C58.3393 17.776 58.9413 17.9253 59.464 18.224C59.9867 18.5227 60.388 18.952 60.668 19.512C60.9573 20.0627 61.102 20.7067 61.102 21.444C61.102 22.1813 60.9573 22.8253 60.668 23.376C60.388 23.9267 59.9867 24.3513 59.464 24.65C58.9413 24.9487 58.3393 25.098 57.658 25.098ZM57.644 23.978C58.2973 23.978 58.7967 23.7633 59.142 23.334C59.4873 22.9047 59.66 22.2747 59.66 21.444C59.66 20.632 59.4827 20.0067 59.128 19.568C58.7827 19.1293 58.2927 18.91 57.658 18.91C57.014 18.91 56.5147 19.1293 56.16 19.568C55.8053 20.0067 55.628 20.632 55.628 21.444C55.628 22.2747 55.8007 22.9047 56.146 23.334C56.5007 23.7633 57 23.978 57.644 23.978ZM65.7928 25.098C65.1021 25.098 64.4954 24.9487 63.9728 24.65C63.4501 24.3513 63.0441 23.9267 62.7548 23.376C62.4748 22.8253 62.3348 22.1813 62.3348 21.444C62.3348 20.7067 62.4748 20.0627 62.7548 19.512C63.0441 18.952 63.4501 18.5227 63.9728 18.224C64.4954 17.9253 65.1021 17.776 65.7928 17.776C66.4741 17.776 67.0761 17.9253 67.5988 18.224C68.1214 18.5227 68.5228 18.952 68.8028 19.512C69.0921 20.0627 69.2368 20.7067 69.2368 21.444C69.2368 22.1813 69.0921 22.8253 68.8028 23.376C68.5228 23.9267 68.1214 24.3513 67.5988 24.65C67.0761 24.9487 66.4741 25.098 65.7928 25.098ZM65.7788 23.978C66.4321 23.978 66.9314 23.7633 67.2768 23.334C67.6221 22.9047 67.7948 22.2747 67.7948 21.444C67.7948 20.632 67.6174 20.0067 67.2628 19.568C66.9174 19.1293 66.4274 18.91 65.7928 18.91C65.1488 18.91 64.6494 19.1293 64.2948 19.568C63.9401 20.0067 63.7628 20.632 63.7628 21.444C63.7628 22.2747 63.9354 22.9047 64.2808 23.334C64.6354 23.7633 65.1348 23.978 65.7788 23.978ZM75.6635 25L72.2895 21.668V25H70.8895V14.696H72.2895V21.136L75.4255 17.958H77.1755L73.8015 21.346L77.4695 25H75.6635ZM78.327 17.944H79.727V25H78.327V17.944ZM79.839 14.864V16.348H78.201V14.864H79.839ZM85.5517 17.776C87.241 17.776 88.0857 18.7187 88.0857 20.604V25H86.6717V20.688C86.6717 20.072 86.5503 19.624 86.3077 19.344C86.0743 19.064 85.6963 18.924 85.1737 18.924C84.5763 18.924 84.0957 19.1107 83.7317 19.484C83.377 19.8573 83.1997 20.3567 83.1997 20.982V25H81.7997V19.932C81.7997 19.1947 81.7623 18.532 81.6877 17.944H83.0037L83.1297 19.162C83.3537 18.714 83.6757 18.3733 84.0957 18.14C84.525 17.8973 85.0103 17.776 85.5517 17.776ZM96.6085 17.944V24.874C96.6085 25.9473 96.3238 26.7547 95.7545 27.296C95.1945 27.8467 94.3592 28.122 93.2485 28.122C92.1752 28.122 91.2372 27.8887 90.4345 27.422L90.6725 26.316C91.1112 26.5493 91.5312 26.722 91.9325 26.834C92.3432 26.946 92.7772 27.002 93.2345 27.002C94.5505 27.002 95.2085 26.33 95.2085 24.986V23.46C94.9938 23.8707 94.6812 24.1973 94.2705 24.44C93.8598 24.6733 93.3838 24.79 92.8425 24.79C92.2265 24.79 91.6758 24.6453 91.1905 24.356C90.7145 24.0667 90.3412 23.656 90.0705 23.124C89.8092 22.592 89.6785 21.9807 89.6785 21.29C89.6785 20.5993 89.8092 19.988 90.0705 19.456C90.3412 18.924 90.7145 18.5133 91.1905 18.224C91.6758 17.9253 92.2265 17.776 92.8425 17.776C93.3838 17.776 93.8598 17.8927 94.2705 18.126C94.6812 18.35 94.9938 18.672 95.2085 19.092V17.944H96.6085ZM93.1645 23.656C93.7992 23.656 94.2985 23.446 94.6625 23.026C95.0265 22.606 95.2085 22.0273 95.2085 21.29C95.2085 20.5527 95.0265 19.974 94.6625 19.554C94.3078 19.1247 93.8085 18.91 93.1645 18.91C92.5298 18.91 92.0258 19.1247 91.6525 19.554C91.2885 19.974 91.1065 20.5527 91.1065 21.29C91.1065 22.018 91.2885 22.5967 91.6525 23.026C92.0258 23.446 92.5298 23.656 93.1645 23.656ZM104.251 19.036V22.578C104.251 23.0633 104.354 23.4087 104.559 23.614C104.774 23.81 105.068 23.908 105.441 23.908C105.684 23.908 105.931 23.8707 106.183 23.796V24.944C105.875 25.0467 105.525 25.098 105.133 25.098C104.405 25.098 103.84 24.8927 103.439 24.482C103.038 24.0713 102.837 23.474 102.837 22.69V19.036H101.465V17.944H102.837V16.18L104.251 15.69V17.944H106.197V19.036H104.251ZM111.255 17.776C112.944 17.776 113.789 18.7187 113.789 20.604V25H112.375V20.688C112.375 20.072 112.253 19.624 112.011 19.344C111.777 19.064 111.399 18.924 110.877 18.924C110.279 18.924 109.799 19.1107 109.435 19.484C109.08 19.8573 108.903 20.3567 108.903 20.982V25H107.503V14.696H108.903V19.036C109.136 18.6253 109.458 18.3127 109.869 18.098C110.279 17.8833 110.741 17.776 111.255 17.776ZM119.316 17.776C119.53 17.776 119.754 17.8087 119.988 17.874L119.96 19.162C119.708 19.0687 119.432 19.022 119.134 19.022C118.49 19.022 118.004 19.218 117.678 19.61C117.36 19.9927 117.202 20.478 117.202 21.066V25H115.802V19.932C115.802 19.1947 115.764 18.532 115.69 17.944H117.006L117.132 19.218C117.318 18.7513 117.608 18.3967 118 18.154C118.392 17.902 118.83 17.776 119.316 17.776ZM123.967 25.098C123.276 25.098 122.669 24.9487 122.147 24.65C121.624 24.3513 121.218 23.9267 120.929 23.376C120.649 22.8253 120.509 22.1813 120.509 21.444C120.509 20.7067 120.649 20.0627 120.929 19.512C121.218 18.952 121.624 18.5227 122.147 18.224C122.669 17.9253 123.276 17.776 123.967 17.776C124.648 17.776 125.25 17.9253 125.773 18.224C126.295 18.5227 126.697 18.952 126.977 19.512C127.266 20.0627 127.411 20.7067 127.411 21.444C127.411 22.1813 127.266 22.8253 126.977 23.376C126.697 23.9267 126.295 24.3513 125.773 24.65C125.25 24.9487 124.648 25.098 123.967 25.098ZM123.953 23.978C124.606 23.978 125.105 23.7633 125.451 23.334C125.796 22.9047 125.969 22.2747 125.969 21.444C125.969 20.632 125.791 20.0067 125.437 19.568C125.091 19.1293 124.601 18.91 123.967 18.91C123.323 18.91 122.823 19.1293 122.469 19.568C122.114 20.0067 121.937 20.632 121.937 21.444C121.937 22.2747 122.109 22.9047 122.455 23.334C122.809 23.7633 123.309 23.978 123.953 23.978ZM135.195 17.944V25H133.823V23.824C133.599 24.2347 133.291 24.552 132.899 24.776C132.507 24.9907 132.064 25.098 131.569 25.098C129.871 25.098 129.021 24.1553 129.021 22.27V17.944H130.421V22.256C130.421 22.8347 130.538 23.264 130.771 23.544C131.014 23.8147 131.378 23.95 131.863 23.95C132.442 23.95 132.904 23.7633 133.249 23.39C133.604 23.0167 133.781 22.522 133.781 21.906V17.944H135.195ZM143.776 17.944V24.874C143.776 25.9473 143.492 26.7547 142.922 27.296C142.362 27.8467 141.527 28.122 140.416 28.122C139.343 28.122 138.405 27.8887 137.602 27.422L137.84 26.316C138.279 26.5493 138.699 26.722 139.1 26.834C139.511 26.946 139.945 27.002 140.402 27.002C141.718 27.002 142.376 26.33 142.376 24.986V23.46C142.162 23.8707 141.849 24.1973 141.438 24.44C141.028 24.6733 140.552 24.79 140.01 24.79C139.394 24.79 138.844 24.6453 138.358 24.356C137.882 24.0667 137.509 23.656 137.238 23.124C136.977 22.592 136.846 21.9807 136.846 21.29C136.846 20.5993 136.977 19.988 137.238 19.456C137.509 18.924 137.882 18.5133 138.358 18.224C138.844 17.9253 139.394 17.776 140.01 17.776C140.552 17.776 141.028 17.8927 141.438 18.126C141.849 18.35 142.162 18.672 142.376 19.092V17.944H143.776ZM140.332 23.656C140.967 23.656 141.466 23.446 141.83 23.026C142.194 22.606 142.376 22.0273 142.376 21.29C142.376 20.5527 142.194 19.974 141.83 19.554C141.476 19.1247 140.976 18.91 140.332 18.91C139.698 18.91 139.194 19.1247 138.82 19.554C138.456 19.974 138.274 20.5527 138.274 21.29C138.274 22.018 138.456 22.5967 138.82 23.026C139.194 23.446 139.698 23.656 140.332 23.656ZM149.604 17.776C151.294 17.776 152.138 18.7187 152.138 20.604V25H150.724V20.688C150.724 20.072 150.603 19.624 150.36 19.344C150.127 19.064 149.749 18.924 149.226 18.924C148.629 18.924 148.148 19.1107 147.784 19.484C147.43 19.8573 147.252 20.3567 147.252 20.982V25H145.852V14.696H147.252V19.036C147.486 18.6253 147.808 18.3127 148.218 18.098C148.629 17.8833 149.091 17.776 149.604 17.776ZM161.622 17.776C162.228 17.776 162.77 17.93 163.246 18.238C163.722 18.546 164.09 18.98 164.352 19.54C164.622 20.1 164.758 20.744 164.758 21.472C164.758 22.2 164.627 22.8393 164.366 23.39C164.104 23.9313 163.736 24.3513 163.26 24.65C162.784 24.9487 162.238 25.098 161.622 25.098C161.08 25.098 160.604 24.986 160.194 24.762C159.792 24.5287 159.489 24.1973 159.284 23.768V28.024H157.884V19.932C157.884 19.1947 157.846 18.532 157.772 17.944H159.088L159.228 19.246C159.414 18.7793 159.718 18.42 160.138 18.168C160.558 17.9067 161.052 17.776 161.622 17.776ZM161.3 23.978C161.934 23.978 162.429 23.7587 162.784 23.32C163.138 22.8813 163.316 22.2653 163.316 21.472C163.316 20.6693 163.138 20.044 162.784 19.596C162.429 19.1387 161.934 18.91 161.3 18.91C160.646 18.91 160.147 19.1293 159.802 19.568C159.456 20.0067 159.284 20.632 159.284 21.444C159.284 22.256 159.456 22.8813 159.802 23.32C160.156 23.7587 160.656 23.978 161.3 23.978ZM172.869 17.944V25H171.469V23.796C171.264 24.216 170.956 24.538 170.545 24.762C170.144 24.986 169.672 25.098 169.131 25.098C168.506 25.098 167.955 24.9487 167.479 24.65C167.012 24.3513 166.648 23.9313 166.387 23.39C166.126 22.8393 165.995 22.2 165.995 21.472C165.995 20.744 166.126 20.1 166.387 19.54C166.658 18.98 167.031 18.546 167.507 18.238C167.983 17.93 168.524 17.776 169.131 17.776C169.672 17.776 170.144 17.8927 170.545 18.126C170.946 18.35 171.254 18.672 171.469 19.092V17.944H172.869ZM169.467 23.978C170.102 23.978 170.592 23.7587 170.937 23.32C171.292 22.872 171.469 22.2467 171.469 21.444C171.469 20.632 171.292 20.0067 170.937 19.568C170.592 19.1293 170.097 18.91 169.453 18.91C168.818 18.91 168.319 19.1387 167.955 19.596C167.6 20.044 167.423 20.6693 167.423 21.472C167.423 22.2653 167.6 22.8813 167.955 23.32C168.319 23.7587 168.823 23.978 169.467 23.978ZM178.012 25.098C177.303 25.098 176.682 24.9487 176.15 24.65C175.627 24.3513 175.226 23.9313 174.946 23.39C174.666 22.8393 174.526 22.2 174.526 21.472C174.526 20.744 174.671 20.1 174.96 19.54C175.259 18.98 175.674 18.546 176.206 18.238C176.738 17.93 177.359 17.776 178.068 17.776C178.563 17.776 179.039 17.86 179.496 18.028C179.953 18.1867 180.322 18.406 180.602 18.686L180.168 19.708C179.505 19.1853 178.838 18.924 178.166 18.924C177.485 18.924 176.953 19.148 176.57 19.596C176.187 20.0347 175.996 20.6553 175.996 21.458C175.996 22.2607 176.187 22.8813 176.57 23.32C176.953 23.7493 177.485 23.964 178.166 23.964C178.857 23.964 179.524 23.7027 180.168 23.18L180.602 24.202C180.303 24.482 179.921 24.7013 179.454 24.86C178.997 25.0187 178.516 25.098 178.012 25.098ZM186.706 25L183.332 21.668V25H181.932V14.696H183.332V21.136L186.468 17.958H188.218L184.844 21.346L188.512 25H186.706ZM195.715 17.944V25H194.315V23.796C194.109 24.216 193.801 24.538 193.391 24.762C192.989 24.986 192.518 25.098 191.977 25.098C191.351 25.098 190.801 24.9487 190.325 24.65C189.858 24.3513 189.494 23.9313 189.233 23.39C188.971 22.8393 188.841 22.2 188.841 21.472C188.841 20.744 188.971 20.1 189.233 19.54C189.503 18.98 189.877 18.546 190.353 18.238C190.829 17.93 191.37 17.776 191.977 17.776C192.518 17.776 192.989 17.8927 193.391 18.126C193.792 18.35 194.1 18.672 194.315 19.092V17.944H195.715ZM192.313 23.978C192.947 23.978 193.437 23.7587 193.783 23.32C194.137 22.872 194.315 22.2467 194.315 21.444C194.315 20.632 194.137 20.0067 193.783 19.568C193.437 19.1293 192.943 18.91 192.299 18.91C191.664 18.91 191.165 19.1387 190.801 19.596C190.446 20.044 190.269 20.6693 190.269 21.472C190.269 22.2653 190.446 22.8813 190.801 23.32C191.165 23.7587 191.669 23.978 192.313 23.978ZM204.302 17.944V24.874C204.302 25.9473 204.017 26.7547 203.448 27.296C202.888 27.8467 202.053 28.122 200.942 28.122C199.869 28.122 198.931 27.8887 198.128 27.422L198.366 26.316C198.805 26.5493 199.225 26.722 199.626 26.834C200.037 26.946 200.471 27.002 200.928 27.002C202.244 27.002 202.902 26.33 202.902 24.986V23.46C202.687 23.8707 202.375 24.1973 201.964 24.44C201.553 24.6733 201.077 24.79 200.536 24.79C199.92 24.79 199.369 24.6453 198.884 24.356C198.408 24.0667 198.035 23.656 197.764 23.124C197.503 22.592 197.372 21.9807 197.372 21.29C197.372 20.5993 197.503 19.988 197.764 19.456C198.035 18.924 198.408 18.5133 198.884 18.224C199.369 17.9253 199.92 17.776 200.536 17.776C201.077 17.776 201.553 17.8927 201.964 18.126C202.375 18.35 202.687 18.672 202.902 19.092V17.944H204.302ZM200.858 23.656C201.493 23.656 201.992 23.446 202.356 23.026C202.72 22.606 202.902 22.0273 202.902 21.29C202.902 20.5527 202.72 19.974 202.356 19.554C202.001 19.1247 201.502 18.91 200.858 18.91C200.223 18.91 199.719 19.1247 199.346 19.554C198.982 19.974 198.8 20.5527 198.8 21.29C198.8 22.018 198.982 22.5967 199.346 23.026C199.719 23.446 200.223 23.656 200.858 23.656ZM212.398 21.5H207.358C207.404 23.152 208.156 23.978 209.612 23.978C210.424 23.978 211.166 23.712 211.838 23.18L212.272 24.188C211.954 24.468 211.548 24.692 211.054 24.86C210.568 25.0187 210.078 25.098 209.584 25.098C208.454 25.098 207.568 24.776 206.924 24.132C206.28 23.4787 205.958 22.5873 205.958 21.458C205.958 20.7393 206.098 20.1 206.378 19.54C206.667 18.98 207.068 18.546 207.582 18.238C208.095 17.93 208.678 17.776 209.332 17.776C210.284 17.776 211.03 18.084 211.572 18.7C212.122 19.316 212.398 20.17 212.398 21.262V21.5ZM209.36 18.826C208.828 18.826 208.394 18.9847 208.058 19.302C207.722 19.6193 207.507 20.072 207.414 20.66H211.152C211.096 20.0627 210.914 19.61 210.606 19.302C210.298 18.9847 209.882 18.826 209.36 18.826Z" fill="white"/>
<path d="M51.028 19.862C51.6067 20.0207 52.0547 20.31 52.372 20.73C52.6893 21.15 52.848 21.668 52.848 22.284C52.848 23.1427 52.5493 23.81 51.952 24.286C51.364 24.762 50.538 25 49.474 25H45.162V15.032H49.334C50.3607 15.032 51.1587 15.2607 51.728 15.718C52.3067 16.1753 52.596 16.8147 52.596 17.636C52.596 18.168 52.456 18.63 52.176 19.022C51.9053 19.4047 51.5227 19.6847 51.028 19.862ZM46.59 19.358H49.11C50.5007 19.358 51.196 18.8213 51.196 17.748C51.196 16.712 50.5007 16.194 49.11 16.194H46.59V19.358ZM49.334 23.838C50.062 23.838 50.594 23.7073 50.93 23.446C51.266 23.1753 51.434 22.76 51.434 22.2C51.434 21.6307 51.2613 21.2107 50.916 20.94C50.58 20.66 50.0527 20.52 49.334 20.52H46.59V23.838H49.334ZM57.658 25.098C56.9673 25.098 56.3607 24.9487 55.838 24.65C55.3153 24.3513 54.9093 23.9267 54.62 23.376C54.34 22.8253 54.2 22.1813 54.2 21.444C54.2 20.7067 54.34 20.0627 54.62 19.512C54.9093 18.952 55.3153 18.5227 55.838 18.224C56.3607 17.9253 56.9673 17.776 57.658 17.776C58.3393 17.776 58.9413 17.9253 59.464 18.224C59.9867 18.5227 60.388 18.952 60.668 19.512C60.9573 20.0627 61.102 20.7067 61.102 21.444C61.102 22.1813 60.9573 22.8253 60.668 23.376C60.388 23.9267 59.9867 24.3513 59.464 24.65C58.9413 24.9487 58.3393 25.098 57.658 25.098ZM57.644 23.978C58.2973 23.978 58.7967 23.7633 59.142 23.334C59.4873 22.9047 59.66 22.2747 59.66 21.444C59.66 20.632 59.4827 20.0067 59.128 19.568C58.7827 19.1293 58.2927 18.91 57.658 18.91C57.014 18.91 56.5147 19.1293 56.16 19.568C55.8053 20.0067 55.628 20.632 55.628 21.444C55.628 22.2747 55.8007 22.9047 56.146 23.334C56.5007 23.7633 57 23.978 57.644 23.978ZM65.7928 25.098C65.1021 25.098 64.4954 24.9487 63.9728 24.65C63.4501 24.3513 63.0441 23.9267 62.7548 23.376C62.4748 22.8253 62.3348 22.1813 62.3348 21.444C62.3348 20.7067 62.4748 20.0627 62.7548 19.512C63.0441 18.952 63.4501 18.5227 63.9728 18.224C64.4954 17.9253 65.1021 17.776 65.7928 17.776C66.4741 17.776 67.0761 17.9253 67.5988 18.224C68.1214 18.5227 68.5228 18.952 68.8028 19.512C69.0921 20.0627 69.2368 20.7067 69.2368 21.444C69.2368 22.1813 69.0921 22.8253 68.8028 23.376C68.5228 23.9267 68.1214 24.3513 67.5988 24.65C67.0761 24.9487 66.4741 25.098 65.7928 25.098ZM65.7788 23.978C66.4321 23.978 66.9314 23.7633 67.2768 23.334C67.6221 22.9047 67.7948 22.2747 67.7948 21.444C67.7948 20.632 67.6174 20.0067 67.2628 19.568C66.9174 19.1293 66.4274 18.91 65.7928 18.91C65.1488 18.91 64.6494 19.1293 64.2948 19.568C63.9401 20.0067 63.7628 20.632 63.7628 21.444C63.7628 22.2747 63.9354 22.9047 64.2808 23.334C64.6354 23.7633 65.1348 23.978 65.7788 23.978ZM75.6635 25L72.2895 21.668V25H70.8895V14.696H72.2895V21.136L75.4255 17.958H77.1755L73.8015 21.346L77.4695 25H75.6635ZM78.327 17.944H79.727V25H78.327V17.944ZM79.839 14.864V16.348H78.201V14.864H79.839ZM85.5517 17.776C87.241 17.776 88.0857 18.7187 88.0857 20.604V25H86.6717V20.688C86.6717 20.072 86.5503 19.624 86.3077 19.344C86.0743 19.064 85.6963 18.924 85.1737 18.924C84.5763 18.924 84.0957 19.1107 83.7317 19.484C83.377 19.8573 83.1997 20.3567 83.1997 20.982V25H81.7997V19.932C81.7997 19.1947 81.7623 18.532 81.6877 17.944H83.0037L83.1297 19.162C83.3537 18.714 83.6757 18.3733 84.0957 18.14C84.525 17.8973 85.0103 17.776 85.5517 17.776ZM96.6085 17.944V24.874C96.6085 25.9473 96.3238 26.7547 95.7545 27.296C95.1945 27.8467 94.3592 28.122 93.2485 28.122C92.1752 28.122 91.2372 27.8887 90.4345 27.422L90.6725 26.316C91.1112 26.5493 91.5312 26.722 91.9325 26.834C92.3432 26.946 92.7772 27.002 93.2345 27.002C94.5505 27.002 95.2085 26.33 95.2085 24.986V23.46C94.9938 23.8707 94.6812 24.1973 94.2705 24.44C93.8598 24.6733 93.3838 24.79 92.8425 24.79C92.2265 24.79 91.6758 24.6453 91.1905 24.356C90.7145 24.0667 90.3412 23.656 90.0705 23.124C89.8092 22.592 89.6785 21.9807 89.6785 21.29C89.6785 20.5993 89.8092 19.988 90.0705 19.456C90.3412 18.924 90.7145 18.5133 91.1905 18.224C91.6758 17.9253 92.2265 17.776 92.8425 17.776C93.3838 17.776 93.8598 17.8927 94.2705 18.126C94.6812 18.35 94.9938 18.672 95.2085 19.092V17.944H96.6085ZM93.1645 23.656C93.7992 23.656 94.2985 23.446 94.6625 23.026C95.0265 22.606 95.2085 22.0273 95.2085 21.29C95.2085 20.5527 95.0265 19.974 94.6625 19.554C94.3078 19.1247 93.8085 18.91 93.1645 18.91C92.5298 18.91 92.0258 19.1247 91.6525 19.554C91.2885 19.974 91.1065 20.5527 91.1065 21.29C91.1065 22.018 91.2885 22.5967 91.6525 23.026C92.0258 23.446 92.5298 23.656 93.1645 23.656ZM104.251 19.036V22.578C104.251 23.0633 104.354 23.4087 104.559 23.614C104.774 23.81 105.068 23.908 105.441 23.908C105.684 23.908 105.931 23.8707 106.183 23.796V24.944C105.875 25.0467 105.525 25.098 105.133 25.098C104.405 25.098 103.84 24.8927 103.439 24.482C103.038 24.0713 102.837 23.474 102.837 22.69V19.036H101.465V17.944H102.837V16.18L104.251 15.69V17.944H106.197V19.036H104.251ZM111.255 17.776C112.944 17.776 113.789 18.7187 113.789 20.604V25H112.375V20.688C112.375 20.072 112.253 19.624 112.011 19.344C111.777 19.064 111.399 18.924 110.877 18.924C110.279 18.924 109.799 19.1107 109.435 19.484C109.08 19.8573 108.903 20.3567 108.903 20.982V25H107.503V14.696H108.903V19.036C109.136 18.6253 109.458 18.3127 109.869 18.098C110.279 17.8833 110.741 17.776 111.255 17.776ZM119.316 17.776C119.53 17.776 119.754 17.8087 119.988 17.874L119.96 19.162C119.708 19.0687 119.432 19.022 119.134 19.022C118.49 19.022 118.004 19.218 117.678 19.61C117.36 19.9927 117.202 20.478 117.202 21.066V25H115.802V19.932C115.802 19.1947 115.764 18.532 115.69 17.944H117.006L117.132 19.218C117.318 18.7513 117.608 18.3967 118 18.154C118.392 17.902 118.83 17.776 119.316 17.776ZM123.967 25.098C123.276 25.098 122.669 24.9487 122.147 24.65C121.624 24.3513 121.218 23.9267 120.929 23.376C120.649 22.8253 120.509 22.1813 120.509 21.444C120.509 20.7067 120.649 20.0627 120.929 19.512C121.218 18.952 121.624 18.5227 122.147 18.224C122.669 17.9253 123.276 17.776 123.967 17.776C124.648 17.776 125.25 17.9253 125.773 18.224C126.295 18.5227 126.697 18.952 126.977 19.512C127.266 20.0627 127.411 20.7067 127.411 21.444C127.411 22.1813 127.266 22.8253 126.977 23.376C126.697 23.9267 126.295 24.3513 125.773 24.65C125.25 24.9487 124.648 25.098 123.967 25.098ZM123.953 23.978C124.606 23.978 125.105 23.7633 125.451 23.334C125.796 22.9047 125.969 22.2747 125.969 21.444C125.969 20.632 125.791 20.0067 125.437 19.568C125.091 19.1293 124.601 18.91 123.967 18.91C123.323 18.91 122.823 19.1293 122.469 19.568C122.114 20.0067 121.937 20.632 121.937 21.444C121.937 22.2747 122.109 22.9047 122.455 23.334C122.809 23.7633 123.309 23.978 123.953 23.978ZM135.195 17.944V25H133.823V23.824C133.599 24.2347 133.291 24.552 132.899 24.776C132.507 24.9907 132.064 25.098 131.569 25.098C129.871 25.098 129.021 24.1553 129.021 22.27V17.944H130.421V22.256C130.421 22.8347 130.538 23.264 130.771 23.544C131.014 23.8147 131.378 23.95 131.863 23.95C132.442 23.95 132.904 23.7633 133.249 23.39C133.604 23.0167 133.781 22.522 133.781 21.906V17.944H135.195ZM143.776 17.944V24.874C143.776 25.9473 143.492 26.7547 142.922 27.296C142.362 27.8467 141.527 28.122 140.416 28.122C139.343 28.122 138.405 27.8887 137.602 27.422L137.84 26.316C138.279 26.5493 138.699 26.722 139.1 26.834C139.511 26.946 139.945 27.002 140.402 27.002C141.718 27.002 142.376 26.33 142.376 24.986V23.46C142.162 23.8707 141.849 24.1973 141.438 24.44C141.028 24.6733 140.552 24.79 140.01 24.79C139.394 24.79 138.844 24.6453 138.358 24.356C137.882 24.0667 137.509 23.656 137.238 23.124C136.977 22.592 136.846 21.9807 136.846 21.29C136.846 20.5993 136.977 19.988 137.238 19.456C137.509 18.924 137.882 18.5133 138.358 18.224C138.844 17.9253 139.394 17.776 140.01 17.776C140.552 17.776 141.028 17.8927 141.438 18.126C141.849 18.35 142.162 18.672 142.376 19.092V17.944H143.776ZM140.332 23.656C140.967 23.656 141.466 23.446 141.83 23.026C142.194 22.606 142.376 22.0273 142.376 21.29C142.376 20.5527 142.194 19.974 141.83 19.554C141.476 19.1247 140.976 18.91 140.332 18.91C139.698 18.91 139.194 19.1247 138.82 19.554C138.456 19.974 138.274 20.5527 138.274 21.29C138.274 22.018 138.456 22.5967 138.82 23.026C139.194 23.446 139.698 23.656 140.332 23.656ZM149.604 17.776C151.294 17.776 152.138 18.7187 152.138 20.604V25H150.724V20.688C150.724 20.072 150.603 19.624 150.36 19.344C150.127 19.064 149.749 18.924 149.226 18.924C148.629 18.924 148.148 19.1107 147.784 19.484C147.43 19.8573 147.252 20.3567 147.252 20.982V25H145.852V14.696H147.252V19.036C147.486 18.6253 147.808 18.3127 148.218 18.098C148.629 17.8833 149.091 17.776 149.604 17.776ZM161.622 17.776C162.228 17.776 162.77 17.93 163.246 18.238C163.722 18.546 164.09 18.98 164.352 19.54C164.622 20.1 164.758 20.744 164.758 21.472C164.758 22.2 164.627 22.8393 164.366 23.39C164.104 23.9313 163.736 24.3513 163.26 24.65C162.784 24.9487 162.238 25.098 161.622 25.098C161.08 25.098 160.604 24.986 160.194 24.762C159.792 24.5287 159.489 24.1973 159.284 23.768V28.024H157.884V19.932C157.884 19.1947 157.846 18.532 157.772 17.944H159.088L159.228 19.246C159.414 18.7793 159.718 18.42 160.138 18.168C160.558 17.9067 161.052 17.776 161.622 17.776ZM161.3 23.978C161.934 23.978 162.429 23.7587 162.784 23.32C163.138 22.8813 163.316 22.2653 163.316 21.472C163.316 20.6693 163.138 20.044 162.784 19.596C162.429 19.1387 161.934 18.91 161.3 18.91C160.646 18.91 160.147 19.1293 159.802 19.568C159.456 20.0067 159.284 20.632 159.284 21.444C159.284 22.256 159.456 22.8813 159.802 23.32C160.156 23.7587 160.656 23.978 161.3 23.978ZM172.869 17.944V25H171.469V23.796C171.264 24.216 170.956 24.538 170.545 24.762C170.144 24.986 169.672 25.098 169.131 25.098C168.506 25.098 167.955 24.9487 167.479 24.65C167.012 24.3513 166.648 23.9313 166.387 23.39C166.126 22.8393 165.995 22.2 165.995 21.472C165.995 20.744 166.126 20.1 166.387 19.54C166.658 18.98 167.031 18.546 167.507 18.238C167.983 17.93 168.524 17.776 169.131 17.776C169.672 17.776 170.144 17.8927 170.545 18.126C170.946 18.35 171.254 18.672 171.469 19.092V17.944H172.869ZM169.467 23.978C170.102 23.978 170.592 23.7587 170.937 23.32C171.292 22.872 171.469 22.2467 171.469 21.444C171.469 20.632 171.292 20.0067 170.937 19.568C170.592 19.1293 170.097 18.91 169.453 18.91C168.818 18.91 168.319 19.1387 167.955 19.596C167.6 20.044 167.423 20.6693 167.423 21.472C167.423 22.2653 167.6 22.8813 167.955 23.32C168.319 23.7587 168.823 23.978 169.467 23.978ZM178.012 25.098C177.303 25.098 176.682 24.9487 176.15 24.65C175.627 24.3513 175.226 23.9313 174.946 23.39C174.666 22.8393 174.526 22.2 174.526 21.472C174.526 20.744 174.671 20.1 174.96 19.54C175.259 18.98 175.674 18.546 176.206 18.238C176.738 17.93 177.359 17.776 178.068 17.776C178.563 17.776 179.039 17.86 179.496 18.028C179.953 18.1867 180.322 18.406 180.602 18.686L180.168 19.708C179.505 19.1853 178.838 18.924 178.166 18.924C177.485 18.924 176.953 19.148 176.57 19.596C176.187 20.0347 175.996 20.6553 175.996 21.458C175.996 22.2607 176.187 22.8813 176.57 23.32C176.953 23.7493 177.485 23.964 178.166 23.964C178.857 23.964 179.524 23.7027 180.168 23.18L180.602 24.202C180.303 24.482 179.921 24.7013 179.454 24.86C178.997 25.0187 178.516 25.098 178.012 25.098ZM186.706 25L183.332 21.668V25H181.932V14.696H183.332V21.136L186.468 17.958H188.218L184.844 21.346L188.512 25H186.706ZM195.715 17.944V25H194.315V23.796C194.109 24.216 193.801 24.538 193.391 24.762C192.989 24.986 192.518 25.098 191.977 25.098C191.351 25.098 190.801 24.9487 190.325 24.65C189.858 24.3513 189.494 23.9313 189.233 23.39C188.971 22.8393 188.841 22.2 188.841 21.472C188.841 20.744 188.971 20.1 189.233 19.54C189.503 18.98 189.877 18.546 190.353 18.238C190.829 17.93 191.37 17.776 191.977 17.776C192.518 17.776 192.989 17.8927 193.391 18.126C193.792 18.35 194.1 18.672 194.315 19.092V17.944H195.715ZM192.313 23.978C192.947 23.978 193.437 23.7587 193.783 23.32C194.137 22.872 194.315 22.2467 194.315 21.444C194.315 20.632 194.137 20.0067 193.783 19.568C193.437 19.1293 192.943 18.91 192.299 18.91C191.664 18.91 191.165 19.1387 190.801 19.596C190.446 20.044 190.269 20.6693 190.269 21.472C190.269 22.2653 190.446 22.8813 190.801 23.32C191.165 23.7587 191.669 23.978 192.313 23.978ZM204.302 17.944V24.874C204.302 25.9473 204.017 26.7547 203.448 27.296C202.888 27.8467 202.053 28.122 200.942 28.122C199.869 28.122 198.931 27.8887 198.128 27.422L198.366 26.316C198.805 26.5493 199.225 26.722 199.626 26.834C200.037 26.946 200.471 27.002 200.928 27.002C202.244 27.002 202.902 26.33 202.902 24.986V23.46C202.687 23.8707 202.375 24.1973 201.964 24.44C201.553 24.6733 201.077 24.79 200.536 24.79C199.92 24.79 199.369 24.6453 198.884 24.356C198.408 24.0667 198.035 23.656 197.764 23.124C197.503 22.592 197.372 21.9807 197.372 21.29C197.372 20.5993 197.503 19.988 197.764 19.456C198.035 18.924 198.408 18.5133 198.884 18.224C199.369 17.9253 199.92 17.776 200.536 17.776C201.077 17.776 201.553 17.8927 201.964 18.126C202.375 18.35 202.687 18.672 202.902 19.092V17.944H204.302ZM200.858 23.656C201.493 23.656 201.992 23.446 202.356 23.026C202.72 22.606 202.902 22.0273 202.902 21.29C202.902 20.5527 202.72 19.974 202.356 19.554C202.001 19.1247 201.502 18.91 200.858 18.91C200.223 18.91 199.719 19.1247 199.346 19.554C198.982 19.974 198.8 20.5527 198.8 21.29C198.8 22.018 198.982 22.5967 199.346 23.026C199.719 23.446 200.223 23.656 200.858 23.656ZM212.398 21.5H207.358C207.404 23.152 208.156 23.978 209.612 23.978C210.424 23.978 211.166 23.712 211.838 23.18L212.272 24.188C211.954 24.468 211.548 24.692 211.054 24.86C210.568 25.0187 210.078 25.098 209.584 25.098C208.454 25.098 207.568 24.776 206.924 24.132C206.28 23.4787 205.958 22.5873 205.958 21.458C205.958 20.7393 206.098 20.1 206.378 19.54C206.667 18.98 207.068 18.546 207.582 18.238C208.095 17.93 208.678 17.776 209.332 17.776C210.284 17.776 211.03 18.084 211.572 18.7C212.122 19.316 212.398 20.17 212.398 21.262V21.5ZM209.36 18.826C208.828 18.826 208.394 18.9847 208.058 19.302C207.722 19.6193 207.507 20.072 207.414 20.66H211.152C211.096 20.0627 210.914 19.61 210.606 19.302C210.298 18.9847 209.882 18.826 209.36 18.826Z" fill="url(#paint1_linear)"/>
<defs>
<linearGradient id="paint0_linear" x1="32" y1="32" x2="11.1011" y2="5.54978" gradientUnits="userSpaceOnUse">
<stop stop-color="#FF6188"/>
<stop offset="1" stop-color="#FFB199"/>
</linearGradient>
<linearGradient id="paint1_linear" x1="213" y1="29" x2="210.307" y2="-2.99563" gradientUnits="userSpaceOnUse">
<stop stop-color="#FF6188"/>
<stop offset="1" stop-color="#FFB199"/>
</linearGradient>
</defs>
</svg>
