<svg width="21" height="20" viewBox="0 0 21 20" fill="none" xmlns="http://www.w3.org/2000/svg">
<path d="M7.38971 0.169922V6.61993H0.929688V5.93994C0.929688 2.32994 3.0797 0.179932 6.6897 0.179932H7.38971V0.169922Z" fill="#9393AA"/>
<path d="M20.7698 5.93018C20.7698 6.31018 20.4598 6.61017 20.0898 6.61017H14.3398V0.160156H15.0099C18.1899 0.170156 20.7698 2.75018 20.7698 5.93018Z" fill="#9393AA"/>
<path d="M7.38947 13.5503V19.3103C7.38947 19.6903 7.07944 19.9903 6.70944 19.9903H6.69946C3.51946 19.9903 0.939453 17.4103 0.939453 14.2303V13.5503H7.38947Z" fill="#9393AA"/>
<path opacity="0.4" d="M7.39944 6.61035H0.939453V13.5504H7.39944V6.61035Z" fill="#9393AA"/>
<path d="M14.3296 6.61035V12.5504C14.3296 13.1004 13.8796 13.5504 13.3296 13.5504H7.38965V6.61035H14.3296Z" fill="#9393AA"/>
<path opacity="0.4" d="M14.3296 0.169922H7.38965V6.61993H14.3296V0.169922Z" fill="#9393AA"/>
</svg>
