<svg width="24" height="24" viewBox="0 0 24 24" fill="none" xmlns="http://www.w3.org/2000/svg">
<path opacity="0.4" d="M22 9.20986V14.7899C22 18.8899 20.75 20.1399 16.65 20.1399H9.90996V17.1199C9.90996 16.7399 9.58996 16.4199 9.20996 16.4199V7.57986C9.58996 7.57986 9.90996 7.25986 9.90996 6.87986V3.85986H16.65C20.75 3.85986 22 5.10986 22 9.20986Z" fill="#9393AA"/>
<path d="M18.4702 11.9001C18.6402 11.7401 18.7002 11.4901 18.6302 11.2701C18.5602 11.0401 18.3702 10.8801 18.1302 10.8501L16.8502 10.6601C16.8002 10.6501 16.7602 10.6201 16.7402 10.5801L16.1702 9.42008C16.0702 9.21008 15.8502 9.08008 15.6202 9.08008C15.3802 9.08008 15.1702 9.21008 15.0602 9.42008L14.4902 10.5801C14.4702 10.6301 14.4202 10.6601 14.3702 10.6601L13.0902 10.8501C12.8602 10.8801 12.6602 11.0501 12.5902 11.2701C12.5202 11.5001 12.5802 11.7401 12.7502 11.9001L13.6802 12.8001C13.7202 12.8301 13.7302 12.8901 13.7202 12.9401L13.5002 14.2101C13.4602 14.4401 13.5502 14.6801 13.7502 14.8101C13.8602 14.8901 13.9802 14.9301 14.1102 14.9301C14.2102 14.9301 14.3102 14.9101 14.4002 14.8601L15.5502 14.2601C15.5902 14.2401 15.6502 14.2401 15.6902 14.2601L16.8402 14.8601C17.0502 14.9701 17.3002 14.9501 17.4902 14.8101C17.6802 14.6701 17.7802 14.4401 17.7402 14.2001L17.5202 12.9301C17.5102 12.8801 17.5302 12.8301 17.5602 12.7901L18.4702 11.9001Z" fill="#9393AA"/>
<path d="M9.20963 7.57986V16.4199C8.82963 16.4199 8.50963 16.7399 8.50963 17.1199V20.1399H7.34963C3.39963 20.1399 2.09963 18.9599 2.00963 15.2799C1.99963 15.0899 2.07963 14.9099 2.20963 14.7799C2.33963 14.6399 2.52963 14.5699 2.70963 14.5699C4.10963 14.5699 5.25963 13.4199 5.25963 12.0099C5.25963 10.5999 4.10963 9.43986 2.70963 9.43986C2.50963 9.43986 2.33963 9.36986 2.20963 9.22986C2.07963 9.09986 1.99963 8.90986 2.00963 8.72986C2.09963 5.03986 3.39963 3.85986 7.34963 3.85986H8.50963V6.87986C8.50963 7.26986 8.82963 7.57986 9.20963 7.57986Z" fill="#9393AA"/>
</svg>
