<svg width="14" height="12" viewBox="0 0 14 12" fill="none" xmlns="http://www.w3.org/2000/svg">
<path d="M13.0993 2.11317C12.826 1.9665 12.2527 1.81317 11.4727 2.35984L10.4927 3.05317C10.4193 0.979837 9.51935 0.166504 7.33268 0.166504H3.33268C1.05268 0.166504 0.166016 1.05317 0.166016 3.33317V8.6665C0.166016 10.1998 0.999349 11.8332 3.33268 11.8332H7.33268C9.51935 11.8332 10.4193 11.0198 10.4927 8.9465L11.4727 9.63984C11.886 9.93317 12.246 10.0265 12.5327 10.0265C12.7793 10.0265 12.9727 9.95317 13.0993 9.8865C13.3727 9.7465 13.8327 9.3665 13.8327 8.41317V3.5865C13.8327 2.63317 13.3727 2.25317 13.0993 2.11317ZM6.33268 5.5865C5.64602 5.5865 5.07935 5.0265 5.07935 4.33317C5.07935 3.63984 5.64602 3.07984 6.33268 3.07984C7.01935 3.07984 7.58602 3.63984 7.58602 4.33317C7.58602 5.0265 7.01935 5.5865 6.33268 5.5865Z" fill="#292D32"/>
</svg>
