<svg width="24" height="24" viewBox="0 0 24 24" fill="none" xmlns="http://www.w3.org/2000/svg">
<rect opacity="0.01" width="24" height="24" fill="black"/>
<path fill-rule="evenodd" clip-rule="evenodd" d="M12 2C6.47725 2 2 6.47705 2 12C2 17.523 6.47725 22 12 22C17.5229 22 22 17.523 22 12C22 6.47705 17.5229 2 12 2Z" fill="#FF6924"/>
<path fill-rule="evenodd" clip-rule="evenodd" d="M17.7074 9.39233L11.2517 15.8483L11.2515 15.8486C10.9539 16.1462 10.5 16.1926 10.1536 15.9881C10.0893 15.9502 10.0289 15.9035 9.97378 15.8486C9.97367 15.8485 9.97367 15.8485 9.97367 15.8485L6.25664 12.1315C5.90404 11.7786 5.90404 11.2067 6.25664 10.8537C6.6095 10.5008 7.18159 10.5008 7.53445 10.8537L10.6126 13.9319L16.4299 8.11466C16.7826 7.76191 17.3548 7.76191 17.7076 8.11466C18.0603 8.46763 18.0603 9.03958 17.7074 9.39233Z" fill="white"/>
</svg>
