<svg width="30" height="30" viewBox="0 0 30 30" fill="none" xmlns="http://www.w3.org/2000/svg">
<path d="M21.4716 9.79076C21.386 9.77852 21.3003 9.77852 21.2146 9.79076C19.3175 9.72956 17.812 8.17513 17.812 6.26576C17.812 4.31966 19.3909 2.72852 21.3493 2.72852C23.2953 2.72852 24.8865 4.30742 24.8865 6.26576C24.8742 8.17513 23.3688 9.72956 21.4716 9.79076Z" fill="#FF6924"/>
<path d="M25.4618 18.2728C24.0909 19.1908 22.1693 19.5335 20.3946 19.301C20.8597 18.2973 21.1045 17.1835 21.1167 16.0085C21.1167 14.7846 20.8474 13.6218 20.3334 12.6059C22.1448 12.3611 24.0664 12.7038 25.4495 13.6218C27.3834 14.8947 27.3834 16.9877 25.4618 18.2728Z" fill="#FF6924"/>
<path d="M7.8979 9.79076C7.98358 9.77852 8.06926 9.77852 8.15494 9.79076C10.0521 9.72956 11.5575 8.17513 11.5575 6.26576C11.5575 4.30742 9.97863 2.72852 8.0203 2.72852C6.07421 2.72852 4.4953 4.30742 4.4953 6.26576C4.4953 8.17513 6.00077 9.72956 7.8979 9.79076Z" fill="#FF6924"/>
<path d="M8.03259 16.0087C8.03259 17.196 8.28962 18.322 8.75472 19.3379C7.02894 19.5215 5.22972 19.1543 3.90785 18.2853C1.97399 17.0001 1.97399 14.9072 3.90785 13.622C5.21748 12.7408 7.06566 12.3858 8.80368 12.5817C8.30186 13.6098 8.03259 14.7725 8.03259 16.0087Z" fill="#FF6924"/>
<path d="M14.85 19.7055C14.7521 19.6932 14.6419 19.6932 14.5318 19.7055C12.2797 19.632 10.4805 17.7839 10.4805 15.5073C10.4927 13.1818 12.3654 11.2969 14.7031 11.2969C17.0286 11.2969 18.9135 13.1818 18.9135 15.5073C18.9013 17.7839 17.1143 19.632 14.85 19.7055Z" fill="#FF6924"/>
<path d="M10.8721 22.2393C9.02392 23.4755 9.02392 25.5072 10.8721 26.7312C12.9773 28.1387 16.4289 28.1387 18.5341 26.7312C20.3823 25.495 20.3823 23.4632 18.5341 22.2393C16.4411 20.8317 12.9895 20.8317 10.8721 22.2393Z" fill="#FF6924"/>
</svg>
