<svg width="29" height="16" viewBox="0 0 29 16" fill="none" xmlns="http://www.w3.org/2000/svg">
<path d="M2.79515 3.174C2.67515 3.258 2.23715 3.396 1.48115 3.588C0.869148 3.768 0.557148 3.864 0.545148 3.876V2.022C1.02515 1.854 1.54715 1.626 2.11115 1.338C2.68715 1.038 3.10715 0.731999 3.37115 0.419999H5.29715V15H2.79515V3.174ZM11.608 15.216C10.228 15.216 9.26798 14.85 8.72798 14.118C8.19998 13.374 7.93598 12.276 7.93598 10.824H10.366C10.366 11.652 10.456 12.276 10.636 12.696C10.816 13.116 11.17 13.326 11.698 13.326C12.094 13.326 12.388 13.2 12.58 12.948C12.772 12.684 12.892 12.336 12.94 11.904C13 11.46 13.03 10.848 13.03 10.068C13.03 9.108 12.94 8.4 12.76 7.944C12.58 7.488 12.208 7.26 11.644 7.26C11.308 7.26 11.02 7.374 10.78 7.602C10.552 7.83 10.384 8.142 10.276 8.538H8.13398L8.27798 0.419999H14.83V2.652H10.366L10.222 6.162C10.426 5.934 10.72 5.754 11.104 5.622C11.488 5.478 11.908 5.406 12.364 5.406C13.396 5.406 14.158 5.802 14.65 6.594C15.154 7.374 15.406 8.478 15.406 9.906C15.406 11.022 15.298 11.964 15.082 12.732C14.878 13.5 14.5 14.106 13.948 14.55C13.396 14.994 12.616 15.216 11.608 15.216ZM16.9389 4.596H19.2969V5.514C19.9929 4.782 20.8089 4.416 21.7449 4.416C22.1649 4.416 22.5249 4.524 22.8249 4.74C23.1249 4.944 23.3469 5.256 23.4909 5.676C24.2109 4.836 25.0869 4.416 26.1189 4.416C26.6949 4.416 27.1569 4.626 27.5049 5.046C27.8649 5.466 28.0449 6.072 28.0449 6.864V15H25.7049V7.098C25.7049 6.714 25.6389 6.444 25.5069 6.288C25.3869 6.132 25.2009 6.054 24.9489 6.054C24.7569 6.054 24.5409 6.108 24.3009 6.216C24.0729 6.324 23.8629 6.474 23.6709 6.666V6.864V15H21.3489V7.098C21.3489 6.714 21.2829 6.444 21.1509 6.288C21.0189 6.132 20.8269 6.054 20.5749 6.054C20.3829 6.054 20.1729 6.108 19.9449 6.216C19.7169 6.324 19.5009 6.474 19.2969 6.666V15H16.9389V4.596Z" fill="#9393AA"/>
</svg>
