<svg width="21" height="18" viewBox="0 0 21 18" fill="none" xmlns="http://www.w3.org/2000/svg">
<path fill-rule="evenodd" clip-rule="evenodd" d="M10.0025 4.68324V1.002C10.0025 0.1111 11.0796 -0.335067 11.7096 0.294898L19.7096 7.2949C20.1024 7.68774 20.0997 8.3255 19.7036 8.71503L11.7036 15.5817C11.0712 16.2035 10.0025 15.7555 10.0025 14.8687V12.2411C4.93435 12.438 4.32934 13.1655 1.8081 16.5944C1.17244 17.4589 -0.193388 16.8514 0.0229956 15.8004C1.43679 8.93334 2.78432 6.00211 10.0025 4.68324ZM12.0025 3.41622V5.53534C12.0025 6.03451 11.6343 6.45723 11.1399 6.52585C5.80816 7.26576 5.19029 8.09114 3.23652 12.3191C6.03497 10.2281 6.59404 10.222 11.0025 10.222C11.5547 10.222 12.0025 10.6697 12.0025 11.222V12.4829L17.5823 7.99604L12.0025 3.41622Z" fill="white"/>
</svg>
