<svg width="34" height="34" viewBox="0 0 34 34" fill="none" xmlns="http://www.w3.org/2000/svg">
<path d="M17 0C7.633 0 0 7.633 0 17C0 26.367 7.633 34 17 34C26.367 34 34 26.367 34 17C34 7.633 26.367 0 17 0ZM15.725 10.2C15.725 9.503 16.303 8.925 17 8.925C17.697 8.925 18.275 9.503 18.275 10.2V18.7C18.275 19.397 17.697 19.975 17 19.975C16.303 19.975 15.725 19.397 15.725 18.7V10.2ZM18.564 24.446C18.479 24.667 18.36 24.837 18.207 25.007C18.037 25.16 17.85 25.279 17.646 25.364C17.442 25.449 17.221 25.5 17 25.5C16.779 25.5 16.558 25.449 16.354 25.364C16.15 25.279 15.963 25.16 15.793 25.007C15.64 24.837 15.521 24.667 15.436 24.446C15.351 24.242 15.3 24.021 15.3 23.8C15.3 23.579 15.351 23.358 15.436 23.154C15.521 22.95 15.64 22.763 15.793 22.593C15.963 22.44 16.15 22.321 16.354 22.236C16.762 22.066 17.238 22.066 17.646 22.236C17.85 22.321 18.037 22.44 18.207 22.593C18.36 22.763 18.479 22.95 18.564 23.154C18.649 23.358 18.7 23.579 18.7 23.8C18.7 24.021 18.649 24.242 18.564 24.446Z" fill="#FF6188"/>
</svg>
