<svg width="28" height="28" viewBox="0 0 28 28" fill="none" xmlns="http://www.w3.org/2000/svg">
<path d="M24.15 9.38517L14.5944 4.66892C14.4096 4.57771 14.2062 4.53027 14 4.53027C13.7938 4.53027 13.5904 4.57771 13.4055 4.66892L3.85 9.38517C3.48367 9.56466 3.17483 9.84301 2.95836 10.1888C2.7419 10.5345 2.62643 10.934 2.625 11.3419V21.4377C2.625 22.6458 3.61703 23.6252 4.84094 23.6252H23.1612C24.3851 23.6252 25.3772 22.6458 25.3772 21.4377V11.3419C25.3756 10.9337 25.2598 10.5342 25.0429 10.1884C24.826 9.84257 24.5167 9.56435 24.15 9.38517V9.38517Z" stroke="#202020" stroke-width="1.5" stroke-linecap="round" stroke-linejoin="round"/>
<path d="M21.7305 20.1244L14.6616 14.6261C14.4312 14.4469 14.1476 14.3496 13.8557 14.3496C13.5639 14.3496 13.2803 14.4469 13.0499 14.6261L5.98047 20.1244" stroke="#202020" stroke-width="1.5" stroke-linecap="round" stroke-linejoin="round"/>
<path d="M16.918 16.1318L24.3555 10.499" stroke="#202020" stroke-width="1.5" stroke-linecap="round" stroke-linejoin="round"/>
<path d="M3.35547 10.499L10.957 16.2412" stroke="#202020" stroke-width="1.5" stroke-linecap="round" stroke-linejoin="round"/>
</svg>
