<svg width="28" height="28" viewBox="0 0 28 28" fill="none" xmlns="http://www.w3.org/2000/svg">
<path d="M14.0235 23.9513C11.3052 23.9513 8.58684 23.5196 6.00851 22.6563C5.02851 22.3179 4.28184 21.6296 3.95517 20.7313C3.61684 19.8329 3.73351 18.8413 4.27017 17.9546L5.61184 15.7263C5.89184 15.2596 6.14851 14.3263 6.14851 13.7779V10.4063C6.14851 6.06625 9.68351 2.53125 14.0235 2.53125C18.3635 2.53125 21.8985 6.06625 21.8985 10.4063V13.7779C21.8985 14.3146 22.1552 15.2596 22.4352 15.7379L23.7652 17.9546C24.2668 18.7946 24.3602 19.8096 24.0218 20.7313C23.6835 21.6529 22.9485 22.3529 22.0268 22.6563C19.4602 23.5196 16.7418 23.9513 14.0235 23.9513ZM14.0235 4.28125C10.6518 4.28125 7.89851 7.02292 7.89851 10.4063V13.7779C7.89851 14.6296 7.54851 15.8896 7.11684 16.6246L5.77517 18.8529C5.51851 19.2846 5.44851 19.7396 5.60017 20.1246C5.74017 20.5213 6.09017 20.8246 6.56851 20.9879C11.4452 22.6213 16.6135 22.6213 21.4902 20.9879C21.9102 20.8479 22.2368 20.5329 22.3885 20.1129C22.5402 19.6929 22.5052 19.2379 22.2718 18.8529L20.9302 16.6246C20.4868 15.8663 20.1485 14.6179 20.1485 13.7663V10.4063C20.1485 7.02292 17.4068 4.28125 14.0235 4.28125Z" fill="#292D32"/>
<path d="M16.1934 4.59598C16.1117 4.59598 16.0301 4.58431 15.9484 4.56098C15.6101 4.46764 15.2834 4.39764 14.9684 4.35098C13.9767 4.22264 13.0201 4.29264 12.1217 4.56098C11.7951 4.66598 11.4451 4.56098 11.2234 4.31598C11.0017 4.07098 10.9317 3.72098 11.0601 3.40598C11.5384 2.18098 12.7051 1.37598 14.0351 1.37598C15.3651 1.37598 16.5317 2.16931 17.0101 3.40598C17.1267 3.72098 17.0684 4.07098 16.8467 4.31598C16.6717 4.50264 16.4267 4.59598 16.1934 4.59598Z" fill="#292D32"/>
<path d="M14.0234 26.6113C12.8684 26.6113 11.7484 26.1447 10.9318 25.328C10.1151 24.5113 9.64844 23.3913 9.64844 22.2363H11.3984C11.3984 22.9247 11.6784 23.6013 12.1684 24.0913C12.6584 24.5813 13.3351 24.8613 14.0234 24.8613C15.4701 24.8613 16.6484 23.683 16.6484 22.2363H18.3984C18.3984 24.6513 16.4384 26.6113 14.0234 26.6113Z" fill="#292D32"/>
</svg>
