<svg width="40" height="40" viewBox="0 0 40 40" fill="none" xmlns="http://www.w3.org/2000/svg">
<path d="M35 19.9995C35 11.7183 28.2812 4.99951 20 4.99951C11.7187 4.99951 5 11.7183 5 19.9995C5 28.2808 11.7187 34.9995 20 34.9995C28.2812 34.9995 35 28.2808 35 19.9995Z" stroke="#9393AA" stroke-width="1.5" stroke-miterlimit="10"/>
<path d="M28.5323 24.4531C27.2565 22.9422 26.3557 22.307 26.3557 18.1406C26.3557 14.3234 24.3417 12.9664 22.6839 12.307C22.5695 12.2593 22.4664 12.1883 22.3811 12.0984C22.2958 12.0085 22.2302 11.9018 22.1885 11.7852C21.8987 10.8281 21.0854 10 20.001 10C18.9167 10 18.1018 10.8281 17.8135 11.7859C17.7721 11.9026 17.7067 12.0094 17.6215 12.0992C17.5364 12.1891 17.4333 12.2602 17.319 12.3078C15.6596 12.9687 13.6471 14.3234 13.6471 18.1414C13.6471 22.3078 12.7456 22.943 11.4698 24.4539C10.9409 25.0789 11.419 26.2508 12.344 26.2508H27.6573C28.5768 26.25 29.0589 25.0781 28.5323 24.4531Z" fill="#9393AA"/>
<path d="M17.2068 27.5015C17.1629 27.5012 17.1193 27.5103 17.0791 27.528C17.0389 27.5457 17.0029 27.5717 16.9734 27.6043C16.9439 27.6369 16.9216 27.6753 16.908 27.7171C16.8943 27.7589 16.8897 27.8031 16.8943 27.8468C17.0701 29.3093 18.3685 30.0015 20.0006 30.0015C21.6154 30.0015 22.9021 29.2866 23.099 27.8515C23.1043 27.8074 23.1002 27.7627 23.0869 27.7203C23.0736 27.678 23.0514 27.639 23.0219 27.6058C22.9923 27.5727 22.956 27.5463 22.9154 27.5283C22.8748 27.5103 22.8309 27.5012 22.7865 27.5015H17.2068Z" fill="#9393AA"/>
</svg>
