<svg width="15" height="16" viewBox="0 0 15 16" fill="none" xmlns="http://www.w3.org/2000/svg">
<path d="M2.93089 3.174C2.81089 3.258 2.37289 3.396 1.61689 3.588C1.00489 3.768 0.692891 3.864 0.680891 3.876V2.022C1.16089 1.854 1.68289 1.626 2.24689 1.338C2.82289 1.038 3.24289 0.731999 3.50689 0.419999H5.43289V15H2.93089V3.174ZM10.5377 15.162C9.69772 15.162 9.06772 14.868 8.64772 14.28C8.23972 13.68 8.03572 12.738 8.03572 11.454V8.268C8.03572 7.092 8.22772 6.162 8.61172 5.478C9.00772 4.782 9.64372 4.434 10.5197 4.434C11.1917 4.434 11.8157 4.71 12.3917 5.262V0.419999H14.8577V15H12.3917V14.262C11.8157 14.862 11.1977 15.162 10.5377 15.162ZM11.4197 13.47C11.7317 13.47 12.0557 13.356 12.3917 13.128V6.45C12.0797 6.222 11.7557 6.108 11.4197 6.108C10.7957 6.108 10.4837 6.654 10.4837 7.746V11.634C10.4837 12.222 10.5497 12.678 10.6817 13.002C10.8137 13.314 11.0597 13.47 11.4197 13.47Z" fill="#9393AA"/>
</svg>
