<svg width="15" height="15" viewBox="0 0 15 15" fill="none" xmlns="http://www.w3.org/2000/svg">
<path d="M2.89573 3.174C2.77573 3.258 2.33773 3.396 1.58173 3.588C0.969734 3.768 0.657734 3.864 0.645734 3.876V2.022C1.12573 1.854 1.64773 1.626 2.21173 1.338C2.78773 1.038 3.20773 0.731999 3.47173 0.419999H5.39773V15H2.89573V3.174ZM8.19856 0.419999H10.6466V5.604C11.4266 4.824 12.2846 4.434 13.2206 4.434C13.8086 4.434 14.2406 4.65 14.5166 5.082C14.8046 5.514 14.9486 6.06 14.9486 6.72V15H12.5186V7.206C12.5186 6.87 12.4646 6.624 12.3566 6.468C12.2606 6.312 12.0806 6.234 11.8166 6.234C11.4926 6.234 11.1026 6.408 10.6466 6.756V15H8.19856V0.419999Z" fill="#9393AA"/>
</svg>
