<svg width="25" height="24" viewBox="0 0 25 24" fill="none" xmlns="http://www.w3.org/2000/svg">
<path fill-rule="evenodd" clip-rule="evenodd" d="M7.7 0H17.3C21.2765 0 24.5 3.22355 24.5 7.2V16.8C24.5 20.7765 21.2765 24 17.3 24H7.7C3.72355 24 0.5 20.7765 0.5 16.8V7.2C0.5 3.22355 3.72355 0 7.7 0Z" fill="#FF6924"/>
<path fill-rule="evenodd" clip-rule="evenodd" d="M17.6 14C16.85 14 16.1 13.9 15.4 13.65C15.1 13.55 14.7 13.65 14.5 13.85L13.1 14.9C11.45 14.05 10.45 13 9.6 11.4L10.65 10C10.9 9.75 10.95 9.4 10.85 9.1C10.65 8.4 10.5 7.65 10.5 6.9C10.5 6.4 10.1 6 9.6 6H7.4C6.9 6 6.5 6.4 6.5 6.9C6.5 13 11.5 18 17.6 18C18.1 18 18.5 17.6 18.5 17.1V14.85C18.5 14.4 18.1 14 17.6 14Z" fill="white"/>
</svg>
