<svg width="24" height="24" viewBox="0 0 24 24" fill="none" xmlns="http://www.w3.org/2000/svg">
<path fill-rule="evenodd" clip-rule="evenodd" d="M2.94441 0.106082C2.86021 0.17189 2.66641 0.67415 2.51376 1.22242L2.23615 2.21919L1.20932 2.5137C-0.401577 2.97569 -0.402913 3.30129 1.20416 3.75974L2.2309 4.05262L2.52656 5.08765C2.96408 6.61911 3.29124 6.69487 3.68809 5.35662C3.82298 4.9019 3.96523 4.42499 4.00427 4.29682C4.04332 4.16855 4.18003 4.03158 4.30805 3.99246C4.43597 3.95334 4.91664 3.80938 5.37603 3.6726C6.17918 3.43338 6.21135 3.41301 6.21135 3.14404C6.21135 2.8722 6.18338 2.85575 5.23283 2.56784C4.69459 2.40475 4.20924 2.25697 4.15416 2.23937C4.09917 2.22168 3.93201 1.76916 3.7827 1.23371C3.45487 0.0574917 3.29019 -0.163939 2.94441 0.106082ZM9.88679 0.145395C8.89509 0.324739 7.65136 0.745027 6.71169 1.2184C5.84725 1.6539 5.64954 1.83908 5.79703 2.07495C5.95235 2.32316 6.26243 2.31618 6.70892 2.05439C7.38578 1.65753 8.78941 1.15738 9.81262 0.94838C11.0104 0.703802 12.8944 0.683237 14.0459 0.902085C17.7098 1.59842 20.667 3.8969 22.2478 7.27681C23.5705 10.1049 23.6031 13.4439 22.3375 16.4899C22.0545 17.1709 22.0464 17.4287 22.3047 17.528C22.6588 17.6641 22.8766 17.3169 23.4056 15.773C23.853 14.4677 24.0041 13.4934 23.9999 11.9428C23.9922 9.12477 23.1764 6.7689 21.4287 4.51739C19.682 2.26711 16.948 0.632542 14.0983 0.134586C13.0458 -0.0492541 10.9339 -0.0438977 9.88679 0.145395ZM21.8846 0.834939C21.7119 0.94465 21.779 1.5197 21.9791 1.64519C22.2118 1.79116 22.4406 1.56083 22.4406 1.18072C22.4406 0.803948 22.1842 0.644594 21.8846 0.834939ZM11.777 1.82779C11.7275 1.8936 11.1131 3.23213 10.412 4.80242C9.71085 6.37272 9.09108 7.67309 9.03466 7.69212C8.97824 7.71115 7.53594 7.8839 5.82949 8.07606C4.12303 8.26822 2.671 8.47062 2.60264 8.526C2.30832 8.76436 2.58135 9.07274 4.85936 11.0759C6.13727 12.1995 7.20668 13.1811 7.2358 13.2573C7.26501 13.3335 6.98883 14.8013 6.62205 16.5192C5.93947 19.7166 5.91589 19.9775 6.30892 19.9775C6.41145 19.9775 7.72449 19.2457 9.22684 18.3514C10.7293 17.4571 11.9958 16.7253 12.0415 16.7253C12.0871 16.7253 13.3501 17.4571 14.8483 18.3514C16.3464 19.2457 17.6565 19.9775 17.7595 19.9775C18.1539 19.9775 18.1305 19.7183 17.4475 16.5192C17.0807 14.8013 16.8043 13.3343 16.8331 13.2589C16.8619 13.1836 17.9313 12.2023 19.2096 11.0783C21.4896 9.07341 21.7628 8.76465 21.4669 8.52667C21.3986 8.47167 19.9465 8.26861 18.2401 8.07539C16.5336 7.88208 15.0913 7.70905 15.0349 7.69069C14.9785 7.67242 14.3587 6.37272 13.6575 4.80242C12.9564 3.23213 12.3421 1.8936 12.2925 1.82779C12.2429 1.76208 12.1269 1.70823 12.0348 1.70823C11.9427 1.70823 11.8267 1.76208 11.777 1.82779ZM20.8722 1.85849C20.5873 2.14401 20.7627 2.47343 21.1995 2.47343C21.6535 2.47343 21.8597 2.00427 21.4922 1.80723C21.2332 1.66834 21.0466 1.68384 20.8722 1.85849ZM22.7031 1.81153C22.355 2.01469 22.5701 2.47343 23.0134 2.47343C23.4502 2.47343 23.6256 2.14401 23.3407 1.85849C23.1694 1.6868 22.9451 1.67035 22.7031 1.81153ZM3.30594 2.32986C3.37993 2.7249 3.50136 2.83604 4.03645 2.99855L4.44523 3.12271L4.1765 3.2285C4.02871 3.28665 3.86022 3.33429 3.80217 3.33429C3.65172 3.33429 3.34737 3.62812 3.34737 3.77332C3.34737 3.84066 3.29926 4.01694 3.24045 4.16501L3.13343 4.43427L2.97792 3.95601C2.83319 3.51124 2.79062 3.46772 2.36932 3.33429C2.12025 3.25537 1.91634 3.16929 1.91634 3.14298C1.91634 3.11668 2.12025 3.0306 2.36932 2.95168C2.78861 2.81892 2.83233 2.77463 2.9573 2.35789C3.10871 1.85304 3.21506 1.84443 3.30594 2.32986ZM21.8404 2.62848C21.6951 2.77396 21.7715 3.32711 21.9501 3.42286C22.2337 3.57494 22.4621 3.34595 22.4242 2.94747C22.3984 2.67487 22.3504 2.61193 22.1506 2.58859C22.0174 2.573 21.8777 2.59099 21.8404 2.62848ZM8.40707 3.10807C7.30721 3.57035 6.11207 4.36903 5.29364 5.18885C4.45927 6.02465 4.18003 6.45354 4.31082 6.69841C4.4902 7.03433 4.80237 6.90329 5.30366 6.28185C6.16066 5.21946 7.6106 4.2025 9.02407 3.67241C9.84355 3.36518 9.98312 3.20525 9.68908 2.91065C9.47753 2.69878 9.32507 2.72231 8.40707 3.10807ZM14.3805 2.91065C14.0864 3.20525 14.226 3.36518 15.0455 3.67241C16.7536 4.31298 18.257 5.47628 19.2819 6.95045C19.4516 7.19464 19.5592 7.25997 19.754 7.2374C19.9466 7.21502 20.0132 7.14816 20.0355 6.95446C20.0577 6.76182 19.92 6.52126 19.4627 5.95406C18.4423 4.6885 17.131 3.72023 15.5498 3.06446C14.7146 2.71811 14.5892 2.70165 14.3805 2.91065ZM11.6311 9.44128L11.6052 11.244L8.196 10.139C6.32095 9.53129 4.80409 9.01669 4.82528 8.99545C4.84648 8.97422 5.90013 8.83524 7.16687 8.68669C8.43352 8.53815 9.52641 8.36961 9.59553 8.31222C9.66455 8.25474 10.145 7.25873 10.6631 6.09887L11.6052 3.98997L11.6311 5.81421C11.6454 6.81759 11.6454 8.44977 11.6311 9.44128ZM13.4114 6.10767C13.9177 7.23845 14.3881 8.22011 14.457 8.28907C14.5357 8.36789 15.4422 8.51548 16.894 8.68574C18.1655 8.83486 19.2236 8.9746 19.2452 8.99641C19.2769 9.02817 14.5233 10.6138 12.8224 11.1389L12.4166 11.2641V7.61809C12.4166 5.61268 12.4333 3.98987 12.4539 4.01178C12.4743 4.03378 12.9052 4.97689 13.4114 6.10767ZM1.58889 6.09964C1.32283 6.39424 0.671748 7.99552 0.427737 8.95538C-0.551649 12.8078 0.332175 16.6799 2.88608 19.726C4.34413 21.4651 6.084 22.649 8.24755 23.374C11.7903 24.5614 15.5696 24.0456 18.7114 21.9458C19.7989 21.2189 20.0813 20.9393 20.0379 20.6325C19.9855 20.2615 19.6341 20.2947 19.1208 20.7192C16.2099 23.1268 12.1043 23.8699 8.46435 22.6479C3.52924 20.9914 0.313846 16.0539 0.84836 10.9528C0.992227 9.5795 1.33724 8.30428 1.86966 7.17819C2.20426 6.47038 2.27348 6.24235 2.19682 6.09877C2.07223 5.86567 1.79996 5.86606 1.58889 6.09964ZM10.4391 11.6699C10.9529 11.8353 11.3606 12.0083 11.3453 12.0545C11.2793 12.2528 7.21566 17.7833 7.19083 17.7086C7.17575 17.6632 7.37871 16.6166 7.64201 15.383C7.9053 14.1493 8.12067 13.0947 8.12067 13.0396C8.12067 12.9843 7.37212 12.2821 6.45727 11.4791C5.54242 10.6761 4.74585 9.96114 4.68714 9.89026C4.62843 9.81939 5.68839 10.1232 7.04267 10.5654C8.39695 11.0076 9.92527 11.5046 10.4391 11.6699ZM17.8381 11.2774C16.8778 12.1214 16.0556 12.8646 16.0111 12.9291C15.9629 12.9988 16.1305 13.9876 16.4251 15.3717C16.6973 16.6507 16.9022 17.715 16.8804 17.7369C16.8425 17.7748 12.7807 12.2238 12.726 12.0595C12.7055 11.9981 19.1926 9.79146 19.5087 9.75224C19.5502 9.74707 18.7984 10.4334 17.8381 11.2774ZM2.60274 11.0055C2.43949 11.169 2.45696 12.7132 2.63252 13.6406C2.90785 15.0949 3.51014 16.5177 4.28237 17.5384C4.667 18.0468 5.00046 18.1632 5.19359 17.8564C5.2735 17.7294 5.21392 17.5808 4.90576 17.139C3.89143 15.6851 3.35348 14.1185 3.28542 12.4211C3.22823 10.9927 3.20484 10.8907 2.93506 10.8907C2.81525 10.8907 2.66575 10.9423 2.60274 11.0055ZM20.9375 11.2015C20.8855 11.2673 20.8187 11.8161 20.7891 12.4211C20.707 14.0976 20.1523 15.7414 19.2315 17.0364C18.8829 17.5267 18.8449 17.6757 19.0229 17.854C19.2397 18.0712 19.48 17.9678 19.812 17.5145C20.5986 16.4404 21.1917 15.0083 21.4412 13.5803C21.6126 12.6002 21.6259 11.3561 21.4668 11.1968C21.318 11.0476 21.0572 11.05 20.9375 11.2015ZM13.5365 14.5015C14.3284 15.593 15.2885 16.9157 15.67 17.4406C16.1151 18.053 16.2807 18.3413 16.1324 18.2449C15.3684 17.7493 12.1256 15.8645 12.0368 15.8645C11.951 15.8645 9.62331 17.2148 8.03771 18.1844C7.74396 18.364 7.77595 18.2987 8.40459 17.4336C8.78321 16.9125 9.74111 15.593 10.5331 14.5015C11.3251 13.4099 12.0009 12.5167 12.0348 12.5167C12.0687 12.5167 12.7445 13.4099 13.5365 14.5015ZM21.2238 17.3625C21.1583 17.389 21.0168 17.701 20.9092 18.0558L20.7136 18.7011L20.0735 18.885C19.5133 19.046 19.4298 19.0998 19.4047 19.3161C19.3685 19.6281 19.4911 19.7248 20.1704 19.9199L20.7165 20.0767L20.8891 20.664C21.1855 21.6727 21.5983 21.6713 21.8999 20.6609L22.0751 20.0737L22.6158 19.9201C23.7116 19.6088 23.7439 19.1626 22.6913 18.8772L22.0773 18.7107L21.9168 18.1245C21.8285 17.8022 21.6873 17.4846 21.6029 17.4188C21.4395 17.2915 21.4099 17.2872 21.2238 17.3625ZM21.562 19.2939C21.6606 19.3566 21.6549 19.3984 21.5341 19.4988C21.3626 19.6414 21.1309 19.4966 21.2421 19.3162C21.3182 19.1928 21.3946 19.1875 21.562 19.2939ZM14.4692 20.4339C13.7811 20.6557 13.5493 20.6809 12.1302 20.6875C10.7568 20.6939 10.4435 20.6654 9.68393 20.4648C8.718 20.2097 8.50254 20.2346 8.50254 20.6011C8.50254 20.9097 8.86082 21.0748 10.0777 21.3272C11.7181 21.6674 14.0831 21.4957 15.3223 20.9465C15.7192 20.7706 15.7676 20.7168 15.7407 20.4821C15.7001 20.1281 15.4474 20.1185 14.4692 20.4339ZM1.96989 20.8929C1.66326 21.2003 1.84178 21.6992 2.25839 21.6992C2.61353 21.6992 2.72541 21.0167 2.39901 20.8417C2.16016 20.7136 2.14746 20.7151 1.96989 20.8929ZM0.979816 21.9096C0.681103 22.2089 1.03528 22.6341 1.48827 22.5201C1.75385 22.4534 1.88235 22.1289 1.72063 21.9337C1.58135 21.7656 1.138 21.7511 0.979816 21.9096ZM2.6899 21.9659C2.47539 22.3675 3.14546 22.7756 3.43845 22.4218C3.50146 22.3458 3.53888 22.1844 3.52179 22.0631C3.47902 21.7613 2.83911 21.6865 2.6899 21.9659ZM1.92016 22.6978C1.63357 23.0436 2.01075 23.6832 2.36885 23.4586C2.7173 23.2399 2.5909 22.56 2.20178 22.56C2.10966 22.56 1.98288 22.622 1.92016 22.6978Z" fill="white"/>
<path fill-rule="evenodd" clip-rule="evenodd" d="M2.94441 0.106082C2.86021 0.17189 2.66641 0.67415 2.51376 1.22242L2.23615 2.21919L1.20932 2.5137C-0.401577 2.97569 -0.402913 3.30129 1.20416 3.75974L2.2309 4.05262L2.52656 5.08765C2.96408 6.61911 3.29124 6.69487 3.68809 5.35662C3.82298 4.9019 3.96523 4.42499 4.00427 4.29682C4.04332 4.16855 4.18003 4.03158 4.30805 3.99246C4.43597 3.95334 4.91664 3.80938 5.37603 3.6726C6.17918 3.43338 6.21135 3.41301 6.21135 3.14404C6.21135 2.8722 6.18338 2.85575 5.23283 2.56784C4.69459 2.40475 4.20924 2.25697 4.15416 2.23937C4.09917 2.22168 3.93201 1.76916 3.7827 1.23371C3.45487 0.0574917 3.29019 -0.163939 2.94441 0.106082ZM9.88679 0.145395C8.89509 0.324739 7.65136 0.745027 6.71169 1.2184C5.84725 1.6539 5.64954 1.83908 5.79703 2.07495C5.95235 2.32316 6.26243 2.31618 6.70892 2.05439C7.38578 1.65753 8.78941 1.15738 9.81262 0.94838C11.0104 0.703802 12.8944 0.683237 14.0459 0.902085C17.7098 1.59842 20.667 3.8969 22.2478 7.27681C23.5705 10.1049 23.6031 13.4439 22.3375 16.4899C22.0545 17.1709 22.0464 17.4287 22.3047 17.528C22.6588 17.6641 22.8766 17.3169 23.4056 15.773C23.853 14.4677 24.0041 13.4934 23.9999 11.9428C23.9922 9.12477 23.1764 6.7689 21.4287 4.51739C19.682 2.26711 16.948 0.632542 14.0983 0.134586C13.0458 -0.0492541 10.9339 -0.0438977 9.88679 0.145395ZM21.8846 0.834939C21.7119 0.94465 21.779 1.5197 21.9791 1.64519C22.2118 1.79116 22.4406 1.56083 22.4406 1.18072C22.4406 0.803948 22.1842 0.644594 21.8846 0.834939ZM11.777 1.82779C11.7275 1.8936 11.1131 3.23213 10.412 4.80242C9.71085 6.37272 9.09108 7.67309 9.03466 7.69212C8.97824 7.71115 7.53594 7.8839 5.82949 8.07606C4.12303 8.26822 2.671 8.47062 2.60264 8.526C2.30832 8.76436 2.58135 9.07274 4.85936 11.0759C6.13727 12.1995 7.20668 13.1811 7.2358 13.2573C7.26501 13.3335 6.98883 14.8013 6.62205 16.5192C5.93947 19.7166 5.91589 19.9775 6.30892 19.9775C6.41145 19.9775 7.72449 19.2457 9.22684 18.3514C10.7293 17.4571 11.9958 16.7253 12.0415 16.7253C12.0871 16.7253 13.3501 17.4571 14.8483 18.3514C16.3464 19.2457 17.6565 19.9775 17.7595 19.9775C18.1539 19.9775 18.1305 19.7183 17.4475 16.5192C17.0807 14.8013 16.8043 13.3343 16.8331 13.2589C16.8619 13.1836 17.9313 12.2023 19.2096 11.0783C21.4896 9.07341 21.7628 8.76465 21.4669 8.52667C21.3986 8.47167 19.9465 8.26861 18.2401 8.07539C16.5336 7.88208 15.0913 7.70905 15.0349 7.69069C14.9785 7.67242 14.3587 6.37272 13.6575 4.80242C12.9564 3.23213 12.3421 1.8936 12.2925 1.82779C12.2429 1.76208 12.1269 1.70823 12.0348 1.70823C11.9427 1.70823 11.8267 1.76208 11.777 1.82779ZM20.8722 1.85849C20.5873 2.14401 20.7627 2.47343 21.1995 2.47343C21.6535 2.47343 21.8597 2.00427 21.4922 1.80723C21.2332 1.66834 21.0466 1.68384 20.8722 1.85849ZM22.7031 1.81153C22.355 2.01469 22.5701 2.47343 23.0134 2.47343C23.4502 2.47343 23.6256 2.14401 23.3407 1.85849C23.1694 1.6868 22.9451 1.67035 22.7031 1.81153ZM3.30594 2.32986C3.37993 2.7249 3.50136 2.83604 4.03645 2.99855L4.44523 3.12271L4.1765 3.2285C4.02871 3.28665 3.86022 3.33429 3.80217 3.33429C3.65172 3.33429 3.34737 3.62812 3.34737 3.77332C3.34737 3.84066 3.29926 4.01694 3.24045 4.16501L3.13343 4.43427L2.97792 3.95601C2.83319 3.51124 2.79062 3.46772 2.36932 3.33429C2.12025 3.25537 1.91634 3.16929 1.91634 3.14298C1.91634 3.11668 2.12025 3.0306 2.36932 2.95168C2.78861 2.81892 2.83233 2.77463 2.9573 2.35789C3.10871 1.85304 3.21506 1.84443 3.30594 2.32986ZM21.8404 2.62848C21.6951 2.77396 21.7715 3.32711 21.9501 3.42286C22.2337 3.57494 22.4621 3.34595 22.4242 2.94747C22.3984 2.67487 22.3504 2.61193 22.1506 2.58859C22.0174 2.573 21.8777 2.59099 21.8404 2.62848ZM8.40707 3.10807C7.30721 3.57035 6.11207 4.36903 5.29364 5.18885C4.45927 6.02465 4.18003 6.45354 4.31082 6.69841C4.4902 7.03433 4.80237 6.90329 5.30366 6.28185C6.16066 5.21946 7.6106 4.2025 9.02407 3.67241C9.84355 3.36518 9.98312 3.20525 9.68908 2.91065C9.47753 2.69878 9.32507 2.72231 8.40707 3.10807ZM14.3805 2.91065C14.0864 3.20525 14.226 3.36518 15.0455 3.67241C16.7536 4.31298 18.257 5.47628 19.2819 6.95045C19.4516 7.19464 19.5592 7.25997 19.754 7.2374C19.9466 7.21502 20.0132 7.14816 20.0355 6.95446C20.0577 6.76182 19.92 6.52126 19.4627 5.95406C18.4423 4.6885 17.131 3.72023 15.5498 3.06446C14.7146 2.71811 14.5892 2.70165 14.3805 2.91065ZM11.6311 9.44128L11.6052 11.244L8.196 10.139C6.32095 9.53129 4.80409 9.01669 4.82528 8.99545C4.84648 8.97422 5.90013 8.83524 7.16687 8.68669C8.43352 8.53815 9.52641 8.36961 9.59553 8.31222C9.66455 8.25474 10.145 7.25873 10.6631 6.09887L11.6052 3.98997L11.6311 5.81421C11.6454 6.81759 11.6454 8.44977 11.6311 9.44128ZM13.4114 6.10767C13.9177 7.23845 14.3881 8.22011 14.457 8.28907C14.5357 8.36789 15.4422 8.51548 16.894 8.68574C18.1655 8.83486 19.2236 8.9746 19.2452 8.99641C19.2769 9.02817 14.5233 10.6138 12.8224 11.1389L12.4166 11.2641V7.61809C12.4166 5.61268 12.4333 3.98987 12.4539 4.01178C12.4743 4.03378 12.9052 4.97689 13.4114 6.10767ZM1.58889 6.09964C1.32283 6.39424 0.671748 7.99552 0.427737 8.95538C-0.551649 12.8078 0.332175 16.6799 2.88608 19.726C4.34413 21.4651 6.084 22.649 8.24755 23.374C11.7903 24.5614 15.5696 24.0456 18.7114 21.9458C19.7989 21.2189 20.0813 20.9393 20.0379 20.6325C19.9855 20.2615 19.6341 20.2947 19.1208 20.7192C16.2099 23.1268 12.1043 23.8699 8.46435 22.6479C3.52924 20.9914 0.313846 16.0539 0.84836 10.9528C0.992227 9.5795 1.33724 8.30428 1.86966 7.17819C2.20426 6.47038 2.27348 6.24235 2.19682 6.09877C2.07223 5.86567 1.79996 5.86606 1.58889 6.09964ZM10.4391 11.6699C10.9529 11.8353 11.3606 12.0083 11.3453 12.0545C11.2793 12.2528 7.21566 17.7833 7.19083 17.7086C7.17575 17.6632 7.37871 16.6166 7.64201 15.383C7.9053 14.1493 8.12067 13.0947 8.12067 13.0396C8.12067 12.9843 7.37212 12.2821 6.45727 11.4791C5.54242 10.6761 4.74585 9.96114 4.68714 9.89026C4.62843 9.81939 5.68839 10.1232 7.04267 10.5654C8.39695 11.0076 9.92527 11.5046 10.4391 11.6699ZM17.8381 11.2774C16.8778 12.1214 16.0556 12.8646 16.0111 12.9291C15.9629 12.9988 16.1305 13.9876 16.4251 15.3717C16.6973 16.6507 16.9022 17.715 16.8804 17.7369C16.8425 17.7748 12.7807 12.2238 12.726 12.0595C12.7055 11.9981 19.1926 9.79146 19.5087 9.75224C19.5502 9.74707 18.7984 10.4334 17.8381 11.2774ZM2.60274 11.0055C2.43949 11.169 2.45696 12.7132 2.63252 13.6406C2.90785 15.0949 3.51014 16.5177 4.28237 17.5384C4.667 18.0468 5.00046 18.1632 5.19359 17.8564C5.2735 17.7294 5.21392 17.5808 4.90576 17.139C3.89143 15.6851 3.35348 14.1185 3.28542 12.4211C3.22823 10.9927 3.20484 10.8907 2.93506 10.8907C2.81525 10.8907 2.66575 10.9423 2.60274 11.0055ZM20.9375 11.2015C20.8855 11.2673 20.8187 11.8161 20.7891 12.4211C20.707 14.0976 20.1523 15.7414 19.2315 17.0364C18.8829 17.5267 18.8449 17.6757 19.0229 17.854C19.2397 18.0712 19.48 17.9678 19.812 17.5145C20.5986 16.4404 21.1917 15.0083 21.4412 13.5803C21.6126 12.6002 21.6259 11.3561 21.4668 11.1968C21.318 11.0476 21.0572 11.05 20.9375 11.2015ZM13.5365 14.5015C14.3284 15.593 15.2885 16.9157 15.67 17.4406C16.1151 18.053 16.2807 18.3413 16.1324 18.2449C15.3684 17.7493 12.1256 15.8645 12.0368 15.8645C11.951 15.8645 9.62331 17.2148 8.03771 18.1844C7.74396 18.364 7.77595 18.2987 8.40459 17.4336C8.78321 16.9125 9.74111 15.593 10.5331 14.5015C11.3251 13.4099 12.0009 12.5167 12.0348 12.5167C12.0687 12.5167 12.7445 13.4099 13.5365 14.5015ZM21.2238 17.3625C21.1583 17.389 21.0168 17.701 20.9092 18.0558L20.7136 18.7011L20.0735 18.885C19.5133 19.046 19.4298 19.0998 19.4047 19.3161C19.3685 19.6281 19.4911 19.7248 20.1704 19.9199L20.7165 20.0767L20.8891 20.664C21.1855 21.6727 21.5983 21.6713 21.8999 20.6609L22.0751 20.0737L22.6158 19.9201C23.7116 19.6088 23.7439 19.1626 22.6913 18.8772L22.0773 18.7107L21.9168 18.1245C21.8285 17.8022 21.6873 17.4846 21.6029 17.4188C21.4395 17.2915 21.4099 17.2872 21.2238 17.3625ZM21.562 19.2939C21.6606 19.3566 21.6549 19.3984 21.5341 19.4988C21.3626 19.6414 21.1309 19.4966 21.2421 19.3162C21.3182 19.1928 21.3946 19.1875 21.562 19.2939ZM14.4692 20.4339C13.7811 20.6557 13.5493 20.6809 12.1302 20.6875C10.7568 20.6939 10.4435 20.6654 9.68393 20.4648C8.718 20.2097 8.50254 20.2346 8.50254 20.6011C8.50254 20.9097 8.86082 21.0748 10.0777 21.3272C11.7181 21.6674 14.0831 21.4957 15.3223 20.9465C15.7192 20.7706 15.7676 20.7168 15.7407 20.4821C15.7001 20.1281 15.4474 20.1185 14.4692 20.4339ZM1.96989 20.8929C1.66326 21.2003 1.84178 21.6992 2.25839 21.6992C2.61353 21.6992 2.72541 21.0167 2.39901 20.8417C2.16016 20.7136 2.14746 20.7151 1.96989 20.8929ZM0.979816 21.9096C0.681103 22.2089 1.03528 22.6341 1.48827 22.5201C1.75385 22.4534 1.88235 22.1289 1.72063 21.9337C1.58135 21.7656 1.138 21.7511 0.979816 21.9096ZM2.6899 21.9659C2.47539 22.3675 3.14546 22.7756 3.43845 22.4218C3.50146 22.3458 3.53888 22.1844 3.52179 22.0631C3.47902 21.7613 2.83911 21.6865 2.6899 21.9659ZM1.92016 22.6978C1.63357 23.0436 2.01075 23.6832 2.36885 23.4586C2.7173 23.2399 2.5909 22.56 2.20178 22.56C2.10966 22.56 1.98288 22.622 1.92016 22.6978Z" fill="url(#paint0_linear_172:1306)"/>
<defs>
<linearGradient id="paint0_linear_172:1306" x1="24" y1="24" x2="3.10106" y2="-2.45022" gradientUnits="userSpaceOnUse">
<stop stop-color="#FF6188"/>
<stop offset="1" stop-color="#FFB199"/>
</linearGradient>
</defs>
</svg>
