<svg width="87" height="121" viewBox="0 0 87 121" fill="none" xmlns="http://www.w3.org/2000/svg">
<path fill-rule="evenodd" clip-rule="evenodd" d="M36.2821 2.24048C35.3841 3.13842 34.9722 4.14466 34.9722 5.44168C34.9722 6.79204 34.7364 7.33305 34.1479 7.33305C33.6944 7.33305 32.7341 7.9226 32.0138 8.64287C30.815 9.84118 30.704 10.364 30.704 14.8025C30.704 19.2409 30.815 19.7638 32.0138 20.9621C33.3124 22.2613 33.4058 22.2719 43.5087 22.2719C53.6117 22.2719 53.7051 22.2613 55.0037 20.9621C56.2025 19.7638 56.3135 19.2409 56.3135 14.8025C56.3135 10.364 56.2025 9.84118 55.0037 8.64287C54.2834 7.9226 53.3231 7.33305 52.8696 7.33305C52.2811 7.33305 52.0453 6.79204 52.0453 5.44168C52.0453 4.14466 51.6334 3.13842 50.7354 2.24048C49.5024 1.00749 49.0799 0.930664 43.5087 0.930664C37.9376 0.930664 37.515 1.00749 36.2821 2.24048ZM47.777 6.26598C47.777 7.24395 47.4211 7.33305 43.5087 7.33305C39.5964 7.33305 39.2405 7.24395 39.2405 6.26598C39.2405 5.28802 39.5964 5.19892 43.5087 5.19892C47.4211 5.19892 47.777 5.28802 47.777 6.26598ZM52.0453 14.8025V18.0037H43.5087H34.9722V14.8025V11.6013H43.5087H52.0453V14.8025ZM6.66784 14.9652C5.36229 15.654 3.57389 17.2407 2.69356 18.4908L1.09297 20.7631L0.951048 66.5007L0.808594 112.238L2.05866 114.606C2.74638 115.908 4.3315 117.694 5.58157 118.574L7.85388 120.175H43.5087H79.1636L81.4359 118.574C82.686 117.694 84.2674 115.916 84.9498 114.623L86.1913 112.271V67.0886V21.9065L84.9498 19.5547C84.2674 18.2614 82.6865 16.4831 81.4375 15.6028L79.1663 14.0022H69.2666C60.4185 14.0022 59.304 14.1014 58.7768 14.9359C58.3468 15.6161 58.3457 16.123 58.7736 16.8032C59.2837 17.6137 60.5498 17.7721 68.3745 18.0037C78.1878 18.2939 79.1663 18.5575 80.8827 21.3724C81.8868 23.0189 81.9193 24.4445 81.9209 66.9819C81.923 115.447 82.0959 112.974 78.5623 115.128C76.9164 116.132 75.6423 116.17 43.5087 116.17C11.3752 116.17 10.1011 116.132 8.45517 115.128C4.92159 112.974 5.09446 115.447 5.09659 66.9819C5.09819 24.4445 5.13074 23.0189 6.13484 21.3724C7.85121 18.5575 8.82971 18.2939 18.643 18.0037C26.4677 17.7721 27.7338 17.6137 28.2439 16.8032C28.6712 16.1235 28.6712 15.6156 28.2428 14.9359C27.7253 14.1148 26.5344 13.9846 18.3485 13.8571C9.46515 13.7184 8.93428 13.7685 6.66784 14.9652Z" fill="#9393AA"/>
</svg>
