<svg width="20" height="20" viewBox="0 0 20 20" fill="none" xmlns="http://www.w3.org/2000/svg">
<path fill-rule="evenodd" clip-rule="evenodd" d="M14.8334 8.15227C14.9684 8.6878 14.6437 9.23136 14.1082 9.36635C13.5726 9.50133 13.0291 9.17661 12.8941 8.64108C12.5658 7.33878 11.5068 6.32965 10.1875 6.06731C9.64585 5.95959 9.29405 5.43315 9.40177 4.89148C9.50948 4.3498 10.0359 3.998 10.5776 4.10572C12.6552 4.51887 14.3166 6.10198 14.8334 8.15227ZM19.6895 18.2L16.6457 15.1684C17.9932 13.5172 18.7285 11.4541 18.7278 9.32632C18.7278 4.18947 14.532 0 9.36389 0C4.19578 0 0 4.17895 0 9.32632C0 14.4737 4.19578 18.6526 9.36389 18.6526C11.541 18.6526 13.5491 17.9053 15.145 16.6526L18.1993 19.6947C18.4107 19.9053 18.6749 20 18.9497 20C19.2245 20 19.4887 19.8947 19.7001 19.6947C20.1017 19.2842 20.1017 18.6105 19.6895 18.2ZM2.11374 9.32632C2.11374 5.34737 5.36891 2.10526 9.36389 2.10526C13.3589 2.10526 16.614 5.34737 16.614 9.32632C16.614 13.3053 13.3589 16.5474 9.36389 16.5474C5.36891 16.5474 2.11374 13.3053 2.11374 9.32632Z" fill="#9393AA"/>
</svg>
