<svg width="14" height="14" viewBox="0 0 14 14" fill="none" xmlns="http://www.w3.org/2000/svg">
<path fill-rule="evenodd" clip-rule="evenodd" d="M13.6962 6.34456C13.9717 6.06425 14.069 5.65284 13.9502 5.27041C13.831 4.88797 13.5207 4.61497 13.1394 4.55704L9.74965 4.04293C9.60528 4.02098 9.48053 3.92647 9.41605 3.78983L7.90057 0.58404C7.73041 0.223843 7.38504 0 7.00014 0C6.61552 0 6.27015 0.223843 6.09999 0.58404L4.58423 3.79012C4.51975 3.92676 4.39472 4.02128 4.25035 4.04322L0.860565 4.55733C0.479592 4.61497 0.168983 4.88827 0.0498411 5.2707C-0.0690201 5.65314 0.0282555 6.06454 0.303823 6.34486L2.75646 8.8402C2.86102 8.9467 2.90896 9.10003 2.88429 9.24984L2.30568 12.7734C2.25438 13.0836 2.33231 13.3852 2.52462 13.6231C2.82346 13.9939 3.34516 14.1068 3.76229 13.878L6.79382 12.2142C6.92053 12.1449 7.08004 12.1455 7.20647 12.2142L10.2383 13.878C10.3857 13.959 10.543 14 10.7053 14C11.0016 14 11.2825 13.8625 11.4757 13.6231C11.6682 13.3852 11.7459 13.083 11.6946 12.7734L11.1157 9.24984C11.091 9.09974 11.139 8.9467 11.2435 8.8402L13.6962 6.34456Z" fill="#EE9A61"/>
</svg>
