<svg width="19" height="19" viewBox="0 0 19 19" fill="none" xmlns="http://www.w3.org/2000/svg">
<path d="M16.625 4.73421C13.9888 4.47296 11.3367 4.33838 8.6925 4.33838C7.125 4.33838 5.5575 4.41755 3.99 4.57588L2.375 4.73421" stroke="#141434" stroke-width="1.5" stroke-linecap="round" stroke-linejoin="round"/>
<path d="M6.72852 3.93475L6.90268 2.89766C7.02935 2.14558 7.12435 1.5835 8.46227 1.5835H10.5364C11.8743 1.5835 11.9773 2.17725 12.096 2.90558L12.2702 3.93475" stroke="#141434" stroke-width="1.5" stroke-linecap="round" stroke-linejoin="round"/>
<path d="M14.922 7.23584L14.4074 15.2079C14.3203 16.4508 14.2491 17.4167 12.0403 17.4167H6.95784C4.74909 17.4167 4.67784 16.4508 4.59076 15.2079L4.07617 7.23584" stroke="#141434" stroke-width="1.5" stroke-linecap="round" stroke-linejoin="round"/>
<path d="M8.17773 13.0625H10.814" stroke="#292D32" stroke-width="1.5" stroke-linecap="round" stroke-linejoin="round"/>
<path d="M7.52148 9.896H11.4798" stroke="#292D32" stroke-width="1.5" stroke-linecap="round" stroke-linejoin="round"/>
</svg>
