<svg width="78" height="66" viewBox="0 0 78 66" fill="none" xmlns="http://www.w3.org/2000/svg">
<path fill-rule="evenodd" clip-rule="evenodd" d="M33.9234 3.16347C36.5336 -1.05952 40.7718 -1.04946 43.3758 3.16347L75.731 55.5104C79.2156 61.1481 76.6773 65.7183 70.0649 65.7183H7.23423C0.62034 65.7183 -1.92772 61.1663 1.56812 55.5104L33.9234 3.16347ZM38.6507 20.7183C36.9938 20.7183 35.6507 22.0774 35.6507 23.7094V41.7272C35.6507 43.3791 36.9823 44.7183 38.6507 44.7183C40.3075 44.7183 41.6507 43.3592 41.6507 41.7272V23.7094C41.6507 22.0574 40.3191 20.7183 38.6507 20.7183ZM38.6507 56.7183C40.3075 56.7183 41.6507 55.3751 41.6507 53.7183C41.6507 52.0614 40.3075 50.7183 38.6507 50.7183C36.9938 50.7183 35.6507 52.0614 35.6507 53.7183C35.6507 55.3751 36.9938 56.7183 38.6507 56.7183Z" fill="#FFA337"/>
</svg>
