<svg width="16" height="20" viewBox="0 0 16 20" fill="none" xmlns="http://www.w3.org/2000/svg">
<path fill-rule="evenodd" clip-rule="evenodd" d="M7.82822 0.00548512C6.97535 0.0600811 6.21808 0.518405 5.76719 1.20819L5.69001 1.335L5.66667 1.335C4.99462 1.28836 4.27138 1.56032 3.74835 2.08335C3.48551 2.34618 3.28608 2.65957 3.1589 3H1.66667L1.52286 3.00612C0.669713 3.07903 0 3.79464 0 4.66667V18.3333L0.00611766 18.4771C0.0790293 19.3303 0.794638 20 1.66667 20H14.3333L14.4771 19.9939C15.3303 19.921 16 19.2054 16 18.3333V4.66667L15.9939 4.52286C15.921 3.66971 15.2054 3 14.3333 3H12.8303C12.701 2.66751 12.5014 2.3565 12.2399 2.09508L12.0949 1.96067C11.6463 1.57555 11.0794 1.35477 10.4885 1.335L10.309 1.335L10.2328 1.20819C9.75187 0.472419 8.92234 0 8.00001 0L7.82822 0.00548512ZM10.8274 3.51124C10.7463 3.65576 10.7 3.82248 10.7 4L10.7001 4.00103L5.3 4.00164L5.3 4C5.3 3.81626 5.25045 3.6441 5.16398 3.49615C5.27934 3.3816 5.43838 3.32209 5.60066 3.33282L6.36667 3.335C6.80262 3.335 7.18328 3.05356 7.31659 2.64767L7.34667 2.534C7.40976 2.22329 7.68296 2 8.00001 2C8.28183 2 8.529 2.17643 8.62475 2.43386L8.65334 2.534C8.74798 3.00007 9.15776 3.335 9.63334 3.335H10.3333C10.5438 3.32695 10.7069 3.39049 10.8257 3.50929L10.8274 3.51124ZM3.00001 5L3.00001 5.00167C3.00001 5.55396 3.44772 6.00167 4.00001 6.00167H12C12.5523 6.00167 13 5.55396 13 5.00167V5H14V18H2V5H3.00001ZM4 10C4 9.44771 4.44772 9 5 9H11C11.5523 9 12 9.44771 12 10C12 10.5523 11.5523 11 11 11H5C4.44772 11 4 10.5523 4 10ZM5 13C4.44772 13 4 13.4477 4 14C4 14.5523 4.44772 15 5 15H7C7.55228 15 8 14.5523 8 14C8 13.4477 7.55228 13 7 13H5Z" fill="#9393AA"/>
</svg>
