<svg width="46" height="46" viewBox="0 0 46 46" fill="none" xmlns="http://www.w3.org/2000/svg">
<path d="M18.3632 14.8305H17.7633V11.3639C17.7633 11.1687 17.6858 10.9815 17.5478 10.8435C17.4097 10.7055 17.2225 10.6279 17.0273 10.6279H12.8248C12.6296 10.6279 12.4424 10.7055 12.3043 10.8435C12.1663 10.9815 12.0888 11.1687 12.0888 11.3639V14.8305H11.4889C11.2937 14.8305 11.1065 14.908 10.9685 15.0461C10.8305 15.1841 10.7529 15.3713 10.7529 15.5665V42.6881C10.7529 42.8833 10.8305 43.0705 10.9685 43.2085C11.1065 43.3466 11.2937 43.4241 11.4889 43.4241H18.3632C18.5584 43.4241 18.7456 43.3466 18.8836 43.2085C19.0216 43.0705 19.0992 42.8833 19.0992 42.6881V15.5665C19.0992 15.3713 19.0216 15.1841 18.8836 15.0461C18.7456 14.908 18.5584 14.8305 18.3632 14.8305ZM13.5608 12.0999H16.2913V14.8305H13.5608V12.0999ZM17.6272 41.9521H12.2249V16.3025H17.6272V41.9521Z" fill="black"/>
<path d="M35.2011 40.0054L30.487 27.291C30.419 27.1084 30.2814 26.9602 30.1043 26.8789C30.0165 26.8384 29.9215 26.8156 29.8249 26.8118C29.7283 26.808 29.6319 26.8233 29.5412 26.8568L27.0075 27.797L20.608 10.5526L21.4397 10.2434C21.532 10.2111 21.6169 10.1608 21.6896 10.0953C21.7622 10.0298 21.821 9.95047 21.8626 9.86197C21.9043 9.77348 21.9278 9.67758 21.932 9.57988C21.9361 9.48218 21.9207 9.38463 21.8867 9.29293C21.8528 9.20124 21.8008 9.11724 21.734 9.04584C21.6672 8.97443 21.5868 8.91706 21.4976 8.87708C21.4083 8.83709 21.312 8.81529 21.2143 8.81295C21.1165 8.81061 21.0192 8.82777 20.9282 8.86344L20.0947 9.17072L19.8775 8.58192L21.2465 8.07408C21.3388 8.04178 21.4237 7.99141 21.4964 7.92591C21.569 7.86042 21.6278 7.78111 21.6694 7.69261C21.7111 7.60412 21.7346 7.50822 21.7388 7.41052C21.7429 7.31282 21.7275 7.21527 21.6935 7.12357C21.6596 7.03188 21.6076 6.94788 21.5408 6.87647C21.474 6.80507 21.3936 6.7477 21.3044 6.70772C21.2151 6.66773 21.1188 6.64593 21.0211 6.64359C20.9233 6.64124 20.826 6.65841 20.735 6.69408L19.3642 7.20191L19.1471 6.61128L19.9787 6.30399C20.071 6.2717 20.156 6.22133 20.2286 6.15583C20.3012 6.09034 20.3601 6.01103 20.4017 5.92253C20.4433 5.83404 20.4669 5.73814 20.471 5.64044C20.4751 5.54273 20.4598 5.44519 20.4258 5.35349C20.3918 5.2618 20.3399 5.1778 20.2731 5.10639C20.2062 5.03499 20.1259 4.97762 20.0366 4.93764C19.9474 4.89765 19.8511 4.87585 19.7533 4.87351C19.6555 4.87116 19.5583 4.88833 19.4672 4.924L18.6337 5.23128L18.4166 4.64247L18.711 4.53207C18.8906 4.46173 19.0353 4.32372 19.1142 4.14772C19.1931 3.97173 19.1997 3.77181 19.1327 3.59097C19.0656 3.41014 18.9303 3.26284 18.7558 3.18076C18.5813 3.09868 18.3815 3.08838 18.1995 3.15207L17.9032 3.26247L17.8278 3.05639C17.7955 2.96409 17.7451 2.87915 17.6796 2.80653C17.6141 2.73392 17.5348 2.67508 17.4463 2.63346C17.3578 2.59184 17.2619 2.56827 17.1642 2.56414C17.0665 2.56 16.969 2.57537 16.8773 2.60936C16.7856 2.64335 16.7016 2.69527 16.6302 2.76209C16.5588 2.82891 16.5014 2.90929 16.4614 2.99853C16.4214 3.08777 16.3996 3.18409 16.3973 3.28185C16.395 3.37961 16.4121 3.47686 16.4478 3.56791L16.5232 3.77399L16.4073 3.81631C16.2243 3.88537 16.0762 4.02429 15.9957 4.20251C15.9151 4.38074 15.9086 4.58368 15.9777 4.76668C16.0467 4.94967 16.1856 5.09775 16.3639 5.17832C16.5421 5.25889 16.745 5.26537 16.928 5.19632L17.0439 5.154L17.2611 5.74279L16.6079 5.98567C16.4445 6.06575 16.3165 6.20351 16.2488 6.37236C16.181 6.54122 16.1781 6.7292 16.2408 6.90002C16.3034 7.07085 16.4272 7.21241 16.5881 7.29738C16.7489 7.38235 16.9356 7.40472 17.112 7.36016L17.7652 7.11728L17.9823 7.70791L16.7919 8.14952C16.6089 8.21759 16.4604 8.35558 16.3791 8.53311C16.2979 8.71065 16.2905 8.9132 16.3585 9.0962C16.4266 9.2792 16.5646 9.42766 16.7421 9.50892C16.9197 9.59018 17.1222 9.59759 17.3052 9.52952L18.4957 9.08792L18.7128 9.67856L18.0596 9.9196C17.8766 9.98767 17.7282 10.1257 17.6469 10.3032C17.5656 10.4807 17.5582 10.6833 17.6263 10.8663C17.6944 11.0493 17.8324 11.1977 18.0099 11.279C18.1874 11.3603 18.39 11.3677 18.573 11.2996L19.2262 11.0586L25.6202 28.303L23.0939 29.2562C22.9109 29.324 22.7623 29.4618 22.6809 29.6391C22.5995 29.8165 22.5918 30.0189 22.6596 30.2019L27.3755 42.9182C27.4435 43.1008 27.5812 43.249 27.7583 43.3303C27.8547 43.3746 27.9594 43.3978 28.0655 43.3984C28.1528 43.3978 28.2393 43.3822 28.3213 43.3524L34.7613 40.9604C34.8535 40.9274 34.9382 40.8764 35.0104 40.8102C35.0826 40.7441 35.1409 40.6642 35.1818 40.5753C35.2228 40.4864 35.2456 40.3902 35.2489 40.2923C35.2522 40.1945 35.2359 40.0969 35.2011 40.0054ZM28.4998 41.7074L34.5 40L29.3554 28.4926L33.5579 39.827L28.4998 41.7074Z" fill="black"/>
</svg>
