<svg width="24" height="24" viewBox="0 0 24 24" fill="none" xmlns="http://www.w3.org/2000/svg">
<path d="M12.0001 15.7505C13.657 15.7505 15.0001 14.4073 15.0001 12.7505C15.0001 11.0936 13.657 9.75049 12.0001 9.75049C10.3433 9.75049 9.00012 11.0936 9.00012 12.7505C9.00012 14.4073 10.3433 15.7505 12.0001 15.7505Z" fill="black"/>
<path d="M20.2507 6.75146H17.4851C17.3445 6.75146 17.1701 6.66053 17.0342 6.51709L15.8182 4.59803C15.799 4.56757 15.7775 4.53858 15.754 4.51131C15.334 4.02146 14.7663 3.75146 14.157 3.75146H9.84448C9.2351 3.75146 8.66745 4.02146 8.24745 4.51131C8.22392 4.53858 8.20246 4.56757 8.18323 4.59803L6.96729 6.5199C6.86323 6.63334 6.71698 6.75428 6.56323 6.75428V6.37928C6.56323 6.18036 6.48421 5.9896 6.34356 5.84895C6.20291 5.70829 6.01214 5.62928 5.81323 5.62928H4.68823C4.48932 5.62928 4.29855 5.70829 4.1579 5.84895C4.01725 5.9896 3.93823 6.18036 3.93823 6.37928V6.75428H3.75073C3.15418 6.7549 2.58225 6.99215 2.16043 7.41397C1.7386 7.83579 1.50135 8.40773 1.50073 9.00428V18.0015C1.50135 18.598 1.7386 19.1699 2.16043 19.5918C2.58225 20.0136 3.15418 20.2508 3.75073 20.2515H20.2507C20.8473 20.2508 21.4192 20.0136 21.841 19.5918C22.2628 19.1699 22.5001 18.598 22.5007 18.0015V9.00146C22.5001 8.40492 22.2628 7.83298 21.841 7.41116C21.4192 6.98934 20.8473 6.75208 20.2507 6.75146ZM12.0007 17.2515C11.1107 17.2515 10.2407 16.9875 9.50066 16.4931C8.76064 15.9986 8.18387 15.2958 7.84327 14.4735C7.50268 13.6513 7.41356 12.7465 7.5872 11.8736C7.76083 11.0006 8.18941 10.1988 8.81875 9.56948C9.44808 8.94015 10.2499 8.51156 11.1228 8.33793C11.9957 8.1643 12.9005 8.25341 13.7228 8.59401C14.5451 8.9346 15.2479 9.51138 15.7423 10.2514C16.2368 10.9914 16.5007 11.8614 16.5007 12.7515C16.4994 13.9445 16.0248 15.0883 15.1812 15.9319C14.3376 16.7756 13.1938 17.2501 12.0007 17.2515Z" fill="black"/>
</svg>
