<svg width="30" height="30" viewBox="0 0 30 30" fill="none" xmlns="http://www.w3.org/2000/svg">
<path fill-rule="evenodd" clip-rule="evenodd" d="M1.64771 0.299981C1.32943 0.461231 0.820364 0.960684 0.516848 1.40998C0.00356687 2.16936 -0.0299487 2.41357 0.0410669 4.88318L0.117239 7.53982L0.882708 8.22303C1.8399 9.07756 3.14161 9.15092 4.0913 8.40396L4.73021 7.90147L5.67146 8.84272C6.567 9.73803 6.5956 9.81092 6.26232 10.3413C6.06943 10.6479 5.77927 11.3205 5.61732 11.8362C5.44529 12.3834 4.96036 13.0868 4.45154 13.526C3.23982 14.5725 3.01599 15.2627 3.09568 17.7091C3.15052 19.3854 3.23443 19.8049 3.51568 19.8049C3.79763 19.8049 3.89044 19.3303 3.98443 17.408C4.08638 15.3234 4.17029 14.9426 4.62896 14.4848L5.1563 13.9587V15.1577C5.1563 16.4039 5.93654 19.3284 6.3345 19.5745C6.4599 19.6519 6.56255 20.6508 6.56255 21.7943C6.56255 24.048 6.30919 24.6096 5.29318 24.6096C4.43419 24.6096 4.01841 23.9247 3.93919 22.3793C3.88482 21.3208 3.78099 20.9768 3.51568 20.9768C3.25693 20.9768 3.14536 21.3009 3.09333 22.2049C2.96607 24.416 4.13935 25.8077 5.81958 25.4386C6.93661 25.1932 7.35029 24.5365 7.45857 22.8361L7.5549 21.3234L8.49474 22.1723C9.01154 22.6394 10.133 23.3524 10.9868 23.7569C12.4058 24.4291 12.7404 24.4924 14.8829 24.4912C16.9245 24.4901 17.3972 24.4101 18.5494 23.8711L19.8722 23.2521L20.8147 24.2238L21.7571 25.1955L21.1911 26.0093C20.2793 27.3201 20.5055 28.5122 21.7922 29.1776C22.722 29.6583 22.9953 29.628 24.023 28.9308L24.9083 28.3301L25.6679 29.0665C26.1687 29.5516 26.7458 29.8455 27.3603 29.928C28.1604 30.0351 28.4051 29.9529 29.0825 29.3475C30.1808 28.3662 30.1876 27.1462 29.1017 25.7953L28.3313 24.8365L28.8141 24.2226C29.3541 23.5362 29.4495 22.1325 28.9965 21.5423C28.6257 21.0593 27.8014 20.6252 27.2551 20.6252C27.0172 20.6252 26.4565 20.88 26.0091 21.1912L25.1954 21.7572L24.2328 20.8237L23.2704 19.8904L23.8536 18.4415C24.2326 17.4998 24.7482 16.7243 25.3264 16.2269C26.6642 15.0759 26.8072 14.3655 26.6539 9.62389L26.521 5.51482L25.7958 4.86678C24.8206 3.99561 23.8465 4.00826 22.9508 4.90404C22.3411 5.51389 22.2657 5.74897 22.2657 7.04061V8.49233L21.2984 7.61858C18.5136 5.10256 14.0933 4.46693 10.7187 6.09748L9.74068 6.56998L8.80951 5.63881C7.93904 4.76811 7.90318 4.67998 8.25872 4.28693C9.38818 3.03912 9.21544 1.26233 7.88607 0.451622C7.28161 0.0831843 6.70435 0.00232497 4.68755 0.00443434C3.18919 0.00607497 2.00021 0.121622 1.64771 0.299981ZM7.71732 1.55529C7.9845 1.8949 8.20318 2.35123 8.20318 2.5692C8.20318 3.14998 7.25443 3.93537 6.44536 4.02443C5.562 4.1217 5.48841 4.77537 6.34974 4.87545C6.69591 4.91576 7.3988 5.396 7.9838 5.99201L9.01013 7.03779L8.02388 8.02404L7.03763 9.01029L5.9799 7.97201C5.31638 7.32092 4.92193 6.72725 4.92193 6.37943C4.92193 5.58608 4.12458 5.78225 4.0299 6.59904C3.8738 7.94108 2.18091 8.51506 1.36177 7.5035C1.01302 7.07272 0.937551 6.5449 0.937551 4.53397C0.937551 2.24975 0.97552 2.05029 1.51294 1.51311C2.05364 0.972169 2.24185 0.937716 4.6599 0.937716C7.15904 0.937716 7.24529 0.955059 7.71732 1.55529ZM25.4794 5.85959C25.6805 6.25897 25.7752 7.67647 25.7771 10.3127C25.7794 13.8954 25.7417 14.2404 25.2638 15.0002L24.7479 15.8205L24.56 14.2165C24.4568 13.3343 24.1093 11.955 23.7877 11.1513C23.037 9.2749 22.932 5.81014 23.6133 5.40397C24.2834 5.00459 25.1565 5.21787 25.4794 5.85959ZM18.5691 6.96725C20.5252 7.88248 21.8787 9.23647 22.8162 11.2148C23.4746 12.6042 23.5547 13.0029 23.5547 14.883C23.5547 16.6828 23.4622 17.1897 22.9247 18.3365C22.0566 20.189 21.2768 21.1474 19.8507 22.1147C14.1636 25.9718 6.5356 22.2656 6.14115 15.4537C6.0706 14.2354 6.15755 13.2605 6.41536 12.3731C7.89825 7.27264 13.7037 4.69029 18.5691 6.96725ZM12.8063 9.05459C10.5408 9.75045 8.67193 12.3851 8.67193 14.883C8.67193 18.5257 11.9712 21.4385 15.5858 20.9869C19.0981 20.5481 21.6556 17.0215 20.9 13.6587C20.5512 12.1059 19.5324 10.5872 18.3275 9.82287C16.441 8.62662 14.8988 8.41193 12.8063 9.05459ZM16.5235 9.86858C18.3497 10.3683 20.1563 12.8618 20.1563 14.883C20.1563 17.5879 17.574 20.1565 14.854 20.1565C12.9289 20.1565 11.0644 19.0001 10.2031 17.2715C8.09982 13.0509 11.8972 8.60318 16.5235 9.86858ZM23.9063 21.9143C24.4756 22.4944 25.058 22.969 25.2003 22.969C25.3428 22.969 25.7623 22.6526 26.1329 22.2658C26.9525 21.4104 27.7475 21.3604 28.2535 22.1329C28.6679 22.7655 28.5218 23.2401 27.6781 24.004C26.9829 24.633 27.0601 25.0047 28.1251 26.1602C29.1436 27.2653 29.2583 27.7415 28.6976 28.5417C28.1269 29.3566 27.1918 29.2146 25.954 28.1252C25.3683 27.6096 24.7932 27.1877 24.676 27.1877C24.5586 27.1877 24.1597 27.5041 23.7891 27.8908C23.0241 28.6891 22.606 28.7625 21.9912 28.2061C21.3657 27.6401 21.4646 26.9597 22.2968 26.1009L23.0311 25.3432L21.908 24.0286L20.7847 22.7137L21.6898 21.7865C22.1879 21.2768 22.6573 20.8596 22.7333 20.8596C22.8092 20.8596 23.337 21.3342 23.9063 21.9143Z" fill="#9393AA"/>
</svg>
