<svg width="16" height="20" viewBox="0 0 16 20" fill="none" xmlns="http://www.w3.org/2000/svg">
<path d="M1.5 19.0004V1.00294H10.7812L14.3129 3.82833V19.0004H1.5Z" stroke="#FF6924" stroke-width="2"/>
<path d="M15.0394 3.12806L11.3362 0.165468C11.2273 0.0771684 11.0957 0.0215648 10.9565 0.00511767C10.8173 -0.0113295 10.6763 0.0120549 10.5499 0.0725539C10.4234 0.133053 10.3168 0.228183 10.2422 0.346892C10.1677 0.465602 10.1284 0.603017 10.1289 0.743173V3.70576C10.1289 3.90219 10.2069 4.09058 10.3458 4.22948C10.4847 4.36838 10.6731 4.44641 10.8696 4.44641H14.5728C14.7264 4.44706 14.8765 4.39991 15.0022 4.31148C15.1278 4.22306 15.2229 4.09774 15.2741 3.95289C15.3254 3.80804 15.3303 3.65083 15.2883 3.50304C15.2462 3.35526 15.1593 3.22421 15.0394 3.12806Z" fill="#FF6924"/>
<path d="M9.38683 13.3338H8.64618V12.5932C8.64618 12.3968 8.56815 12.2084 8.42925 12.0695C8.29036 11.9306 8.10197 11.8525 7.90554 11.8525C7.7091 11.8525 7.52072 11.9306 7.38182 12.0695C7.24292 12.2084 7.16489 12.3968 7.16489 12.5932V13.3338H6.42424C6.22781 13.3338 6.03942 13.4119 5.90052 13.5508C5.76163 13.6897 5.68359 13.878 5.68359 14.0745C5.68359 14.2709 5.76163 14.4593 5.90052 14.5982C6.03942 14.7371 6.22781 14.8151 6.42424 14.8151H7.16489V15.5558C7.16489 15.7522 7.24292 15.9406 7.38182 16.0795C7.52072 16.2184 7.7091 16.2964 7.90554 16.2964C8.10197 16.2964 8.29036 16.2184 8.42925 16.0795C8.56815 15.9406 8.64618 15.7522 8.64618 15.5558V14.8151H9.38683C9.58326 14.8151 9.77165 14.7371 9.91055 14.5982C10.0494 14.4593 10.1275 14.2709 10.1275 14.0745C10.1275 13.878 10.0494 13.6897 9.91055 13.5508C9.77165 13.4119 9.58326 13.3338 9.38683 13.3338Z" fill="#FF6924"/>
<path d="M4.20354 6.6688H11.61C11.8064 6.6688 11.9948 6.59076 12.1337 6.45186C12.2726 6.31297 12.3507 6.12458 12.3507 5.92815C12.3507 5.73172 12.2726 5.54333 12.1337 5.40443C11.9948 5.26553 11.8064 5.1875 11.61 5.1875H4.20354C4.00711 5.1875 3.81872 5.26553 3.67982 5.40443C3.54092 5.54333 3.46289 5.73172 3.46289 5.92815C3.46289 6.12458 3.54092 6.31297 3.67982 6.45186C3.81872 6.59076 4.00711 6.6688 4.20354 6.6688Z" fill="#FF6924"/>
<path d="M11.61 7.40918H4.20354C4.00711 7.40918 3.81872 7.48721 3.67982 7.62611C3.54092 7.76501 3.46289 7.9534 3.46289 8.14983C3.46289 8.34626 3.54092 8.53465 3.67982 8.67354C3.81872 8.81244 4.00711 8.89048 4.20354 8.89048H11.61C11.8064 8.89048 11.9948 8.81244 12.1337 8.67354C12.2726 8.53465 12.3507 8.34626 12.3507 8.14983C12.3507 7.9534 12.2726 7.76501 12.1337 7.62611C11.9948 7.48721 11.8064 7.40918 11.61 7.40918Z" fill="#FF6924"/>
</svg>
