<svg width="24" height="24" viewBox="0 0 24 24" fill="none" xmlns="http://www.w3.org/2000/svg">
<path opacity="0.4" d="M15 7.2V16.79C15 20 13 22 9.8 22H7.21C4.01 22 2.01 20 2.01 16.8V7.2C2 4 4 2 7.2 2H9.8C13 2 15 4 15 7.2Z" fill="#FF6188"/>
<path d="M18.4296 8.12002L21.7796 11.47C22.0696 11.76 22.0696 12.24 21.7796 12.53L18.4296 15.88C18.1396 16.17 17.6596 16.17 17.3696 15.88C17.0796 15.59 17.0796 15.11 17.3696 14.82L19.4396 12.75H8.74957C8.33957 12.75 7.99957 12.41 7.99957 12C7.99957 11.59 8.33957 11.25 8.74957 11.25H19.4396L17.3696 9.18002C17.2196 9.03002 17.1496 8.84002 17.1496 8.65002C17.1496 8.46002 17.2196 8.26002 17.3696 8.12002C17.6596 7.82002 18.1296 7.82002 18.4296 8.12002Z" fill="#FF6188"/>
</svg>
