<svg width="24" height="24" viewBox="0 0 24 24" fill="none" xmlns="http://www.w3.org/2000/svg">
<path d="M22 9.00002V15C22 17.5 21.5 19.25 20.38 20.38L14 14L21.73 6.27002C21.91 7.06002 22 7.96002 22 9.00002Z" stroke="#FF6924" stroke-width="1.5" stroke-linecap="round" stroke-linejoin="round"/>
<path d="M21.73 6.27L6.26999 21.73C3.25999 21.04 2 18.96 2 15V9C2 4 4 2 9 2H15C18.96 2 21.04 3.26 21.73 6.27Z" stroke="#FF6924" stroke-width="1.5" stroke-linecap="round" stroke-linejoin="round"/>
<path d="M20.3795 20.38C19.2495 21.5 17.4995 22 14.9995 22H8.99954C7.95954 22 7.05953 21.91 6.26953 21.73L13.9995 14L20.3795 20.38Z" stroke="#FF6924" stroke-width="1.5" stroke-linecap="round" stroke-linejoin="round"/>
<path d="M6.24026 7.98021C6.92026 5.05021 11.3203 5.05021 12.0003 7.98021C12.3903 9.70021 11.3103 11.1602 10.3603 12.0602C9.67026 12.7202 8.58028 12.7202 7.88028 12.0602C6.93028 11.1602 5.84026 9.70021 6.24026 7.98021Z" stroke="#FF6924" stroke-width="1.5"/>
<path d="M9.09412 8.7002H9.1031" stroke="#FF6924" stroke-width="2" stroke-linecap="round" stroke-linejoin="round"/>
</svg>
