<svg width="31" height="31" viewBox="0 0 31 31" fill="none" xmlns="http://www.w3.org/2000/svg">
<path d="M15.4998 27.9C21.6633 27.9 26.6598 22.7647 26.6598 16.43C26.6598 10.0953 21.6633 4.95996 15.4998 4.95996C9.33635 4.95996 4.33984 10.0953 4.33984 16.43C4.33984 22.7647 9.33635 27.9 15.4998 27.9Z" stroke="#FF6924" stroke-width="2" stroke-miterlimit="10" stroke-linecap="round"/>
<path d="M15.5 16.7401V8.06006" stroke="#FF6924" stroke-width="2" stroke-miterlimit="10" stroke-linecap="round"/>
<path d="M15.5 16.7397H10.54" stroke="#FF6924" stroke-width="2" stroke-miterlimit="10" stroke-linecap="round"/>
<path d="M7.43984 24.7998L4.33984 27.8998" stroke="#FF6924" stroke-width="2" stroke-miterlimit="10" stroke-linecap="round"/>
<path d="M23.5596 24.7998L26.6596 27.8998" stroke="#FF6924" stroke-width="2" stroke-miterlimit="10" stroke-linecap="round"/>
<path d="M27.3015 8.73162C27.6808 8.06588 27.9001 7.29837 27.9001 6.47735C27.9001 3.95552 25.8562 1.91162 23.3344 1.91162C22.5133 1.91162 21.7458 2.13091 21.0801 2.51021L27.3015 8.73162Z" stroke="#FF6924" stroke-width="1.5" stroke-miterlimit="10" stroke-linecap="round"/>
<path d="M3.6982 8.73162C3.3189 8.06588 3.09961 7.29837 3.09961 6.47735C3.09961 3.95552 5.14351 1.91162 7.66534 1.91162C8.48636 1.91162 9.25387 2.13091 9.91961 2.51021L3.6982 8.73162Z" stroke="#FF6924" stroke-width="1.5" stroke-miterlimit="10" stroke-linecap="round"/>
</svg>
