<svg width="24" height="24" viewBox="0 0 24 24" fill="none" xmlns="http://www.w3.org/2000/svg">
<path d="M9.5 16.5V22.5H14.5V16.5H9.5Z" fill="#FF6924"/>
<path d="M20 24H4C3.60218 24 3.22064 23.842 2.93934 23.5607C2.65804 23.2794 2.5 22.8978 2.5 22.5V6.5C2.5 6.10218 2.65804 5.72064 2.93934 5.43934C3.22064 5.15804 3.60218 5 4 5H7.5V7H4.5V22H19.5V7H16.5V5H20C20.3978 5 20.7794 5.15804 21.0607 5.43934C21.342 5.72064 21.5 6.10218 21.5 6.5V22.5C21.5 22.8978 21.342 23.2794 21.0607 23.5607C20.7794 23.842 20.3978 24 20 24Z" fill="#FF6924"/>
<path d="M9.5 4.5V6.5H14.5V4.5H9.5Z" fill="#FF6924"/>
<path d="M11 8H13V3H11V8Z" fill="#FF6924"/>
<path d="M16 11H8C7.60218 11 7.22064 10.842 6.93934 10.5607C6.65804 10.2794 6.5 9.89782 6.5 9.5V1.5C6.5 1.10218 6.65804 0.720644 6.93934 0.43934C7.22064 0.158035 7.60218 0 8 0L16 0C16.3978 0 16.7794 0.158035 17.0607 0.43934C17.342 0.720644 17.5 1.10218 17.5 1.5V9.5C17.5 9.89782 17.342 10.2794 17.0607 10.5607C16.7794 10.842 16.3978 11 16 11ZM8.5 9H15.5V2H8.5V9Z" fill="#FF6924"/>
</svg>
