<svg width="288" height="288" viewBox="0 0 288 288" fill="none" xmlns="http://www.w3.org/2000/svg">
<path d="M64.7193 160.799H34.5542V201.883H64.7193V160.799Z" fill="#FF6924"/>
<path d="M40.6021 169.405C42.0019 169.405 43.1365 168.27 43.1365 166.87C43.1365 165.471 42.0019 164.336 40.6021 164.336C39.2024 164.336 38.0677 165.471 38.0677 166.87C38.0677 168.27 39.2024 169.405 40.6021 169.405Z" fill="#FFDBCB"/>
<path d="M40.6021 197.582C42.0019 197.582 43.1365 196.448 43.1365 195.048C43.1365 193.648 42.0019 192.514 40.6021 192.514C39.2024 192.514 38.0677 193.648 38.0677 195.048C38.0677 196.448 39.2024 197.582 40.6021 197.582Z" fill="#FFDBCB"/>
<path d="M180.415 266.011C186.854 263.805 192.306 260.957 197.084 257.268C200.836 254.348 204.193 250.953 207.072 247.17C209.01 244.662 211.225 240.872 213.512 236.097" stroke="#CCDDE2" stroke-width="1.5" stroke-miterlimit="10"/>
<path d="M232.292 162.982C233.271 149.23 232.667 135.415 229.614 122.803C223.379 97.1307 206.965 76.4638 173.013 71.6514" stroke="#CCDDE2" stroke-width="1.5" stroke-miterlimit="10"/>
<path d="M76.2999 122.135C75.937 119.324 75.5626 116.522 75.2256 113.729C68.256 56.7881 115.5 59.0003 115.5 59.0003" stroke="#CCDDE2" stroke-width="1.5" stroke-miterlimit="10"/>
<path d="M59.3452 202.464C56.5344 204.627 53.5852 206.672 50.7254 208.8C43.2172 214.442 37.8201 221.103 35.2656 230.265C32.2502 241.102 33.6124 253.448 41.4115 261.988C49.4265 270.757 61.8825 273.355 73.2931 273.355H91.4371" stroke="#CCDDE2" stroke-width="1.5" stroke-miterlimit="10"/>
<path d="M39.8477 189.334V173.022C43.56 173.022 46.5696 170.412 46.5696 167.193V166.752H64.7136V195.155H47.4048C47.4048 191.886 44.303 189.256 40.5302 189.328L39.8477 189.334Z" fill="#FFDBCB"/>
<path d="M56.422 181.152C56.422 183.405 57.3171 185.566 58.9104 187.159C60.5037 188.753 62.6647 189.648 64.918 189.648V172.656C63.8022 172.655 62.6972 172.875 61.6663 173.302C60.6353 173.729 59.6986 174.354 58.9096 175.143C58.1206 175.932 57.4948 176.869 57.0679 177.9C56.6411 178.931 56.4216 180.036 56.422 181.152Z" fill="#FF6924"/>
<path d="M89.4038 268.568H114.01C115.355 268.568 116.444 267.479 116.444 266.135V249.598C116.444 248.254 115.355 247.164 114.01 247.164H89.4038C88.0597 247.164 86.9702 248.254 86.9702 249.598V266.135C86.9702 267.479 88.0597 268.568 89.4038 268.568Z" fill="#FF6924"/>
<path d="M74.955 268.569H84.8218C85.3919 268.569 85.9387 268.342 86.3421 267.94C86.7454 267.537 86.9724 266.99 86.9732 266.42V251.035C86.9744 250.896 86.9476 250.758 86.8945 250.629C86.8414 250.5 86.7629 250.383 86.6639 250.285C86.5648 250.187 86.4471 250.11 86.3177 250.058C86.1883 250.007 86.0498 249.981 85.9105 249.984L80.4212 250.033C80.2738 250.036 80.1288 250.071 79.9957 250.135C79.8627 250.198 79.7446 250.289 79.6494 250.402L72.9994 258.273C71.9503 259.353 71.3617 260.799 71.3578 262.305V264.951C71.3552 265.426 71.4463 265.895 71.6258 266.334C71.8054 266.773 72.07 267.172 72.4043 267.508C72.7386 267.844 73.136 268.111 73.5737 268.293C74.0115 268.475 74.4809 268.569 74.955 268.569Z" fill="#FF6924"/>
<path d="M101.71 264.073C105.138 264.073 107.916 261.294 107.916 257.867C107.916 254.439 105.138 251.66 101.71 251.66C98.2824 251.66 95.5037 254.439 95.5037 257.867C95.5037 261.294 98.2824 264.073 101.71 264.073Z" fill="#FFDBCB"/>
<path d="M84.1334 257.389V253.04C84.1334 252.911 84.0825 252.788 83.9918 252.697C83.9012 252.606 83.7781 252.554 83.6495 252.553H81.2159C81.1419 252.554 81.0689 252.571 81.0026 252.604C80.9362 252.637 80.8782 252.685 80.8329 252.743L77.4719 257.092C77.4165 257.164 77.3824 257.25 77.3735 257.341C77.3645 257.431 77.381 257.522 77.4212 257.604C77.4614 257.685 77.5236 257.754 77.6007 257.802C77.6779 257.85 77.767 257.875 77.8579 257.875H83.6409C83.7053 257.876 83.7692 257.864 83.8289 257.84C83.8886 257.816 83.943 257.78 83.9888 257.735C84.0346 257.69 84.071 257.636 84.0958 257.576C84.1206 257.517 84.1334 257.453 84.1334 257.389Z" fill="#FFDBCB"/>
<path d="M113.936 268.522V268.565C113.951 269.205 113.839 269.842 113.605 270.438C113.371 271.034 113.02 271.577 112.572 272.036C112.125 272.494 111.591 272.858 111.001 273.107C110.41 273.356 109.777 273.484 109.136 273.484C108.496 273.484 107.862 273.356 107.272 273.107C106.682 272.858 106.147 272.494 105.7 272.036C105.253 271.577 104.902 271.034 104.668 270.438C104.434 269.842 104.321 269.205 104.337 268.565" fill="#FF6924"/>
<path d="M84.8218 268.565C84.8218 269.839 84.316 271.06 83.4156 271.96C82.5153 272.861 81.2941 273.366 80.0208 273.366C78.7475 273.366 77.5264 272.861 76.626 271.96C75.7257 271.06 75.2198 269.839 75.2198 268.565" fill="#FF6924"/>
<path d="M239.838 165.208V230.927C239.834 232.295 239.29 233.606 238.323 234.574C237.357 235.542 236.048 236.09 234.68 236.096H155.543L157.991 223.171C164.615 195.301 166.807 164.549 167.331 155.626C167.285 156.712 167.242 157.798 167.178 158.872C167.429 159.229 167.705 159.575 167.987 159.915C168.106 160.047 168.229 160.18 168.353 160.315C168.477 160.45 168.641 160.617 168.779 160.759C168.877 160.865 168.984 160.963 169.093 161.07L169.217 161.185C169.341 161.303 169.474 161.418 169.609 161.533C169.661 161.585 169.715 161.631 169.776 161.683C169.903 161.781 170.026 161.879 170.15 161.985C170.274 162.092 170.47 162.227 170.631 162.351C170.801 162.475 170.968 162.59 171.138 162.7C171.308 162.809 171.484 162.921 171.662 163.028C171.841 163.135 172.045 163.258 172.238 163.365C172.362 163.428 172.486 163.497 172.613 163.561C172.635 163.574 172.658 163.586 172.682 163.595C173.066 163.787 173.458 163.966 173.857 164.131C174.061 164.212 174.257 164.281 174.462 164.353C174.871 164.494 175.28 164.641 175.709 164.736L176.348 164.886C176.561 164.932 176.783 164.966 177.005 165.001C177.226 165.035 177.434 165.073 177.647 165.099H177.664C177.817 165.119 177.967 165.136 178.111 165.145C178.255 165.153 178.399 165.171 178.537 165.179C178.554 165.179 178.571 165.179 178.589 165.179C178.733 165.197 178.877 165.197 179.018 165.208H179.496C180.513 165.21 181.527 165.105 182.523 164.897C184.645 164.468 186.651 163.589 188.406 162.319C190.16 161.049 191.621 159.418 192.692 157.536C193.357 156.378 193.862 155.136 194.195 153.844C194.242 153.686 194.28 153.527 194.311 153.366C194.557 152.267 194.683 151.145 194.685 150.019C194.685 150.968 194.771 151.914 194.941 152.847C195.013 153.178 195.085 153.515 195.175 153.844C196.021 157.095 197.922 159.973 200.58 162.028C203.238 164.083 206.503 165.197 209.863 165.197C213.222 165.197 216.487 164.083 219.145 162.028C221.803 159.973 223.704 157.095 224.551 153.844C224.704 153.232 224.823 152.612 224.905 151.986C224.988 151.334 225.03 150.677 225.032 150.019C225.03 150.688 225.074 151.357 225.164 152.021C225.242 152.635 225.36 153.244 225.518 153.844C226.353 157.031 228.2 159.861 230.781 161.908C233.362 163.956 236.538 165.11 239.832 165.197L239.838 165.208Z" fill="#FFDBCB"/>
<path d="M245.894 164.114V252.107C245.888 253.473 245.343 254.782 244.377 255.749C243.411 256.715 242.103 257.261 240.736 257.268H152.165C152.813 251.021 154.022 243.905 155.5 236.097H234.68C236.048 236.09 237.357 235.543 238.324 234.575C239.29 233.606 239.834 232.295 239.838 230.927V165.209C239.962 165.209 240.088 165.209 240.212 165.209C240.286 165.213 240.36 165.213 240.434 165.209C242.307 165.189 244.159 164.818 245.894 164.114Z" fill="#FF6924"/>
<path d="M77.9183 159.434H77.6648C75.6496 159.434 74.0159 161.067 74.0159 163.083V163.336C74.0159 165.351 75.6496 166.985 77.6648 166.985H77.9183C79.9335 166.985 81.5672 165.351 81.5672 163.336V163.083C81.5672 161.067 79.9335 159.434 77.9183 159.434Z" fill="#FFDBCB"/>
<path d="M91.921 159.434H91.6675C89.6523 159.434 88.0186 161.067 88.0186 163.083V163.336C88.0186 165.351 89.6523 166.985 91.6675 166.985H91.921C93.9362 166.985 95.5699 165.351 95.5699 163.336V163.083C95.5699 161.067 93.9362 159.434 91.921 159.434Z" fill="#FFDBCB"/>
<path d="M105.924 159.434H105.67C103.655 159.434 102.021 161.067 102.021 163.083V163.336C102.021 165.351 103.655 166.985 105.67 166.985H105.924C107.939 166.985 109.572 165.351 109.572 163.336V163.083C109.572 161.067 107.939 159.434 105.924 159.434Z" fill="#FFDBCB"/>
<path d="M77.9183 171.095H77.6648C75.6496 171.095 74.0159 172.729 74.0159 174.744V174.998C74.0159 177.013 75.6496 178.647 77.6648 178.647H77.9183C79.9335 178.647 81.5672 177.013 81.5672 174.998V174.744C81.5672 172.729 79.9335 171.095 77.9183 171.095Z" fill="#FFDBCB"/>
<path d="M91.921 171.095H91.6675C89.6523 171.095 88.0186 172.729 88.0186 174.744V174.998C88.0186 177.013 89.6523 178.647 91.6675 178.647H91.921C93.9362 178.647 95.5699 177.013 95.5699 174.998V174.744C95.5699 172.729 93.9362 171.095 91.921 171.095Z" fill="#FFDBCB"/>
<path d="M105.924 171.095H105.67C103.655 171.095 102.021 172.729 102.021 174.744V174.998C102.021 177.013 103.655 178.647 105.67 178.647H105.924C107.939 178.647 109.572 177.013 109.572 174.998V174.744C109.572 172.729 107.939 171.095 105.924 171.095Z" fill="#FFDBCB"/>
<path d="M77.9183 182.756H77.6648C75.6496 182.756 74.0159 184.39 74.0159 186.405V186.659C74.0159 188.674 75.6496 190.308 77.6648 190.308H77.9183C79.9335 190.308 81.5672 188.674 81.5672 186.659V186.405C81.5672 184.39 79.9335 182.756 77.9183 182.756Z" fill="#FFDBCB"/>
<path d="M91.921 182.756H91.6675C89.6523 182.756 88.0186 184.39 88.0186 186.405V186.659C88.0186 188.674 89.6523 190.308 91.6675 190.308H91.921C93.9362 190.308 95.5699 188.674 95.5699 186.659V186.405C95.5699 184.39 93.9362 182.756 91.921 182.756Z" fill="#FFDBCB"/>
<path d="M105.924 182.756H105.67C103.655 182.756 102.021 184.39 102.021 186.405V186.659C102.021 188.674 103.655 190.308 105.67 190.308H105.924C107.939 190.308 109.572 188.674 109.572 186.659V186.405C109.572 184.39 107.939 182.756 105.924 182.756Z" fill="#FFDBCB"/>
<path d="M117.464 222.624C116.507 223.5 115.256 223.987 113.959 223.986H69.9436C68.565 223.987 67.2421 223.442 66.2638 222.471C65.2855 221.499 64.7313 220.181 64.7222 218.802V127.348C64.7245 125.964 65.2756 124.638 66.2545 123.661C67.2335 122.684 68.5603 122.135 69.9436 122.135H111.093L111.868 123.575C109.394 129.98 107.873 138.476 108.078 149.728C108.559 175.968 113.29 201.179 117.464 222.624Z" stroke="#CCDDE2" stroke-width="1.5" stroke-miterlimit="10"/>
<path d="M108.683 136.927H74.8454C74.3871 136.927 73.9476 137.109 73.6235 137.433C73.2995 137.757 73.1174 138.197 73.1174 138.655V151.327C73.1174 151.786 73.2995 152.225 73.6235 152.549C73.9476 152.873 74.3871 153.055 74.8454 153.055H108.167L108.683 136.927Z" fill="#FFDBCB"/>
<path d="M108.38 138.64H76.8672C76.0032 138.64 75.2688 139.251 75.2688 139.999V149.993C75.2688 150.742 75.9888 151.352 76.8672 151.352H107.899L108.38 138.64Z" fill="#FF6924"/>
<path d="M74.7907 203.4H109.109C110.028 203.4 110.773 202.655 110.773 201.735V198.34C110.773 197.42 110.028 196.675 109.109 196.675H74.7907C73.8714 196.675 73.1261 197.42 73.1261 198.34V201.735C73.1261 202.655 73.8714 203.4 74.7907 203.4Z" fill="#FFDBCB"/>
<path d="M108.38 199.774C108.379 199.916 108.348 200.056 108.288 200.186C108.229 200.315 108.142 200.43 108.035 200.522C107.343 201.153 106.79 201.92 106.412 202.776C106.033 203.632 105.837 204.558 105.837 205.493V232.565C105.837 233.293 105.694 234.014 105.415 234.687C105.136 235.359 104.728 235.97 104.213 236.485C103.698 236.999 103.087 237.407 102.414 237.686C101.742 237.964 101.021 238.107 100.293 238.106H99.8841C97.439 238.106 95.0371 236.151 94.7001 233.732C94.4826 232.262 93.717 230.928 92.557 230C91.3969 229.071 89.9285 228.616 88.4465 228.725C86.9645 228.834 85.5788 229.501 84.5677 230.59C83.5567 231.679 82.9951 233.11 82.9958 234.596V249.745C82.2758 249.851 80.7091 250.067 80.4326 250.067C80.1561 250.067 75.79 255.084 73.895 257.29H49.8758C49.2052 257.29 48.562 257.024 48.0878 256.55C47.6136 256.075 47.3472 255.432 47.3472 254.762V233.899C47.3475 233.126 47.5002 232.361 47.7964 231.647C48.0926 230.933 48.5266 230.284 49.0736 229.738C49.6205 229.192 50.2697 228.759 50.984 228.464C51.6984 228.169 52.4639 228.017 53.2368 228.018H65.7446C66.4638 228.02 67.1764 227.88 67.8413 227.606C68.5063 227.332 69.1104 226.929 69.619 226.42C70.1276 225.912 70.5305 225.308 70.8047 224.643C71.0789 223.978 71.2189 223.265 71.2166 222.546V205.493C71.2181 203.71 71.9271 202.001 73.1879 200.74C74.4488 199.479 76.1583 198.77 77.9414 198.769H107.384C107.649 198.77 107.903 198.877 108.09 199.065C108.276 199.254 108.381 199.508 108.38 199.774Z" fill="#FFDBCB"/>
<path d="M169.857 163.82C169.997 163.726 170.155 163.659 170.32 163.625C170.153 163.655 169.995 163.722 169.857 163.82Z" fill="#FF6924"/>
<path d="M177.215 91.8169H202.815C204.182 91.8237 205.49 92.3697 206.456 93.3362C207.422 94.3027 207.967 95.6115 207.973 96.9779V111.816C207.967 113.182 207.421 114.49 206.455 115.455C205.489 116.421 204.181 116.967 202.815 116.974H176.36C175.821 116.972 175.293 117.12 174.835 117.404C174.376 117.687 174.007 118.092 173.768 118.575C175.392 112.268 177.408 102.208 177.215 91.8169Z" fill="#FFDBCB"/>
<path d="M181.694 100.111L177.753 108.889H175.941L172 100.111H174.372L176.865 106.004L179.395 100.111H181.694Z" fill="#AF8B7B"/>
<path d="M182.192 100.111H184.478V107.015H188.139V108.889H182.192V100.111Z" fill="#AF8B7B"/>
<path d="M192.933 109C192.033 109 191.246 108.815 190.573 108.445C189.908 108.067 189.393 107.537 189.029 106.855C188.672 106.173 188.493 105.384 188.493 104.488C188.493 103.6 188.672 102.819 189.029 102.145C189.393 101.463 189.908 100.937 190.573 100.567C191.246 100.189 192.033 100 192.933 100C193.5 100 194.048 100.086 194.575 100.259C195.11 100.432 195.54 100.666 195.864 100.962L195.171 102.601C194.465 102.084 193.735 101.825 192.981 101.825C192.284 101.825 191.749 102.051 191.376 102.503C191.003 102.947 190.816 103.608 190.816 104.488C190.816 105.375 191.003 106.045 191.376 106.497C191.749 106.949 192.284 107.175 192.981 107.175C193.735 107.175 194.465 106.916 195.171 106.399L195.864 108.038C195.54 108.334 195.11 108.568 194.575 108.741C194.048 108.914 193.5 109 192.933 109Z" fill="#AF8B7B"/>
<path d="M201.069 109C200.169 109 199.382 108.815 198.709 108.445C198.044 108.067 197.53 107.537 197.165 106.855C196.808 106.173 196.63 105.384 196.63 104.488C196.63 103.6 196.808 102.819 197.165 102.145C197.53 101.463 198.044 100.937 198.709 100.567C199.382 100.189 200.169 100 201.069 100C201.636 100 202.184 100.086 202.711 100.259C203.246 100.432 203.676 100.666 204 100.962L203.307 102.601C202.601 102.084 201.872 101.825 201.117 101.825C200.42 101.825 199.885 102.051 199.512 102.503C199.139 102.947 198.953 103.608 198.953 104.488C198.953 105.375 199.139 106.045 199.512 106.497C199.885 106.949 200.42 107.175 201.117 107.175C201.872 107.175 202.601 106.916 203.307 106.399L204 108.038C203.676 108.334 203.246 108.568 202.711 108.741C202.184 108.914 201.636 109 201.069 109Z" fill="#AF8B7B"/>
<path d="M255.387 135.46V150.03C255.388 153.058 254.483 156.017 252.79 158.526C251.096 161.036 248.691 162.981 245.883 164.114C244.144 164.818 242.287 165.19 240.411 165.208C240.337 165.212 240.263 165.212 240.189 165.208C240.065 165.208 239.939 165.208 239.815 165.208C236.521 165.121 233.345 163.967 230.764 161.92C228.183 159.872 226.336 157.042 225.501 153.855C225.343 153.256 225.225 152.647 225.147 152.032C225.057 151.369 225.013 150.7 225.014 150.03C225.013 150.688 224.971 151.345 224.888 151.997C224.805 152.623 224.687 153.243 224.534 153.855C223.687 157.106 221.786 159.985 219.128 162.039C216.47 164.094 213.205 165.209 209.846 165.209C206.486 165.209 203.221 164.094 200.563 162.039C197.905 159.985 196.004 157.106 195.158 153.855C195.068 153.527 194.996 153.19 194.924 152.859C194.754 151.925 194.668 150.979 194.668 150.03C194.666 151.156 194.54 152.278 194.294 153.377C194.263 153.538 194.225 153.698 194.178 153.855C193.849 155.143 193.35 156.381 192.692 157.536C191.622 159.416 190.162 161.046 188.41 162.315C186.658 163.584 184.655 164.464 182.534 164.894C181.539 165.102 180.525 165.206 179.508 165.205H179.03C178.886 165.205 178.742 165.205 178.6 165.176C178.583 165.176 178.566 165.176 178.549 165.176C178.405 165.176 178.261 165.159 178.122 165.142C177.984 165.124 177.834 165.116 177.676 165.096H177.659C177.446 165.07 177.224 165.035 177.016 164.998C176.809 164.96 176.573 164.929 176.36 164.883L175.72 164.733C175.291 164.626 174.882 164.491 174.473 164.35C174.269 164.278 174.073 164.209 173.869 164.128C173.467 163.967 173.076 163.788 172.694 163.592C172.67 163.583 172.647 163.571 172.624 163.558C172.498 163.494 172.374 163.425 172.25 163.362C172.054 163.255 171.858 163.149 171.674 163.025C171.49 162.901 171.328 162.812 171.15 162.697C170.971 162.581 170.813 162.472 170.643 162.348C170.482 162.224 170.323 162.109 170.162 161.982C170.001 161.856 169.914 161.778 169.788 161.68C169.727 161.628 169.672 161.582 169.621 161.53C169.485 161.415 169.353 161.3 169.229 161.182L169.105 161.067C168.996 160.96 168.889 160.862 168.791 160.756C168.641 160.614 168.503 160.468 168.365 160.312C168.227 160.156 168.117 160.044 167.999 159.912C167.711 159.572 167.44 159.226 167.19 158.869C167.253 157.795 167.296 156.709 167.342 155.623C167.36 155.286 167.377 154.993 167.386 154.716C167.449 152.988 167.501 151.237 167.538 149.495C167.734 138.784 166.363 130.582 164.105 124.295L166.052 120.603C169.016 123.022 171.354 124.899 171.835 125.182C171.835 125.182 173.336 120.084 174.252 116.668C174.252 116.72 176.371 116.916 176.371 116.971L182.546 116.668C182.546 118.27 181.665 122.14 186.592 122.8H242.752C246.106 122.805 249.321 124.142 251.69 126.516C254.059 128.89 255.388 132.107 255.387 135.46Z" fill="#FFDBCB"/>
<path d="M164.448 125.229C164.448 125.229 168.365 137.227 167.403 156.206C167.403 156.206 170.885 161.914 179.787 161.914C188.052 161.914 192.027 156.286 194.216 148.954C194.245 148.856 194.305 148.77 194.387 148.71C194.469 148.649 194.569 148.616 194.671 148.616C194.773 148.616 194.872 148.649 194.954 148.71C195.036 148.77 195.096 148.856 195.126 148.954C196.309 152.969 200.16 162.712 209.736 163.282C219.2 163.858 223.341 153.738 224.695 149.328C224.725 149.229 224.787 149.142 224.872 149.082C224.956 149.021 225.059 148.99 225.163 148.993C225.266 148.996 225.367 149.033 225.448 149.098C225.528 149.163 225.586 149.253 225.611 149.354C226.567 153.179 229.758 161.162 239.872 162.421C239.937 162.429 240.003 162.429 240.068 162.421C241.71 162.407 243.334 162.081 244.855 161.462C247.314 160.468 249.42 158.762 250.903 156.563C252.386 154.363 253.177 151.771 253.175 149.118V136.325C253.175 133.382 252.006 130.56 249.925 128.479C247.844 126.398 245.021 125.229 242.078 125.229H164.448Z" fill="#FF6924"/>
<path d="M184.271 189.907V206.441C184.263 209.27 183.135 211.981 181.135 213.981C179.135 215.982 176.424 217.109 173.595 217.118H159.212C160.056 212.798 160.94 208.345 161.804 203.737C161.945 202.974 162.092 202.208 162.239 201.433C162.452 200.281 162.665 199.117 162.879 197.94C163.146 196.436 163.423 194.921 163.679 193.401C164.48 188.793 165.246 184.061 165.94 179.24H173.607C176.432 179.251 179.138 180.379 181.136 182.377C183.134 184.375 184.261 187.082 184.271 189.907Z" fill="#FF6924"/>
<path d="M203.003 217.12H219.142C224.836 217.12 229.453 212.504 229.453 206.81V189.541C229.453 183.847 224.836 179.231 219.142 179.231H203.003C197.308 179.231 192.692 183.847 192.692 189.541V206.81C192.692 212.504 197.308 217.12 203.003 217.12Z" fill="#FF6924"/>
<path d="M162.227 201.424H176.014V199.656C176.013 198.574 175.584 197.537 174.819 196.771C174.055 196.006 173.018 195.575 171.936 195.572H171.127V198.098C171.127 198.241 171.07 198.378 170.969 198.479C170.868 198.58 170.731 198.637 170.588 198.637C170.445 198.637 170.308 198.58 170.207 198.479C170.106 198.378 170.05 198.241 170.05 198.098V195.572H169.186V198.098C169.176 198.234 169.115 198.361 169.015 198.453C168.915 198.546 168.784 198.597 168.648 198.597C168.512 198.597 168.381 198.546 168.282 198.453C168.182 198.361 168.121 198.234 168.111 198.098V195.572H165.11" stroke="white" stroke-width="1.5" stroke-miterlimit="10"/>
<path d="M175.533 211.222C175.532 211.375 175.501 211.526 175.441 211.666C175.381 211.807 175.294 211.934 175.185 212.04C174.97 212.255 174.679 212.376 174.375 212.377H160.065C160.206 211.614 160.353 210.848 160.499 210.073H174.375C174.68 210.075 174.972 210.197 175.188 210.412C175.405 210.627 175.529 210.917 175.533 211.222V211.222Z" stroke="white" stroke-width="1.5" stroke-miterlimit="10"/>
<path d="M163.38 204.212C163.38 204.818 163.147 205.4 162.73 205.839C162.313 206.278 161.744 206.54 161.139 206.571C161.407 205.068 161.683 203.553 161.94 202.032C162.367 202.214 162.732 202.518 162.988 202.905C163.244 203.293 163.38 203.748 163.38 204.212V204.212Z" stroke="white" stroke-width="1.5" stroke-miterlimit="10"/>
<path d="M167.466 203.671V206.735C167.472 206.809 167.462 206.883 167.437 206.953C167.413 207.023 167.374 207.087 167.324 207.141C167.273 207.195 167.212 207.238 167.144 207.268C167.076 207.298 167.003 207.313 166.929 207.313C166.855 207.313 166.782 207.298 166.714 207.268C166.646 207.238 166.585 207.195 166.535 207.141C166.484 207.087 166.445 207.023 166.421 206.953C166.396 206.883 166.387 206.809 166.392 206.735V203.671C166.402 203.535 166.463 203.408 166.562 203.315C166.662 203.223 166.793 203.171 166.929 203.171C167.065 203.171 167.196 203.223 167.296 203.315C167.395 203.408 167.456 203.535 167.466 203.671V203.671Z" stroke="white" stroke-width="1.5" stroke-miterlimit="10"/>
<path d="M169.402 203.671V206.735C169.407 206.809 169.397 206.883 169.373 206.953C169.348 207.023 169.309 207.087 169.259 207.141C169.209 207.195 169.148 207.238 169.08 207.268C169.012 207.298 168.939 207.313 168.865 207.313C168.79 207.313 168.717 207.298 168.649 207.268C168.581 207.238 168.52 207.195 168.47 207.141C168.42 207.087 168.381 207.023 168.356 206.953C168.332 206.883 168.322 206.809 168.327 206.735V203.671C168.337 203.535 168.398 203.408 168.498 203.315C168.597 203.223 168.728 203.171 168.865 203.171C169.001 203.171 169.132 203.223 169.231 203.315C169.331 203.408 169.392 203.535 169.402 203.671Z" stroke="white" stroke-width="1.5" stroke-miterlimit="10"/>
<path d="M219.168 190.51C219.79 189.015 220.389 187.831 220.746 187.163C220.832 186.999 220.85 186.808 220.796 186.632C220.742 186.455 220.621 186.306 220.458 186.218L216.697 184.634C216.551 184.55 216.385 184.505 216.216 184.505C216.047 184.505 215.881 184.55 215.735 184.634C215.589 184.719 215.468 184.841 215.384 184.988C215.3 185.134 215.256 185.301 215.257 185.47V185.47C215.257 188.756 214.312 191.849 211.029 191.849C207.743 191.849 206.801 188.756 206.801 185.47V185.328C206.8 185.167 206.758 185.009 206.68 184.869C206.602 184.728 206.489 184.609 206.353 184.523C206.217 184.437 206.061 184.387 205.901 184.376C205.74 184.366 205.579 184.396 205.433 184.464L201.6 185.879C201.504 185.921 201.419 185.984 201.35 186.063C201.282 186.142 201.232 186.236 201.204 186.337C201.177 186.438 201.172 186.544 201.191 186.647C201.209 186.75 201.251 186.848 201.312 186.933L201.364 187.005C203.427 189.878 204.695 193.245 205.039 196.766C205.384 200.287 204.794 203.836 203.328 207.055L201.974 210.033C201.879 210.244 201.838 210.475 201.855 210.705C201.872 210.935 201.947 211.158 202.072 211.352C202.197 211.546 202.369 211.706 202.572 211.817C202.775 211.928 203.002 211.986 203.233 211.986H219.937C220.172 211.986 220.403 211.927 220.609 211.813C220.814 211.699 220.987 211.534 221.111 211.334C221.236 211.135 221.307 210.907 221.318 210.672C221.329 210.437 221.28 210.203 221.175 209.993L219.744 207.13C218.467 204.561 217.755 201.749 217.656 198.882C217.557 196.015 218.072 193.16 219.168 190.51V190.51Z" stroke="white" stroke-width="1.5" stroke-miterlimit="10"/>
<path d="M205.105 199.996H217.734" stroke="white" stroke-width="1.5" stroke-miterlimit="10"/>
<path d="M207.95 199.999C208.011 202.147 207.971 207.685 206.205 211.985" stroke="white" stroke-width="1.5" stroke-miterlimit="10"/>
<path d="M216.622 211.985C214.851 207.685 214.816 202.147 214.877 199.999" stroke="white" stroke-width="1.5" stroke-miterlimit="10"/>
<path d="M211.421 211.985V199.999" stroke="white" stroke-width="1.5" stroke-miterlimit="10"/>
<g opacity="0.54">
<path opacity="0.54" d="M139.257 273.367H189.677V273.205C189.676 271.868 189.144 270.585 188.198 269.639C187.252 268.694 185.969 268.163 184.631 268.163H184.545C183.883 268.163 183.227 268.033 182.615 267.779C182.004 267.526 181.448 267.154 180.98 266.686C180.512 266.218 180.141 265.662 179.889 265.05C179.636 264.438 179.506 263.782 179.508 263.12V257.265H152.165C152.165 257.265 149.619 270.291 148.62 272.293C148.506 272.557 148.341 272.796 148.134 272.996C147.927 273.195 147.682 273.351 147.414 273.455C147.145 273.559 146.859 273.607 146.572 273.599C146.284 273.59 146.001 273.524 145.74 273.404L139.257 273.367Z" fill="#FF6924"/>
</g>
<path d="M159.316 179.45V194.198C159.315 194.906 159.033 195.584 158.533 196.084C158.032 196.584 157.354 196.865 156.646 196.865H119.045C118.783 196.864 118.523 196.825 118.273 196.75C118.263 196.731 118.257 196.711 118.256 196.69C118.137 196.392 118.076 196.074 118.077 195.754V181.005C118.072 177.865 119.278 174.843 121.443 172.568C123.608 170.293 126.567 168.941 129.704 168.791C129.908 168.791 130.104 168.774 130.309 168.774H148.784C148.95 168.771 149.116 168.777 149.282 168.791C150.08 168.818 150.873 168.925 151.649 169.111C153.276 169.501 154.804 170.222 156.139 171.23C158.189 173.477 159.322 176.409 159.316 179.45Z" fill="#FFDBCB"/>
<path d="M171.916 125.407C171.743 125.298 171.577 125.18 171.418 125.053C170.493 124.367 168.538 122.792 166.188 120.871C159.926 115.765 150.86 108.199 150.86 108.199L150.558 109.302L149.34 113.723C149.34 113.723 149.34 113.723 149.322 113.723C137.664 119.848 128.534 114.546 128.16 114.336L127.236 110.448L126.985 109.397L110.681 121.372L105.61 125.116C102.969 117.838 87.552 71.6775 117.487 58.464C121.392 61.8106 129.413 66.8621 138.747 65.9002C139.216 65.857 139.689 65.7936 140.141 65.7332C141.754 65.5753 143.348 65.2628 144.901 64.8L144.953 64.7828C152.533 62.5565 157.729 57.4071 158.414 56.7188C190.633 72.288 171.916 125.407 171.916 125.407Z" fill="#FF6924"/>
<path d="M150.374 38.978C150.374 38.978 149.288 39.0414 148.13 39.0241C146.823 39.0241 145.434 38.8974 145.48 38.4798C145.541 37.9038 146.609 35.7755 146.664 34.3182C146.681 33.7422 146.546 33.2929 146.154 33.0625C145.123 32.4865 141.06 28.8462 138.807 26.3463C138.658 26.1764 138.519 26.018 138.381 25.8567C137.742 25.1194 137.33 24.5147 137.287 24.195C137.108 22.7895 134.859 29.5748 131.648 31.9076C131.648 31.9076 130.047 34.7876 128.497 34.9748C129.095 35.6475 129.494 36.4731 129.649 37.3595C129.686 37.5738 129.71 37.7902 129.721 38.0075C129.725 38.0794 129.725 38.1515 129.721 38.2235C129.721 40.2251 127.129 39.7355 126.118 39.5022C125.343 39.3265 123.687 38.8081 122.95 37.875V29.9147C122.95 29.9147 124.966 16.1626 139.257 15.5146C142.046 15.5697 144.782 16.2926 147.234 17.6228C147.248 17.6301 147.26 17.6388 147.272 17.6487C150.215 19.9527 152.787 23.8494 153.141 30.5223C153.138 30.5281 154.296 38.978 150.374 38.978Z" fill="#FF6924"/>
<path d="M117 58C117 58 125.999 66 137.746 66C149.492 66 158 58.4234 158 58.4234" stroke="#1E1F20" stroke-width="1.5" stroke-miterlimit="10"/>
<path d="M126.991 109.397L128.16 114.336L137.644 154.509C137.77 155.049 137.838 155.6 137.848 156.154C137.847 156.155 137.845 156.157 137.844 156.16C137.843 156.162 137.842 156.164 137.842 156.167C137.842 156.169 137.843 156.172 137.844 156.174C137.845 156.176 137.847 156.178 137.848 156.18C137.844 156.187 137.842 156.195 137.842 156.203C137.842 156.211 137.844 156.219 137.848 156.226C137.848 156.226 137.848 156.226 137.848 156.243V160.698H131.512C131.17 160.701 130.831 160.633 130.516 160.501C130.201 160.368 129.915 160.173 129.678 159.927V159.927C129.441 159.678 129.257 159.384 129.136 159.063C129.081 158.928 129.039 158.788 129.012 158.645C128.975 158.479 128.957 158.309 128.958 158.138V156.767C128.958 155.789 128.717 154.827 128.255 153.965L119.2 137.154L111.888 123.569L111.113 122.129L110.704 121.372" stroke="#1E1F20" stroke-width="1.5" stroke-miterlimit="10"/>
<path d="M150.857 108.208L138.108 154.368C137.927 155.025 137.836 155.703 137.837 156.384V160.704H144.766C145.445 160.704 146.096 160.434 146.576 159.954C147.057 159.474 147.326 158.823 147.326 158.144V156.592C147.327 155.594 147.58 154.612 148.061 153.737L166.176 120.868" stroke="#1E1F20" stroke-width="1.5" stroke-miterlimit="10"/>
<path d="M159.466 179.45V194.199C159.465 194.906 159.184 195.584 158.684 196.084C158.184 196.584 157.506 196.865 156.799 196.866H119.18C118.864 196.868 118.55 196.808 118.256 196.69C117.748 196.501 117.31 196.161 117.001 195.716C116.692 195.27 116.527 194.741 116.528 194.199V179.45C116.528 176.703 117.453 174.035 119.154 171.877C120.855 169.719 123.233 168.197 125.905 167.556C126.092 167.513 126.268 167.475 126.455 167.441C126.642 167.406 126.901 167.36 127.132 167.334C127.462 167.283 127.795 167.25 128.128 167.236H128.16C128.365 167.236 128.56 167.219 128.765 167.219H147.24C147.406 167.216 147.573 167.222 147.738 167.236C148.536 167.26 149.33 167.367 150.106 167.556C152.774 168.2 155.149 169.724 156.846 171.882C158.544 174.039 159.467 176.705 159.466 179.45V179.45Z" stroke="#1E1F20" stroke-width="1.5" stroke-miterlimit="10"/>
<path d="M147.329 157.429H148.628C148.82 157.428 149.011 157.466 149.189 157.539C149.367 157.612 149.529 157.719 149.665 157.855C149.802 157.99 149.91 158.151 149.984 158.329C150.058 158.507 150.097 158.697 150.097 158.889V167.552" stroke="#1E1F20" stroke-width="1.5" stroke-miterlimit="10"/>
<path d="M125.899 167.552V158.889C125.9 158.502 126.054 158.131 126.328 157.858C126.601 157.584 126.972 157.43 127.359 157.429H128.943" stroke="#1E1F20" stroke-width="1.5" stroke-miterlimit="10"/>
<path d="M146.609 159.912H147.09C147.174 159.912 147.258 159.929 147.336 159.961C147.413 159.993 147.484 160.041 147.543 160.1C147.603 160.16 147.65 160.231 147.682 160.309C147.714 160.387 147.73 160.47 147.73 160.554V167.233" stroke="#1E1F20" stroke-width="1.5" stroke-miterlimit="10"/>
<path d="M128.16 167.233V160.546C128.16 160.378 128.226 160.217 128.344 160.099C128.463 159.98 128.623 159.913 128.791 159.912H129.672" stroke="#1E1F20" stroke-width="1.5" stroke-miterlimit="10"/>
<path d="M152.562 258.875C152.464 260.289 152.286 261.696 152.029 263.091C151.407 266.498 150.088 271.008 147.367 273.09C146.442 272.531 144.487 270.599 143.142 264.07C143.546 264.719 144.116 265.247 144.794 265.599C145.472 265.951 146.232 266.114 146.995 266.072C147.168 266.066 147.34 266.052 147.511 266.028C151.37 265.441 152.438 259.623 152.562 258.875Z" fill="#1E1F20"/>
<path d="M135.095 258.875C134.996 260.289 134.819 261.696 134.562 263.091C133.94 266.498 132.624 271.008 129.902 273.09C128.975 272.531 127.022 270.599 125.677 264.07C126.081 264.718 126.651 265.246 127.328 265.598C128.006 265.951 128.766 266.114 129.528 266.072C129.7 266.066 129.872 266.052 130.043 266.028C133.92 265.441 134.971 259.623 135.095 258.875Z" fill="#1E1F20"/>
<path d="M122.556 29.6814C122.601 25.6616 124.227 21.8213 127.083 18.9916C129.938 16.1618 133.793 14.5702 137.813 14.5611C141.833 14.552 145.695 16.1262 148.563 18.943C151.431 21.7598 153.075 25.5927 153.138 29.6123V29.6814" stroke="#1E1F20" stroke-width="1.5" stroke-miterlimit="10"/>
<path d="M136.077 44.876C136.077 44.876 136.077 44.876 136.094 44.876C136.677 44.9409 137.262 44.9736 137.848 44.9739C138.053 44.9739 138.249 44.9739 138.453 44.9566C138.47 44.9566 138.488 44.9566 138.505 44.9566" stroke="#1E1F20" stroke-width="1.5" stroke-miterlimit="10"/>
<path d="M128.756 34.5171C129.029 36.2051 129.518 37.8508 130.213 39.4131C131.308 41.7545 133.151 44.263 136.077 44.8851C136.077 44.8851 136.077 44.8851 136.094 44.8851C136.843 45.0442 137.613 45.0773 138.372 44.983C138.4 44.9812 138.427 44.9753 138.453 44.9657C138.47 44.9657 138.488 44.9657 138.505 44.9657C142.154 44.4848 144.242 41.7257 145.417 38.9869C146.191 37.2106 146.69 35.3265 146.894 33.3997C141.558 31.3549 137.457 23.9043 137.457 23.9043C137.457 23.9043 132.803 32.3369 128.756 34.5171Z" stroke="#1E1F20" stroke-width="1.5" stroke-miterlimit="10"/>
<path d="M151.805 261.605C151.831 261.286 151.946 260.629 151.972 260.309C153.988 235.057 166.792 193.888 167.602 149.732C167.797 139.021 166.429 130.819 164.169 124.529" stroke="#1E1F20" stroke-width="1.5" stroke-miterlimit="10"/>
<path d="M141.013 258.794L139.118 196.866" stroke="#1E1F20" stroke-width="1.5" stroke-miterlimit="10"/>
<path d="M141.025 258.875C141.085 259.908 141.826 270.262 146.592 273.367C146.592 273.367 150.071 272.71 151.825 261.423" stroke="#1E1F20" stroke-width="1.5" stroke-miterlimit="10"/>
<path d="M151.975 260.297C151.281 263.053 150.06 266.166 146.592 266.057C142.315 265.933 141.158 259.635 141.025 258.857C141.023 258.83 141.023 258.803 141.025 258.776" stroke="#1E1F20" stroke-width="1.5" stroke-miterlimit="10"/>
<path d="M111.868 123.566C109.394 129.972 107.873 138.468 108.078 149.72C108.559 175.968 113.291 201.18 117.464 222.624C120.309 237.231 122.898 250.085 123.708 260.315C123.704 260.338 123.704 260.363 123.708 260.387C123.742 260.706 123.84 261.383 123.886 261.746C123.887 261.797 123.893 261.848 123.903 261.899" stroke="#1E1F20" stroke-width="1.5" stroke-miterlimit="10"/>
<path d="M136.549 196.866L134.643 259.143" stroke="#1E1F20" stroke-width="1.5" stroke-miterlimit="10"/>
<path d="M134.649 258.875C134.588 259.908 133.848 270.262 129.082 273.367C129.082 273.367 125.626 272.894 123.869 261.608" stroke="#1E1F20" stroke-width="1.5" stroke-miterlimit="10"/>
<path d="M123.699 260.297C124.393 263.053 125.617 266.166 129.082 266.057C133.358 265.933 134.516 259.635 134.649 258.857C134.651 258.83 134.651 258.803 134.649 258.776" stroke="#1E1F20" stroke-width="1.5" stroke-miterlimit="10"/>
<path d="M122.556 29.1826V35.9103C122.556 36.8371 122.925 37.7256 123.581 38.3807C124.236 39.0358 125.125 39.4037 126.052 39.4037H130.213" stroke="#1E1F20" stroke-width="1.5" stroke-miterlimit="10"/>
<path d="M153.138 29.6152V35.741C153.138 37.5266 151.698 38.9752 150.791 38.9752H145.766" stroke="#1E1F20" stroke-width="1.5" stroke-miterlimit="10"/>
<path d="M131.648 41.8262L131.023 51.5174C130.998 51.8532 130.856 52.1697 130.622 52.4117C130.388 52.6537 130.076 52.8061 129.741 52.8422C81.0355 64.3409 106.094 127.776 105.192 125.418L126.985 109.405L121.418 87.3791" stroke="#1E1F20" stroke-width="1.5" stroke-miterlimit="10"/>
<path d="M143.772 41.8262L144.878 51.8399C144.916 52.1543 145.057 52.4473 145.278 52.6738C145.499 52.9003 145.789 53.0475 146.102 53.0927C194.887 60.2092 171.907 125.407 171.907 125.407C170.421 124.517 150.851 108.204 150.851 108.204L156.784 87.4511" stroke="#1E1F20" stroke-width="1.5" stroke-miterlimit="10"/>
<path d="M128.16 114.335C128.16 114.335 137.451 119.997 149.342 113.739" stroke="#1E1F20" stroke-width="1.5" stroke-miterlimit="10"/>
<path d="M128.756 34.5166C127.999 34.9025 127.205 35.2113 126.386 35.4382" stroke="#1E1F20" stroke-width="1.5" stroke-miterlimit="10"/>
<path d="M146.903 33.3906C147.572 33.6298 148.258 33.8223 148.954 33.9666" stroke="#1E1F20" stroke-width="1.5" stroke-miterlimit="10"/>
<path d="M127.279 46.7164C128.629 46.7164 129.724 45.6217 129.724 44.2713C129.724 42.9209 128.629 41.8262 127.279 41.8262C125.928 41.8262 124.834 42.9209 124.834 44.2713C124.834 45.6217 125.928 46.7164 127.279 46.7164Z" stroke="#1E1F20" stroke-width="1.5" stroke-miterlimit="10"/>
<path d="M147.928 46.7164C149.279 46.7164 150.373 45.6217 150.373 44.2713C150.373 42.9209 149.279 41.8262 147.928 41.8262C146.578 41.8262 145.483 42.9209 145.483 44.2713C145.483 45.6217 146.578 46.7164 147.928 46.7164Z" stroke="#1E1F20" stroke-width="1.5" stroke-miterlimit="10"/>
<path d="M129.727 44.2712C129.725 44.7539 129.581 45.2253 129.312 45.6262C129.043 46.0271 128.661 46.3395 128.215 46.5241C127.769 46.7088 127.279 46.7575 126.805 46.6641C126.332 46.5707 125.896 46.3394 125.554 45.9992C125.316 45.4783 125.269 44.8907 125.42 44.3385C125.571 43.7863 125.911 43.3045 126.38 42.9768C126.85 42.6491 127.419 42.4963 127.989 42.545C128.56 42.5936 129.095 42.8406 129.502 43.2431C129.655 43.5639 129.732 43.9158 129.727 44.2712Z" fill="#1E1F20"/>
<path d="M150.373 44.2712C150.372 44.7539 150.229 45.2256 149.96 45.6267C149.692 46.0278 149.31 46.3405 148.864 46.5253C148.418 46.7101 147.928 46.7587 147.454 46.6651C146.981 46.5715 146.545 46.3398 146.203 45.9992C145.966 45.4783 145.918 44.8906 146.069 44.3385C146.22 43.7863 146.56 43.3045 147.03 42.9768C147.499 42.6491 148.068 42.4963 148.639 42.545C149.209 42.5936 149.744 42.8406 150.152 43.2431C150.302 43.5647 150.378 43.9162 150.373 44.2712Z" fill="#1E1F20"/>
<path d="M127.279 41.8261V35.1416" stroke="#1E1F20" stroke-width="1.5" stroke-miterlimit="10"/>
<path d="M147.928 41.826V33.7217" stroke="#1E1F20" stroke-width="1.5" stroke-miterlimit="10"/>
<path d="M129.655 159.912H128.791C128.623 159.913 128.463 159.98 128.345 160.098C128.226 160.217 128.16 160.378 128.16 160.545V167.233C127.401 167.268 126.647 167.375 125.908 167.552V158.889C125.909 158.502 126.063 158.131 126.336 157.858C126.61 157.584 126.981 157.43 127.368 157.429H128.943V158.132C128.939 158.795 129.195 159.434 129.655 159.912Z" fill="#1E1F20"/>
<path d="M146.609 159.912H147.473C147.641 159.913 147.801 159.98 147.919 160.098C148.038 160.217 148.104 160.378 148.104 160.545V167.233C148.862 167.268 149.615 167.375 150.353 167.552V158.889C150.353 158.503 150.2 158.132 149.927 157.858C149.653 157.584 149.283 157.43 148.896 157.429H147.321V158.132C147.323 158.795 147.068 159.433 146.609 159.912Z" fill="#1E1F20"/>
<path d="M189.677 273.367H73.2931" stroke="#1E1F20" stroke-width="1.5" stroke-miterlimit="10"/>
<path d="M141.028 33.6791C141.537 33.6791 141.949 33.2665 141.949 32.7575C141.949 32.2486 141.537 31.8359 141.028 31.8359C140.519 31.8359 140.106 32.2486 140.106 32.7575C140.106 33.2665 140.519 33.6791 141.028 33.6791Z" fill="#1E1F20"/>
<path d="M133.767 33.6791C134.276 33.6791 134.689 33.2665 134.689 32.7575C134.689 32.2486 134.276 31.8359 133.767 31.8359C133.258 31.8359 132.846 32.2486 132.846 32.7575C132.846 33.2665 133.258 33.6791 133.767 33.6791Z" fill="#1E1F20"/>
<path d="M129.024 31.0144C129.56 30.9885 137.29 31.0144 137.29 31.0144L135.988 35.2855H131.19L129.024 31.0144Z" fill="#FF6924"/>
<path d="M137.505 31.0144C138.038 30.9885 145.771 31.0144 145.771 31.0144L143.579 35.2855H138.796L137.505 31.0144Z" fill="#FF6924"/>
<path d="M129.024 31.0144C129.56 30.9885 137.29 31.0144 137.29 31.0144L135.988 35.2855H131.19L129.024 31.0144Z" stroke="#1E1F20" stroke-width="1.5" stroke-miterlimit="10"/>
<path d="M137.505 31.0144C138.038 30.9885 145.771 31.0144 145.771 31.0144L143.579 35.2855H138.796L137.505 31.0144Z" stroke="#1E1F20" stroke-width="1.5" stroke-miterlimit="10"/>
<path d="M135.564 38.9754C135.564 38.9754 138.197 39.8394 138.9 38.4829" stroke="#1E1F20" stroke-width="1.5" stroke-miterlimit="10"/>
<path d="M151.727 261.608C151.756 261.288 151.871 260.629 151.897 260.309C151.97 259.393 152.059 258.456 152.165 257.498C152.813 251.255 154.022 244.138 155.5 236.327C156.122 233.01 156.79 229.557 157.484 225.991C158.328 221.686 159.212 217.219 160.062 212.611C160.206 211.847 160.35 211.081 160.5 210.307C160.713 209.155 160.926 207.989 161.139 206.81C161.407 205.307 161.683 203.795 161.94 202.274C162.74 197.666 163.506 192.935 164.2 188.113C164.661 184.945 165.09 181.734 165.462 178.488C166.219 172.152 166.815 165.678 167.19 159.115C167.36 156.01 167.478 152.877 167.538 149.737C167.734 139.027 166.363 130.824 164.105 124.537L166.052 120.845C169.016 123.264 171.354 125.142 171.835 125.427C171.835 125.427 172.555 123.38 173.471 119.955C173.569 119.59 173.676 119.209 173.782 118.803C175.401 112.496 177.431 102.433 177.238 92.0452C176.918 74.8228 170.496 56.6673 146.042 53.099C145.73 53.0526 145.441 52.9049 145.221 52.6785C145.001 52.4521 144.861 52.1597 144.824 51.8462" stroke="#1E1F20" stroke-width="1.5" stroke-miterlimit="10"/>
<path d="M97.7615 208.639H78.572" stroke="white" stroke-width="1.5" stroke-miterlimit="10"/>
<path d="M97.7615 213.483H78.572" stroke="white" stroke-width="1.5" stroke-miterlimit="10"/>
<path d="M97.7615 218.327H78.572" stroke="white" stroke-width="1.5" stroke-miterlimit="10"/>
<path d="M97.7615 223.174H78.572" stroke="white" stroke-width="1.5" stroke-miterlimit="10"/>
<path d="M74.3155 235.895H55.1261" stroke="white" stroke-width="1.5" stroke-miterlimit="10"/>
<path d="M74.3155 240.489H55.1261" stroke="white" stroke-width="1.5" stroke-miterlimit="10"/>
<path d="M74.3155 245.084H55.1261" stroke="white" stroke-width="1.5" stroke-miterlimit="10"/>
<path d="M74.3155 249.682H55.1261" stroke="white" stroke-width="1.5" stroke-miterlimit="10"/>
<path d="M97.7615 228.018H78.572" stroke="white" stroke-width="1.5" stroke-miterlimit="10"/>
<path d="M97.7587 233.098H93.1334" stroke="white" stroke-width="1.5" stroke-miterlimit="10"/>
<path d="M99.8842 238.095H82.9844V234.573C82.9837 233.087 83.5452 231.656 84.5563 230.567C85.5674 229.478 86.9531 228.812 88.435 228.702C89.917 228.593 91.3855 229.049 92.5455 229.977C93.7055 230.906 94.4712 232.239 94.6887 233.709C95.04 236.14 97.4391 238.095 99.8842 238.095Z" fill="#FF6924"/>
</svg>
