<svg width="18" height="20" viewBox="0 0 18 20" fill="none" xmlns="http://www.w3.org/2000/svg">
<path fill-rule="evenodd" clip-rule="evenodd" d="M12.5256 6.38738L11.2931 5.11919L5.13057 11.4627C4.10934 12.5133 4.10934 14.2178 5.13057 15.2685C6.15118 16.3192 7.80688 16.3192 8.8281 15.2685L16.2232 7.65683C17.9256 5.90548 17.9256 3.06532 16.2232 1.31398C14.5219 -0.437993 11.7624 -0.437993 10.0612 1.31398L2.29579 9.30504L2.2964 9.30567C2.29094 9.31129 2.28486 9.31692 2.28001 9.32192C-0.0933355 11.7652 -0.0933355 15.7254 2.28001 18.168C4.65274 20.6107 8.50085 20.6107 10.8748 18.168C10.8803 18.1624 10.8845 18.1568 10.8906 18.1511L10.8912 18.1518L16.191 12.6965L14.9579 11.4283L9.65807 16.8836H9.65747C9.652 16.8886 9.64654 16.8948 9.64168 16.8998C7.95138 18.6393 5.20221 18.6393 3.51191 16.8998C1.82222 15.1604 1.82222 12.3308 3.51191 10.5914C3.51738 10.5857 3.52345 10.5801 3.52891 10.5751L3.5283 10.5739L11.2937 2.58217C12.3131 1.53274 13.9719 1.53274 14.9913 2.58217C16.0107 3.6316 16.0107 5.3392 14.9913 6.38801L7.59559 13.999C7.25559 14.3491 6.70308 14.3491 6.36308 13.999C6.02368 13.6497 6.02368 13.0802 6.36308 12.7309L12.5256 6.38738Z" fill="#FF6924"/>
</svg>
