<svg width="24" height="24" viewBox="0 0 24 24" fill="none" xmlns="http://www.w3.org/2000/svg">
<rect opacity="0.01" width="24" height="24" fill="black"/>
<path fill-rule="evenodd" clip-rule="evenodd" d="M12.7071 4.29289C13.0676 4.65338 13.0953 5.22061 12.7903 5.6129L12.7071 5.70711L7.415 11H19C19.5523 11 20 11.4477 20 12C20 12.5128 19.614 12.9355 19.1166 12.9933L19 13H7.415L12.7071 18.2929C13.0676 18.6534 13.0953 19.2206 12.7903 19.6129L12.7071 19.7071C12.3466 20.0676 11.7794 20.0953 11.3871 19.7903L11.2929 19.7071L4.29289 12.7071C4.2575 12.6717 4.22531 12.6343 4.19633 12.5953L4.12467 12.4841L4.07123 12.3713L4.03585 12.266L4.01102 12.1485L4.00398 12.0898L4 12L4.00279 11.9248L4.02024 11.7993L4.04974 11.6879L4.09367 11.5768L4.146 11.4793L4.2097 11.3871L4.29289 11.2929L11.2929 4.29289C11.6834 3.90237 12.3166 3.90237 12.7071 4.29289Z" fill="#1E1F20"/>
</svg>
