<svg width="101" height="93" viewBox="0 0 101 93" fill="none" xmlns="http://www.w3.org/2000/svg">
<path d="M21.2917 41.8687L18.7797 15.3236C18.6787 14.2561 19.4375 13.2988 20.5 13.1536L50.5295 9.04924C51.0423 8.97915 51.5623 9.11061 51.9803 9.41598L94.9248 40.7954C95.8401 41.4642 96.0171 42.7593 95.3148 43.6492L70.4106 75.2073C69.7512 76.043 68.5527 76.2156 67.6842 75.6001L22.1263 43.312C21.6513 42.9754 21.3465 42.4484 21.2917 41.8687Z" stroke="#FFBE00"/>
<path d="M14.731 45.9516L15.9631 15.1491C16.006 14.0765 16.888 13.229 17.9615 13.229H51.5155C52.046 13.229 52.5547 13.4397 52.9297 13.8148L95.3014 56.1864C96.0824 56.9675 96.0824 58.2338 95.3014 59.0148L63.15 91.1662C62.3769 91.9393 61.1264 91.9483 60.3422 91.1866L15.3358 47.4661C14.9282 47.0701 14.7083 46.5194 14.731 45.9516Z" fill="#FFBE00"/>
<path d="M64.6061 53.0092C61.3133 50.5298 61.4191 50.8182 62.0015 45.9315C62.1886 44.3627 62.3057 43.0492 62.2619 43.0124C62.2177 42.9758 60.8416 43.8327 59.2034 44.9167C57.5652 46.0004 55.9687 46.8958 55.6554 46.906C55.3422 46.9164 53.923 46.4142 52.5017 45.7902C47.9964 43.8121 48.2494 43.6711 49.4205 47.5042C49.9762 49.3235 50.4314 50.9642 50.4321 51.1501C50.4328 51.336 49.3171 52.705 47.9529 54.1922L45.4727 56.8964L46.4685 57.11C47.0162 57.2273 48.7259 57.3446 50.2678 57.3703L53.0711 57.4172L55.0415 60.6517L57.0123 63.8859L58.3459 60.6358C59.0794 58.8481 59.8482 57.2594 60.0546 57.1049C60.261 56.9508 61.8491 56.5506 63.5836 56.2159C65.3182 55.8813 66.9144 55.5173 67.1309 55.4071C67.3489 55.2955 66.2247 54.2277 64.6061 53.0092Z" fill="#FFFF50"/>
<path d="M9.45053 29.3652C5.41675 25.3314 -4.26431 14.8419 5.41677 5.16086C17.5181 -6.94049 34.9978 10.5395 34.998 17.2638L34.9978 22.6409M34.9978 22.6409C37.687 23.0891 43.0654 25.599 43.0654 32.053C43.0654 40.1206 31.8219 44.2396 26.9302 36.0868M34.9978 22.6409L33.772 28.7701C33.6945 29.1572 33.5042 29.5128 33.225 29.792L26.9302 36.0868M26.9302 36.0868C22.8965 29.3639 29.1712 24.8819 30.964 23.9855" stroke="#FFFF50" stroke-linecap="round" stroke-linejoin="round"/>
</svg>
