<svg width="34" height="29" viewBox="0 0 34 29" fill="none" xmlns="http://www.w3.org/2000/svg">
<path d="M31.069 0H2.93103C1.31227 0 0 1.27292 0 2.84314V26.1569C0 27.7271 1.31227 29 2.93103 29H31.069C32.6877 29 34 27.7271 34 26.1569V2.84314C34 1.27292 32.6877 0 31.069 0Z" fill="#FFBE00"/>
<path d="M34.0016 2.84314V26.1569C34.0016 26.9109 33.6928 27.6341 33.1431 28.1673C32.5935 28.7005 31.8479 29 31.0706 29H13.4844V0H31.0706C31.8479 0 32.5935 0.299544 33.1431 0.832736C33.6928 1.36593 34.0016 2.08909 34.0016 2.84314Z" fill="#FF5000"/>
<path d="M34 13.0784H20.0952C20.372 12.5498 20.5166 11.9654 20.5172 11.3725C20.4999 10.4231 20.1375 9.51003 19.4941 8.79433C18.8506 8.07864 17.9674 7.60624 17 7.46039C16.7428 7.41462 16.4818 7.39178 16.2203 7.39216H15.4348C14.7582 7.39144 14.0904 7.54123 13.4828 7.83V0H11.1379V7.83C10.5303 7.54123 9.8625 7.39144 9.18586 7.39216H8.40034C7.28697 7.36926 6.20961 7.7753 5.40423 8.52135C4.59886 9.2674 4.13112 10.2927 4.10345 11.3725C4.10411 11.9654 4.2487 12.5498 4.52552 13.0784H0V15.3529H9.51414C8.16 16.5584 6.67103 17.6275 5.86207 17.6275C5.55113 17.6275 5.25292 17.7473 5.03305 17.9605C4.81318 18.1738 4.68965 18.4631 4.68965 18.7647C4.68965 19.0663 4.81318 19.3556 5.03305 19.5689C5.25292 19.7821 5.55113 19.902 5.86207 19.902C7.5269 19.902 9.60207 18.3837 11.1379 17.002V29H13.4828V17.002C15.0186 18.3837 17.0938 19.902 18.7586 19.902C19.0696 19.902 19.3678 19.7821 19.5876 19.5689C19.8075 19.3556 19.931 19.0663 19.931 18.7647C19.931 18.4631 19.8075 18.1738 19.5876 17.9605C19.3678 17.7473 19.0696 17.6275 18.7586 17.6275C17.9965 17.6275 16.531 16.6267 15.1007 15.3529H34V13.0784ZM11.1379 13.0784H8.40034C7.90909 13.1002 7.42878 12.9334 7.06342 12.6141C6.69805 12.2948 6.47705 11.8487 6.44828 11.3725C6.47705 10.8963 6.69805 10.4503 7.06342 10.131C7.42878 9.81174 7.90909 9.64491 8.40034 9.66667H9.18586C9.67711 9.64491 10.1574 9.81174 10.5228 10.131C10.8882 10.4503 11.1092 10.8963 11.1379 11.3725V13.0784ZM17 12.9306C16.7527 13.0291 16.4877 13.0793 16.2203 13.0784H13.4828V11.3725C13.5115 10.8963 13.7325 10.4503 14.0979 10.131C14.4633 9.81174 14.9436 9.64491 15.4348 9.66667H16.2203C16.4877 9.66576 16.7527 9.716 17 9.81451C17.3395 9.92112 17.6354 10.1293 17.8453 10.4093C18.0552 10.6892 18.1683 11.0264 18.1683 11.3725C18.1683 11.7187 18.0552 12.0559 17.8453 12.3358C17.6354 12.6158 17.3395 12.824 17 12.9306Z" fill="#FFFF6E"/>
<path d="M34.0016 15.3529H15.1023C16.5327 16.6266 17.9982 17.6274 18.7602 17.6274C19.0712 17.6274 19.3694 17.7472 19.5893 17.9605C19.8091 18.1738 19.9327 18.463 19.9327 18.7646C19.9327 19.0663 19.8091 19.3555 19.5893 19.5688C19.3694 19.7821 19.0712 19.9019 18.7602 19.9019C17.0954 19.9019 15.0202 18.3837 13.4844 17.0019V13.0784H16.222C16.4893 13.0793 16.7543 13.029 17.0016 12.9305C17.3411 12.8239 17.637 12.6157 17.8469 12.3358C18.0568 12.0559 18.1699 11.7186 18.1699 11.3725C18.1699 11.0263 18.0568 10.6891 17.8469 10.4092C17.637 10.1293 17.3411 9.92106 17.0016 9.81445C16.7543 9.71594 16.4893 9.6657 16.222 9.6666H15.4364C14.9452 9.64485 14.4649 9.81168 14.0995 10.131C13.7342 10.4502 13.5132 10.8963 13.4844 11.3725V7.82994C14.092 7.54116 14.7598 7.39138 15.4364 7.39209H16.222C16.4834 7.39172 16.7444 7.41456 17.0016 7.46033C17.969 7.60617 18.8522 8.07857 19.4957 8.79427C20.1391 9.50996 20.5015 10.423 20.5189 11.3725C20.5182 11.9654 20.3736 12.5498 20.0968 13.0784H34.0016V15.3529Z" fill="#FFBE00"/>
</svg>
