<svg width="20" height="20" viewBox="0 0 20 20" fill="none" xmlns="http://www.w3.org/2000/svg">
<path fill-rule="evenodd" clip-rule="evenodd" d="M9.03483 0.0303879C7.32552 0.167742 5.33989 0.939226 3.92586 2.01561C3.20702 2.56274 2.15861 3.66182 1.70626 4.34231C1.2528 5.02451 0.757207 6.05821 0.482954 6.89384C-0.505267 9.90559 0.0468356 13.3863 1.92144 15.9621C2.52758 16.795 3.75057 17.9534 4.58492 18.4849C7.05383 20.0578 10.1504 20.4313 12.8878 19.4867C14.3384 18.986 15.7648 18.0738 16.7684 17.0049C17.1867 16.5595 17.268 16.4264 17.268 16.1874C17.268 15.8569 16.978 15.556 16.5064 15.3971C16.0902 15.2568 15.8658 15.3489 15.2767 15.9018C13.0775 17.9662 10.1307 18.653 7.35622 17.7478C4.60242 16.8494 2.58801 14.5302 1.98331 11.562C1.775 10.5393 1.81761 8.90633 2.07811 7.93024C3.19535 3.74425 7.29339 1.17149 11.4328 2.05724C15.1115 2.84439 17.7476 6.18357 17.7476 10.0562C17.7476 10.9581 17.7209 11.023 17.4161 10.8621C17.0481 10.6678 16.8684 10.7719 16.8678 11.1798C16.8665 11.9427 17.0535 14.0583 17.131 14.1571C17.1766 14.2154 17.28 14.2521 17.3606 14.2387C17.4413 14.2253 18.0649 13.8294 18.7465 13.3589C20.1322 12.4024 20.2364 12.2527 19.6985 11.9908C19.43 11.86 19.4145 11.8322 19.4611 11.5636C19.597 10.7813 19.6018 9.53181 19.4723 8.63554C19.1425 6.35495 18.26 4.55605 16.6787 2.94151C15.4024 1.63848 13.9962 0.802443 12.3114 0.344841C11.209 0.0454863 10.1329 -0.0577536 9.03483 0.0303879ZM9.4345 4.98541V5.59073L9.03371 5.67855C8.41254 5.81452 8.11231 5.9708 7.68147 6.38229C7.17205 6.8687 6.99572 7.32157 6.99907 8.13427C7.00099 8.6033 7.04464 8.83687 7.18588 9.13378C7.49922 9.79223 7.91288 10.0784 9.82297 10.9583C10.1026 11.0872 10.4212 11.3015 10.5309 11.4347C10.703 11.6435 10.7257 11.737 10.6951 12.1139C10.6517 12.6468 10.4688 12.8621 10.0051 12.9256C9.33178 13.0178 8.71749 12.5943 8.71389 12.0354C8.71142 11.6621 8.64011 11.6365 7.66956 11.6612L6.75672 11.6844L6.76415 12.1741C6.78086 13.2741 7.56421 14.1095 8.82452 14.3713L9.3146 14.473L9.3381 15.0579L9.3616 15.6426H9.83768H10.3138V15.0729C10.3138 14.5178 10.3194 14.5018 10.5336 14.4535C11.9922 14.1244 12.7126 13.3332 12.7113 12.0618C12.7101 10.789 12.0363 9.97863 10.4645 9.35977C10.1089 9.2198 9.67494 9.01308 9.5002 8.90045C8.67992 8.37168 8.86849 7.15443 9.77062 7.15525C10.301 7.15574 10.5943 7.38221 10.7118 7.88225L10.8093 8.2975H11.7717H12.734L12.6918 7.82235C12.6368 7.2034 12.4152 6.77501 11.9101 6.31137C11.5344 5.9664 11.3333 5.87075 10.4936 5.63717C10.425 5.61807 10.3937 5.41723 10.3937 4.99472V4.38009H9.9141H9.4345V4.98541Z" fill="#FF6924"/>
</svg>
