<svg width="14" height="16" viewBox="0 0 14 16" fill="none" xmlns="http://www.w3.org/2000/svg">
<path fill-rule="evenodd" clip-rule="evenodd" d="M7 0.125C10.7279 0.125 13.75 2.94561 13.75 6.425C13.75 8.72529 12.6152 10.983 10.7631 13.0353C9.39625 14.5473 7.67584 15.875 7 15.875C6.32416 15.875 4.60291 14.5481 3.23688 13.0353C1.38569 10.983 0.25 8.72529 0.25 6.425C0.25 2.94561 3.27208 0.125 7 0.125ZM7 4.0625C8.39797 4.0625 9.53125 5.19942 9.53125 6.60187C9.53125 8.00433 8.39797 9.14125 7 9.14125C5.60203 9.14125 4.46875 8.00433 4.46875 6.60187C4.46875 5.19942 5.60203 4.0625 7 4.0625ZM6.15625 6.60187C6.15625 7.06936 6.53401 7.44833 7 7.44833C7.46599 7.44833 7.84375 7.06936 7.84375 6.60187C7.84375 6.13439 7.46599 5.75542 7 5.75542C6.53401 5.75542 6.15625 6.13439 6.15625 6.60187Z" fill="#1E1F20"/>
</svg>
