<svg width="28" height="42" viewBox="0 0 28 42" fill="none" xmlns="http://www.w3.org/2000/svg">
<path d="M14.0001 19.9553C12.6811 19.9553 11.416 19.4051 10.4833 18.4257C9.5506 17.4464 9.0266 16.1181 9.0266 14.7331C9.0266 13.348 9.5506 12.0197 10.4833 11.0404C11.416 10.061 12.6811 9.51084 14.0001 9.51084C15.3192 9.51084 16.5843 10.061 17.517 11.0404C18.4497 12.0197 18.9737 13.348 18.9737 14.7331C18.9737 15.4189 18.845 16.0979 18.5951 16.7315C18.3452 17.3651 17.9788 17.9408 17.517 18.4257C17.0551 18.9107 16.5069 19.2953 15.9034 19.5578C15.3 19.8202 14.6533 19.9553 14.0001 19.9553ZM14.0001 0.11084C10.3068 0.11084 6.76465 1.65139 4.15303 4.39359C1.54141 7.13579 0.0742188 10.855 0.0742188 14.7331C0.0742188 25.6997 14.0001 41.8886 14.0001 41.8886C14.0001 41.8886 27.9261 25.6997 27.9261 14.7331C27.9261 10.855 26.4589 7.13579 23.8473 4.39359C21.2356 1.65139 17.6935 0.11084 14.0001 0.11084Z" fill="#FF6924"/>
</svg>
