<svg width="40" height="40" viewBox="0 0 40 40" fill="none" xmlns="http://www.w3.org/2000/svg">
<path fill-rule="evenodd" clip-rule="evenodd" d="M12 0H28C34.6274 0 40 5.37258 40 12V28C40 34.6274 34.6274 40 28 40H12C5.37258 40 0 34.6274 0 28V12C0 5.37258 5.37258 0 12 0Z" fill="#FF6924"/>
<rect opacity="0.01" x="8" y="8" width="24" height="24" fill="black"/>
<path fill-rule="evenodd" clip-rule="evenodd" d="M11 29H29C29.5523 29 30 28.5523 30 28V18H10V28C10 28.5523 10.4477 29 11 29ZM30 12V16H10V12C10 11.4477 10.4477 11 11 11H15C15 10.4477 15.4477 10 16 10C16.5523 10 17 10.4477 17 11H23C23 10.4477 23.4477 10 24 10C24.5523 10 25 10.4477 25 11H29C29.5523 11 30 11.4477 30 12ZM18.5415 25.8277C18.8878 26.0322 19.3418 25.9858 19.6396 25.6878L23.7644 21.5422C24.1173 21.1895 24.1173 20.6175 23.7645 20.2646C23.4118 19.9118 22.8396 19.9118 22.4868 20.2646L19.0005 23.7714L17.5423 22.4936C17.1894 22.1408 16.6173 22.1408 16.2645 22.4936C15.9118 22.8466 15.9118 23.4186 16.2645 23.7714L18.3617 25.6882C18.4168 25.7431 18.4772 25.7897 18.5415 25.8277Z" fill="white"/>
</svg>
