<svg width="25" height="24" viewBox="0 0 25 24" fill="none" xmlns="http://www.w3.org/2000/svg">
<path fill-rule="evenodd" clip-rule="evenodd" d="M7.7 0H17.3C21.2765 0 24.5 3.22355 24.5 7.2V16.8C24.5 20.7765 21.2765 24 17.3 24H7.7C3.72355 24 0.5 20.7765 0.5 16.8V7.2C0.5 3.22355 3.72355 0 7.7 0Z" fill="#FF6924"/>
<rect opacity="0.01" x="5.30078" y="4.7998" width="14.4" height="14.4" fill="black"/>
<path fill-rule="evenodd" clip-rule="evenodd" d="M18.349 7.8188C18.1436 7.45034 17.7496 7.19971 17.3 7.19971H7.7C7.25035 7.19971 6.8564 7.45035 6.65096 7.81882C6.69499 7.83025 6.7382 7.84687 6.7797 7.8688L6.84404 7.90813L12.5 11.8671L18.1559 7.90813C18.2162 7.86588 18.2817 7.83629 18.349 7.8188ZM18.5 9.13204L12.844 13.0912C12.6604 13.2198 12.4227 13.234 12.2271 13.1341L12.1559 13.0912L6.5 9.13209V15.5997C6.5 16.2597 7.04 16.7997 7.7 16.7997H17.3C17.96 16.7997 18.5 16.2597 18.5 15.5997V9.13204Z" fill="white"/>
</svg>
