<svg width="16" height="16" viewBox="0 0 16 16" fill="none" xmlns="http://www.w3.org/2000/svg">
<path d="M4.91 1.54252L3.94625 0.39502L0.5 3.28627L1.46375 4.43377L4.91 1.54252ZM15.5 3.29002L12.0538 0.39877L11.09 1.54627L14.5363 4.43752L15.5 3.29002ZM7.99625 2.00002C4.265 2.00002 1.25 5.02252 1.25 8.75002C1.25 12.4775 4.265 15.5 7.99625 15.5C11.7275 15.5 14.75 12.4775 14.75 8.75002C14.75 5.02252 11.7275 2.00002 7.99625 2.00002ZM8 14C5.10125 14 2.75 11.6488 2.75 8.75002C2.75 5.85127 5.10125 3.50002 8 3.50002C10.8988 3.50002 13.25 5.85127 13.25 8.75002C13.25 11.6488 10.9025 14 8 14ZM5.75 7.25002H8.46875L5.75 10.4V11.75H10.25V10.25H7.53125L10.25 7.10002V5.75002H5.75V7.25002Z" fill="#9393AA"/>
</svg>
