<svg width="20" height="20" viewBox="0 0 20 20" fill="none" xmlns="http://www.w3.org/2000/svg">
<path fill-rule="evenodd" clip-rule="evenodd" d="M10.0004 0C4.48573 0 0 4.48687 0 10.0004C0 15.5148 4.48576 20 10.0004 20C15.5143 20 20 15.5148 20 10.0004C20 4.48683 15.5143 0 10.0004 0ZM10.0004 18.1613C5.49981 18.1613 1.83907 14.5005 1.83907 10.0004C1.83907 5.50035 5.49984 1.83953 10.0004 1.83953C14.4994 1.83953 18.1601 5.50037 18.1601 10.0004C18.1601 14.5005 14.4994 18.1613 10.0004 18.1613ZM14.7438 12.4776L10.9195 9.99546V4.97583C10.9195 4.46787 10.5091 4.05566 10.0004 4.05566C9.49173 4.05566 9.08052 4.46787 9.08052 4.97583V10.9941L13.7413 14.0205C13.8974 14.1213 14.0708 14.1692 14.2417 14.1692C14.5432 14.1692 14.8388 14.0222 15.0139 13.7504C15.2914 13.3234 15.1691 12.7543 14.7438 12.4776L14.7438 12.4776Z" fill="white"/>
</svg>
